GeoramaSemiCondensed-Italic.ufo
<glyph name="exclam" format="2">
  <advance width="178.526"/>
  <unicode hex="0021"/>
  <outline>
    <contour>
      <point x="55.468" y="262.45" type="line"/>
      <point x="117.36399999999999" y="262.45" type="line"/>
      <point x="198.626" y="740.0" type="line"/>
      <point x="127.74000000000001" y="740.0" type="line"/>
    </contour>
    <contour>
      <point x="10.006000000000002" y="28.413999999999998" type="curve" smooth="yes"/>
      <point x="9.316000000000003" y="6.449999999999999"/>
      <point x="18.48" y="-3.1"/>
      <point x="44.284" y="-3.1" type="curve" smooth="yes"/>
      <point x="82.94200000000001" y="-3.1"/>
      <point x="93.558" y="23.381999999999998"/>
      <point x="95.628" y="61.324" type="curve" smooth="yes"/>
      <point x="96.318" y="83.84"/>
      <point x="86.05000000000001" y="92.83800000000001"/>
      <point x="60.86" y="92.83800000000001" type="curve" smooth="yes"/>
      <point x="23.492" y="92.83800000000001"/>
      <point x="12.076000000000002" y="66.542"/>
    </contour>
  </outline>
</glyph>
<glyph name="numbersign" format="2">
  <advance width="449.952"/>
  <unicode hex="0023"/>
  <outline>
    <contour>
      <point x="98.556" y="455.796" type="line"/>
      <point x="165.44400000000002" y="455.796" type="line"/>
      <point x="103.584" y="240.682" type="line"/>
      <point x="40.58200000000001" y="240.682" type="line"/>
      <point x="30.223999999999997" y="178.924" type="line"/>
      <point x="88.326" y="178.924" type="line"/>
      <point x="38.034" y="0.0" type="line"/>
      <point x="97.83200000000001" y="0.0" type="line"/>
      <point x="147.434" y="178.924" type="line"/>
      <point x="235.04600000000002" y="178.924" type="line"/>
      <point x="185.44400000000002" y="0.0" type="line"/>
      <point x="244.442" y="0.0" type="line"/>
      <point x="294.04400000000004" y="178.924" type="line"/>
      <point x="365.60400000000004" y="178.924" type="line"/>
      <point x="375.34800000000007" y="240.682" type="line"/>
      <point x="309.5640000000001" y="240.682" type="line"/>
      <point x="371.16200000000003" y="455.796" type="line"/>
      <point x="433.322" y="455.796" type="line"/>
      <point x="443.514" y="517.926" type="line"/>
      <point x="386.55800000000005" y="517.926" type="line"/>
      <point x="437.88400000000007" y="700.0" type="line"/>
      <point x="378.63800000000003" y="700.0" type="line"/>
      <point x="327.312" y="517.926" type="line"/>
      <point x="239.70000000000002" y="517.926" type="line"/>
      <point x="291.02599999999995" y="700.0" type="line"/>
      <point x="232.028" y="700.0" type="line"/>
      <point x="180.702" y="517.926" type="line"/>
      <point x="108.68599999999999" y="517.926" type="line"/>
    </contour>
    <contour>
      <point x="224.442" y="455.796" type="line"/>
      <point x="312.05400000000003" y="455.796" type="line"/>
      <point x="250.442" y="240.682" type="line"/>
      <point x="162.83" y="240.682" type="line"/>
    </contour>
  </outline>
</glyph>
<glyph name="dollar" format="2">
  <advance width="449.952"/>
  <unicode hex="0024"/>
  <outline>
    <contour>
      <point x="433.33599999999996" y="683.9159999999999" type="line"/>
      <point x="412.45000000000005" y="693.852"/>
      <point x="375.556" y="705.948"/>
      <point x="328.04" y="708.946" type="curve"/>
      <point x="343.24" y="804.504" type="line"/>
      <point x="283.08000000000004" y="804.504" type="line"/>
      <point x="266.722" y="705.046" type="line"/>
      <point x="162.062" y="692.302"/>
      <point x="94.08400000000002" y="606.952"/>
      <point x="94.08400000000002" y="511.5520000000001" type="curve" smooth="yes"/>
      <point x="94.08400000000002" y="342.416"/>
      <point x="307.7" y="303.42400000000004"/>
      <point x="307.7" y="182.706" type="curve" smooth="yes"/>
      <point x="307.7" y="109.768"/>
      <point x="245.25199999999998" y="56.733999999999995"/>
      <point x="171.382" y="56.733999999999995" type="curve" smooth="yes"/>
      <point x="119.41799999999999" y="56.733999999999995"/>
      <point x="64.578" y="69.686"/>
      <point x="30.128" y="85.64" type="curve"/>
      <point x="4.352000000000002" y="22.29" type="line"/>
      <point x="33.918" y="8.852"/>
      <point x="84.476" y="-6.134"/>
      <point x="137.78199999999998" y="-8.450000000000001" type="curve"/>
      <point x="122.782" y="-105.0" type="line"/>
      <point x="182.88" y="-105.0" type="line"/>
      <point x="197.88" y="-6.843999999999999" type="line"/>
      <point x="308.58" y="5.714"/>
      <point x="380.896" y="89.93599999999999"/>
      <point x="380.896" y="189.47599999999997" type="curve" smooth="yes"/>
      <point x="380.896" y="357.44599999999997"/>
      <point x="168.816" y="392.882"/>
      <point x="168.816" y="515.316" type="curve" smooth="yes"/>
      <point x="168.816" y="583.1840000000001"/>
      <point x="226.99200000000002" y="642.1379999999999"/>
      <point x="297.75" y="642.1379999999999" type="curve" smooth="yes"/>
      <point x="342.7" y="642.1379999999999"/>
      <point x="376.68600000000004" y="634.3159999999999"/>
      <point x="408.73199999999997" y="620.864" type="curve"/>
    </contour>
  </outline>
</glyph>
<glyph name="ampersand" format="2">
  <advance width="514.056"/>
  <unicode hex="0026"/>
  <outline>
    <contour>
      <point x="196.144" y="-10.0" type="curve" smooth="yes"/>
      <point x="333.88800000000003" y="-10.0"/>
      <point x="442.19199999999995" y="137.984"/>
      <point x="429.08" y="294.1" type="curve"/>
      <point x="370.656" y="293.12000000000006" type="line"/>
      <point x="388.84000000000003" y="173.52399999999997"/>
      <point x="297.15199999999993" y="53.088"/>
      <point x="205.68" y="53.088" type="curve" smooth="yes"/>
      <point x="129.084" y="53.088"/>
      <point x="89.74399999999999" y="96.41600000000001"/>
      <point x="89.74399999999999" y="166.404" type="curve" smooth="yes"/>
      <point x="89.74399999999999" y="290.204"/>
      <point x="179.248" y="376.856"/>
      <point x="287.08000000000004" y="376.856" type="curve" smooth="yes"/>
      <point x="302.85200000000003" y="376.856" type="line"/>
      <point x="313.684" y="426.876" type="line"/>
      <point x="301.94399999999996" y="428.116" type="line" smooth="yes"/>
      <point x="237.372" y="431.0919999999999"/>
      <point x="200.684" y="468.028"/>
      <point x="200.684" y="534.472" type="curve" smooth="yes"/>
      <point x="200.684" y="598.084"/>
      <point x="243.02399999999997" y="649.696"/>
      <point x="304.98" y="649.696" type="curve" smooth="yes"/>
      <point x="339.82" y="649.696"/>
      <point x="370.432" y="638.824"/>
      <point x="398.964" y="614.924" type="curve"/>
      <point x="432.944" y="667.2280000000001" type="line"/>
      <point x="396.81600000000003" y="694.6200000000001"/>
      <point x="351.64" y="710.0"/>
      <point x="300.236" y="710.0" type="curve" smooth="yes"/>
      <point x="196.752" y="710.0"/>
      <point x="132.00799999999998" y="632.788"/>
      <point x="132.00799999999998" y="541.6759999999999" type="curve" smooth="yes"/>
      <point x="132.00799999999998" y="476.212"/>
      <point x="163.524" y="429.08399999999995"/>
      <point x="216.13200000000003" y="407.58" type="curve"/>
      <point x="102.452" y="384.73999999999995"/>
      <point x="19.704" y="290.84400000000005"/>
      <point x="19.704" y="155.06400000000002" type="curve" smooth="yes"/>
      <point x="19.704" y="56.476"/>
      <point x="78.428" y="-10.0"/>
    </contour>
    <contour>
      <point x="291.38" y="244.04000000000002" type="line"/>
      <point x="295.36" y="272.928"/>
      <point x="311.95599999999996" y="287.196"/>
      <point x="337.29999999999995" y="287.196" type="curve" smooth="yes"/>
      <point x="378.068" y="287.196"/>
      <point x="404.38399999999996" y="273.236"/>
      <point x="447.716" y="273.236" type="curve" smooth="yes"/>
      <point x="496.88" y="273.236"/>
      <point x="529.1320000000001" y="313.696"/>
      <point x="528.3960000000001" y="362.848" type="curve"/>
      <point x="482.656" y="367.81600000000003" type="line"/>
      <point x="478.29600000000005" y="333.096"/>
      <point x="458.53200000000004" y="320.892"/>
      <point x="424.93199999999996" y="320.892" type="curve" smooth="yes"/>
      <point x="391.96" y="320.892"/>
      <point x="364.356" y="335.596"/>
      <point x="329.328" y="335.596" type="curve" smooth="yes"/>
      <point x="278.728" y="335.596"/>
      <point x="251.876" y="300.836"/>
      <point x="245.688" y="255.88400000000001" type="curve"/>
    </contour>
  </outline>
</glyph>
<glyph name="quotesingle" format="2">
  <advance width="150.606"/>
  <unicode hex="0027"/>
  <outline>
    <contour>
      <point x="70.204" y="427.0" type="line"/>
      <point x="127.038" y="427.0" type="line"/>
      <point x="175.89800000000002" y="700.0" type="line"/>
      <point x="108.708" y="700.0" type="line"/>
    </contour>
  </outline>
</glyph>
<glyph name="parenleft" format="2">
  <advance width="243.176"/>
  <unicode hex="0028"/>
  <outline>
    <contour>
      <point x="36.756" y="25.960000000000004" type="curve" smooth="yes"/>
      <point x="36.756" y="-103.852"/>
      <point x="70.236" y="-196.942"/>
      <point x="144.858" y="-220.0" type="curve"/>
      <point x="160.756" y="-159.57999999999998" type="line"/>
      <point x="120.342" y="-141.078"/>
      <point x="95.25600000000001" y="-73.606"/>
      <point x="95.25600000000001" y="31.173999999999996" type="curve" smooth="yes"/>
      <point x="95.25600000000001" y="209.24800000000002"/>
      <point x="175.8" y="641.602"/>
      <point x="293.508" y="686.876" type="curve"/>
      <point x="297.86999999999995" y="749.448" type="line"/>
      <point x="117.638" y="697.408"/>
      <point x="36.756" y="256.778"/>
    </contour>
  </outline>
</glyph>
<glyph name="parenright" format="2">
  <advance width="243.176"/>
  <unicode hex="0029"/>
  <outline>
    <contour>
      <point x="203.91" y="503.76399999999995" type="curve" smooth="yes"/>
      <point x="203.91" y="634.7139999999999"/>
      <point x="170.706" y="726.942"/>
      <point x="95.94600000000001" y="750.0" type="curve"/>
      <point x="81.15199999999999" y="687.338" type="line"/>
      <point x="124.05" y="665.2479999999999"/>
      <point x="145.41" y="600.674"/>
      <point x="145.41" y="505.41600000000005" type="curve" smooth="yes"/>
      <point x="145.41" y="324.168"/>
      <point x="65.28" y="-112.15400000000001"/>
      <point x="-53.669999999999995" y="-157.70399999999998" type="curve"/>
      <point x="-57.480000000000004" y="-220.0" type="line"/>
      <point x="116.542" y="-165.118"/>
      <point x="203.91" y="267.90799999999996"/>
    </contour>
  </outline>
</glyph>
<glyph name="asterisk" format="2">
  <advance width="270.372"/>
  <unicode hex="002A"/>
  <outline>
    <contour>
      <point x="93.80799999999999" y="385.69" type="line"/>
      <point x="167.39399999999998" y="478.72200000000004" type="line"/>
      <point x="210.204" y="386.242" type="line"/>
      <point x="243.404" y="408.366" type="line"/>
      <point x="206.504" y="509.78799999999995" type="line"/>
      <point x="302.756" y="554.948" type="line"/>
      <point x="296.47599999999994" y="591.642" type="line"/>
      <point x="201.55" y="556.902" type="line"/>
      <point x="216.98999999999998" y="676.7280000000001" type="line"/>
      <point x="179.94400000000002" y="676.7280000000001" type="line"/>
      <point x="157.312" y="557.454" type="line"/>
      <point x="73.71199999999999" y="592.1940000000001" type="line"/>
      <point x="56.254000000000005" y="556.052" type="line"/>
      <point x="136.548" y="510.892" type="line"/>
      <point x="66.872" y="408.642" type="line"/>
    </contour>
  </outline>
</glyph>
<glyph name="plus" format="2">
  <advance width="400.316"/>
  <unicode hex="002B"/>
  <outline>
    <contour>
      <point x="140.696" y="95.498" type="line"/>
      <point x="203.702" y="95.498" type="line"/>
      <point x="231.04600000000002" y="268.28799999999995" type="line"/>
      <point x="354.974" y="268.28799999999995" type="line"/>
      <point x="365.35200000000003" y="333.65" type="line"/>
      <point x="241.424" y="333.65" type="line"/>
      <point x="268.96799999999996" y="506.93" type="line"/>
      <point x="206.08599999999998" y="506.93" type="line"/>
      <point x="178.418" y="333.65" type="line"/>
      <point x="54.124" y="333.65" type="line"/>
      <point x="43.745999999999995" y="268.28799999999995" type="line"/>
      <point x="168.16400000000002" y="268.28799999999995" type="line"/>
    </contour>
  </outline>
</glyph>
<glyph name="comma" format="2">
  <advance width="149.472"/>
  <unicode hex="002C"/>
  <outline>
    <contour>
      <point x="7.2379999999999995" y="57.042" type="line"/>
      <point x="8.032" y="39.05"/>
      <point x="7.0680000000000005" y="21.546"/>
      <point x="6.0760000000000005" y="8.872" type="curve" smooth="yes"/>
      <point x="2.976" y="-53.166000000000004"/>
      <point x="-32.63199999999999" y="-136.832"/>
      <point x="-77.30799999999999" y="-174.972" type="curve"/>
      <point x="-31.380000000000003" y="-195.952" type="line"/>
      <point x="40.54" y="-137.556"/>
      <point x="74.89" y="-37.512"/>
      <point x="74.89" y="26.622" type="curve" smooth="yes"/>
      <point x="74.89" y="38.698"/>
      <point x="74.166" y="49.836"/>
      <point x="72.186" y="62.458000000000006" type="curve"/>
    </contour>
  </outline>
</glyph>
<glyph name="hyphen" format="2">
  <advance width="260.088"/>
  <unicode hex="002D"/>
  <outline>
    <contour>
      <point x="26.150000000000002" y="246.14600000000002" type="line"/>
      <point x="224.47200000000004" y="246.14600000000002" type="line"/>
      <point x="236.394" y="315.304" type="line"/>
      <point x="38.072" y="315.304" type="line"/>
    </contour>
  </outline>
</glyph>
<glyph name="period" format="2">
  <advance width="150.278"/>
  <unicode hex="002E"/>
  <outline>
    <contour>
      <point x="-4.022" y="29.158" type="curve" smooth="yes"/>
      <point x="-4.712" y="6.946"/>
      <point x="4.2040000000000015" y="-2.356"/>
      <point x="30.256" y="-2.356" type="curve" smooth="yes"/>
      <point x="68.914" y="-2.356"/>
      <point x="79.282" y="24.125999999999998"/>
      <point x="81.352" y="62.564" type="curve" smooth="yes"/>
      <point x="82.042" y="84.83200000000001"/>
      <point x="72.022" y="93.582"/>
      <point x="46.831999999999994" y="93.582" type="curve" smooth="yes"/>
      <point x="9.216000000000001" y="93.582"/>
      <point x="-1.952" y="67.286"/>
    </contour>
  </outline>
</glyph>
<glyph name="slash" format="2">
  <advance width="293.67"/>
  <unicode hex="002F"/>
  <outline>
    <contour>
      <point x="-71.408" y="-210.0" type="line"/>
      <point x="-10.757999999999997" y="-210.0" type="line"/>
      <point x="362.078" y="740.0" type="line"/>
      <point x="300.87" y="740.0" type="line"/>
    </contour>
  </outline>
</glyph>
<glyph name="zero" format="2">
  <advance width="450.324"/>
  <unicode hex="0030"/>
  <outline>
    <contour>
      <point x="188.168" y="-10.62" type="curve" smooth="yes"/>
      <point x="364.9080000000001" y="-10.62"/>
      <point x="446.61" y="295.834"/>
      <point x="446.61" y="508.23" type="curve" smooth="yes"/>
      <point x="446.61" y="647.3719999999998"/>
      <point x="396.97200000000004" y="710.31"/>
      <point x="285.472" y="710.31" type="curve" smooth="yes"/>
      <point x="105.866" y="710.31"/>
      <point x="26.796" y="403.07800000000003"/>
      <point x="26.796" y="192.542" type="curve" smooth="yes"/>
      <point x="26.796" y="53.71000000000001"/>
      <point x="76.82" y="-10.62"/>
    </contour>
    <contour>
      <point x="194.368" y="57.05" type="curve" smooth="yes"/>
      <point x="126.172" y="57.05"/>
      <point x="98.50200000000001" y="101.5"/>
      <point x="99.11600000000001" y="192.858" type="curve" smooth="yes"/>
      <point x="100.03399999999999" y="358.308"/>
      <point x="161.59799999999998" y="642.9499999999999"/>
      <point x="279.272" y="642.9499999999999" type="curve" smooth="yes"/>
      <point x="347.62" y="642.9499999999999"/>
      <point x="374.904" y="599.272"/>
      <point x="374.29" y="507.914" type="curve" smooth="yes"/>
      <point x="373.372" y="343.15999999999997"/>
      <point x="311.346" y="57.05"/>
    </contour>
  </outline>
</glyph>
<glyph name="one" format="2">
  <advance width="449.952"/>
  <unicode hex="0031"/>
  <outline>
    <contour>
      <point x="21.584000000000003" y="0.0" type="line"/>
      <point x="372.858" y="0.0" type="line"/>
      <point x="383.422" y="65.74199999999999" type="line"/>
      <point x="250.72600000000003" y="65.74199999999999" type="line"/>
      <point x="352.182" y="701.38" type="line"/>
      <point x="315.88599999999997" y="701.38" type="line"/>
      <point x="97.25200000000001" y="583.764" type="line"/>
      <point x="105.80399999999999" y="515.086" type="line"/>
      <point x="265.40999999999997" y="606.318" type="line"/>
      <point x="179.412" y="65.74199999999999" type="line"/>
      <point x="31.900000000000002" y="65.74199999999999" type="line"/>
    </contour>
  </outline>
</glyph>
<glyph name="two" format="2">
  <advance width="450.324"/>
  <unicode hex="0032"/>
  <outline>
    <contour>
      <point x="25.212000000000003" y="53.58" type="curve"/>
      <point x="19.62" y="0.0" type="line"/>
      <point x="360.796" y="0.0" type="line"/>
      <point x="370.69800000000004" y="62.09" type="line"/>
      <point x="119.868" y="62.09" type="line"/>
      <point x="289.15200000000004" y="258.64199999999994"/>
      <point x="402.096" y="417.3519999999999"/>
      <point x="402.096" y="571.1139999999999" type="curve" smooth="yes"/>
      <point x="402.096" y="658.326"/>
      <point x="349.73800000000006" y="710.0"/>
      <point x="269.59599999999995" y="710.0" type="curve" smooth="yes"/>
      <point x="211.214" y="710.0"/>
      <point x="152.89600000000002" y="689.4439999999998"/>
      <point x="106.766" y="651.748" type="curve"/>
      <point x="125.686" y="593.1080000000001" type="line"/>
      <point x="166.908" y="623.838"/>
      <point x="205.306" y="639.692"/>
      <point x="245.90200000000002" y="639.692" type="curve" smooth="yes"/>
      <point x="296.444" y="639.692"/>
      <point x="328.536" y="606.19"/>
      <point x="328.536" y="551.012" type="curve" smooth="yes"/>
      <point x="328.23199999999997" y="424.778"/>
      <point x="214.76599999999996" y="264.33"/>
    </contour>
  </outline>
</glyph>
<glyph name="three" format="2">
  <advance width="450.4"/>
  <unicode hex="0033"/>
  <outline>
    <contour>
      <point x="-6.799999999999999" y="42.294999999999995" type="line"/>
      <point x="33.730000000000004" y="8.19"/>
      <point x="88.28" y="-10.0"/>
      <point x="158.535" y="-10.0" type="curve" smooth="yes"/>
      <point x="282.43" y="-10.0"/>
      <point x="384.95500000000004" y="81.77000000000001"/>
      <point x="384.95500000000004" y="235.625" type="curve" smooth="yes"/>
      <point x="384.95500000000004" y="315.79499999999996"/>
      <point x="350.71500000000003" y="356.935"/>
      <point x="304.73" y="371.0" type="curve"/>
      <point x="363.775" y="396.905"/>
      <point x="413.98499999999996" y="464.17"/>
      <point x="413.98499999999996" y="562.745" type="curve" smooth="yes"/>
      <point x="413.98499999999996" y="652.86"/>
      <point x="359.52500000000003" y="710.0"/>
      <point x="259.315" y="710.0" type="curve" smooth="yes"/>
      <point x="208.33" y="710.0"/>
      <point x="148.96000000000004" y="696.175"/>
      <point x="107.19" y="667.7850000000001" type="curve"/>
      <point x="124.475" y="610.435" type="line"/>
      <point x="159.25500000000002" y="631.2650000000001"/>
      <point x="198.98000000000002" y="640.935"/>
      <point x="239.285" y="640.935" type="curve" smooth="yes"/>
      <point x="302.29499999999996" y="640.935"/>
      <point x="341.20000000000005" y="600.82"/>
      <point x="341.20000000000005" y="538.995" type="curve" smooth="yes"/>
      <point x="341.20000000000005" y="457.88"/>
      <point x="291.03000000000003" y="392.25999999999993"/>
      <point x="221.75500000000002" y="392.25999999999993" type="curve" smooth="yes"/>
      <point x="150.49" y="392.25999999999993" type="line"/>
      <point x="140.825" y="335.20000000000005" type="line"/>
      <point x="221.07000000000002" y="335.20000000000005" type="line" smooth="yes"/>
      <point x="282.695" y="335.20000000000005"/>
      <point x="313.925" y="300.84999999999997"/>
      <point x="313.925" y="233.91500000000002" type="curve" smooth="yes"/>
      <point x="313.925" y="129.28"/>
      <point x="253.28999999999996" y="58.135"/>
      <point x="161.31" y="58.135" type="curve" smooth="yes"/>
      <point x="105.44" y="58.135"/>
      <point x="63.025000000000006" y="71.655"/>
      <point x="27.384999999999998" y="98.69500000000001" type="curve"/>
    </contour>
  </outline>
</glyph>
<glyph name="four" format="2">
  <advance width="450.4"/>
  <unicode hex="0034"/>
  <outline>
    <contour>
      <point x="15.77" y="159.625" type="line"/>
      <point x="249.895" y="159.625" type="line"/>
      <point x="224.63" y="-0.8800000000000001" type="line"/>
      <point x="298.345" y="-0.8800000000000001" type="line"/>
      <point x="323.42" y="159.625" type="line"/>
      <point x="405.39000000000004" y="159.625" type="line"/>
      <point x="414.90000000000003" y="221.32000000000002" type="line"/>
      <point x="333.395" y="221.32000000000002" type="line"/>
      <point x="409.43000000000006" y="698.7749999999999" type="line"/>
      <point x="341.285" y="702.76" type="line"/>
      <point x="21.33" y="216.61499999999998" type="line"/>
    </contour>
    <contour>
      <point x="83.855" y="221.32000000000002" type="line"/>
      <point x="320.035" y="581.14" type="line"/>
      <point x="261.7300000000001" y="221.32000000000002" type="line"/>
    </contour>
  </outline>
</glyph>
<glyph name="five" format="2">
  <advance width="450.324"/>
  <unicode hex="0035"/>
  <outline>
    <contour>
      <point x="4.708" y="42.809000000000005" type="line"/>
      <point x="42.13600000000001" y="8.21"/>
      <point x="89.707" y="-10.0"/>
      <point x="157.591" y="-10.0" type="curve" smooth="yes"/>
      <point x="330.851" y="-10.0"/>
      <point x="392.549" y="140.855"/>
      <point x="392.549" y="258.273" type="curve" smooth="yes"/>
      <point x="392.549" y="351.03200000000004"/>
      <point x="348.671" y="400.494"/>
      <point x="258.863" y="401.42400000000004" type="curve" smooth="yes"/>
      <point x="159.505" y="401.734" type="line"/>
      <point x="211.71000000000004" y="630.941" type="line"/>
      <point x="424.89" y="630.941" type="line"/>
      <point x="435.5610000000001" y="700.0" type="line"/>
      <point x="166.792" y="700.0" type="line"/>
      <point x="83.01800000000001" y="349.489" type="line"/>
      <point x="90.62600000000002" y="338.255" type="line"/>
      <point x="223.094" y="338.255" type="line" smooth="yes"/>
      <point x="292.098" y="338.255"/>
      <point x="318.992" y="304.783"/>
      <point x="318.992" y="242.02499999999998" type="curve" smooth="yes"/>
      <point x="318.992" y="170.62799999999996"/>
      <point x="276.30999999999995" y="57.98"/>
      <point x="159.73100000000002" y="57.98" type="curve" smooth="yes"/>
      <point x="102.065" y="57.98"/>
      <point x="62.974000000000004" y="78.728"/>
      <point x="34.58200000000001" y="102.22999999999999" type="curve"/>
    </contour>
  </outline>
</glyph>
<glyph name="six" format="2">
  <advance width="450.4"/>
  <unicode hex="0036"/>
  <note>
14
</note>
  <outline>
    <contour>
      <point x="207.89000000000001" y="-10.0" type="curve" smooth="yes"/>
      <point x="327.19" y="-10.0"/>
      <point x="412.9" y="97.88"/>
      <point x="412.9" y="265.07" type="curve" smooth="yes"/>
      <point x="412.9" y="371.81"/>
      <point x="356.77" y="424.21999999999997"/>
      <point x="268.08" y="424.21999999999997" type="curve" smooth="yes"/>
      <point x="209.10999999999999" y="424.21999999999997"/>
      <point x="147.82000000000002" y="397.57"/>
      <point x="104.94" y="336.74" type="curve"/>
      <point x="98.89" y="256.71" type="line"/>
      <point x="132.69000000000003" y="321.13"/>
      <point x="188.81" y="362.44"/>
      <point x="246.88" y="362.44" type="curve" smooth="yes"/>
      <point x="313.05" y="362.44"/>
      <point x="342.55999999999995" y="323.93"/>
      <point x="342.55999999999995" y="251.10000000000002" type="curve" smooth="yes"/>
      <point x="342.55999999999995" y="142.07"/>
      <point x="287.39" y="54.07"/>
      <point x="212.11" y="54.07" type="curve" smooth="yes"/>
      <point x="141.59" y="54.07"/>
      <point x="103.27" y="100.74"/>
      <point x="103.27" y="193.79999999999998" type="curve" smooth="yes"/>
      <point x="103.27" y="318.42"/>
      <point x="131.38000000000002" y="437.03000000000003"/>
      <point x="179.75" y="527.86" type="curve" smooth="yes"/>
      <point x="217.98000000000002" y="599.8100000000001"/>
      <point x="269.9" y="642.95"/>
      <point x="338.45000000000005" y="642.95" type="curve" smooth="yes"/>
      <point x="373.03999999999996" y="642.95"/>
      <point x="405.78" y="633.33"/>
      <point x="436.10999999999996" y="616.3100000000001" type="curve"/>
      <point x="465.4" y="675.7099999999999" type="line"/>
      <point x="433.5" y="696.16"/>
      <point x="389.2" y="710.0"/>
      <point x="335.46999999999997" y="710.0" type="curve" smooth="yes"/>
      <point x="147.84" y="710.0"/>
      <point x="34.36" y="480.21999999999997"/>
      <point x="34.36" y="195.49999999999997" type="curve" smooth="yes"/>
      <point x="34.36" y="55.31"/>
      <point x="95.85" y="-10.0"/>
    </contour>
  </outline>
</glyph>
<glyph name="seven" format="2">
  <advance width="449.952"/>
  <unicode hex="0037"/>
  <note>
9
</note>
  <outline>
    <contour>
      <point x="93.916" y="0.0" type="curve"/>
      <point x="169.144" y="0.0" type="line"/>
      <point x="189.61200000000002" y="120.29599999999999"/>
      <point x="225.144" y="220.06400000000002"/>
      <point x="323.23199999999997" y="405.092" type="curve" smooth="yes"/>
      <point x="450.728" y="645.6" type="line"/>
      <point x="459.55600000000004" y="700.0" type="line"/>
      <point x="103.588" y="700.0" type="line"/>
      <point x="92.776" y="630.896" type="line"/>
      <point x="368.88399999999996" y="630.896" type="line"/>
      <point x="253.504" y="420.96" type="line" smooth="yes"/>
      <point x="160.988" y="253.06400000000002"/>
      <point x="116.62" y="142.44"/>
    </contour>
  </outline>
</glyph>
<glyph name="eight" format="2">
  <advance width="450.4"/>
  <unicode hex="0038"/>
  <outline>
    <contour>
      <point x="196.49" y="-10.0" type="curve" smooth="yes"/>
      <point x="325.16999999999996" y="-10.0"/>
      <point x="406.10999999999996" y="68.92"/>
      <point x="406.10999999999996" y="198.51" type="curve" smooth="yes"/>
      <point x="406.10999999999996" y="395.77"/>
      <point x="156.07999999999998" y="374.7"/>
      <point x="156.07999999999998" y="532.6199999999999" type="curve" smooth="yes"/>
      <point x="156.07999999999998" y="600.8399999999999"/>
      <point x="201.98" y="646.36"/>
      <point x="276.19" y="646.36" type="curve" smooth="yes"/>
      <point x="345.14" y="646.36"/>
      <point x="372.85999999999996" y="609.04"/>
      <point x="372.85999999999996" y="554.1800000000001" type="curve" smooth="yes"/>
      <point x="372.85999999999996" y="475.4"/>
      <point x="332.13" y="422.57"/>
      <point x="263.83" y="382.42" type="curve"/>
      <point x="307.04" y="351.03" type="line"/>
      <point x="387.59999999999997" y="397.62"/>
      <point x="440.84" y="466.42"/>
      <point x="440.84" y="566.89" type="curve" smooth="yes"/>
      <point x="440.84" y="647.94"/>
      <point x="393.97999999999996" y="710.0"/>
      <point x="279.17" y="710.0" type="curve" smooth="yes"/>
      <point x="159.83999999999997" y="710.0"/>
      <point x="85.61999999999999" y="637.0699999999999"/>
      <point x="85.61999999999999" y="522.47" type="curve" smooth="yes"/>
      <point x="85.61999999999999" y="322.91999999999996"/>
      <point x="333.78999999999996" y="356.01"/>
      <point x="333.78999999999996" y="187.4" type="curve" smooth="yes"/>
      <point x="333.78999999999996" y="103.84"/>
      <point x="282.6" y="51.160000000000004"/>
      <point x="201.82999999999998" y="51.160000000000004" type="curve" smooth="yes"/>
      <point x="122.57000000000001" y="51.160000000000004"/>
      <point x="83.4" y="91.74"/>
      <point x="83.4" y="158.31" type="curve" smooth="yes"/>
      <point x="83.4" y="246.62"/>
      <point x="131.98000000000002" y="313.82"/>
      <point x="211.58999999999997" y="348.53999999999996" type="curve"/>
      <point x="166.14000000000001" y="383.91" type="line"/>
      <point x="70.34" y="342.45"/>
      <point x="10.889999999999999" y="253.00000000000003"/>
      <point x="10.889999999999999" y="147.42000000000002" type="curve" smooth="yes"/>
      <point x="10.889999999999999" y="52.629999999999995"/>
      <point x="67.77" y="-10.0"/>
    </contour>
  </outline>
</glyph>
<glyph name="nine" format="2">
  <advance width="450.4"/>
  <unicode hex="0039"/>
  <outline>
    <contour>
      <point x="266.75" y="710.0" type="curve" smooth="yes"/>
      <point x="147.45" y="710.0"/>
      <point x="61.43" y="602.12"/>
      <point x="61.43" y="434.93" type="curve" smooth="yes"/>
      <point x="61.43" y="328.19"/>
      <point x="116.63" y="276.09000000000003"/>
      <point x="205.01" y="276.09000000000003" type="curve" smooth="yes"/>
      <point x="264.29" y="276.09000000000003"/>
      <point x="326.82" y="301.5"/>
      <point x="369.39" y="366.35999999999996" type="curve"/>
      <point x="375.44000000000005" y="443.6" type="line"/>
      <point x="341.95" y="379.17999999999995"/>
      <point x="285.52000000000004" y="337.87"/>
      <point x="227.45000000000002" y="337.87" type="curve" smooth="yes"/>
      <point x="161.59" y="337.87"/>
      <point x="132.08" y="376.07"/>
      <point x="132.08" y="448.9" type="curve" smooth="yes"/>
      <point x="132.08" y="558.24"/>
      <point x="187.25" y="645.9300000000001"/>
      <point x="262.22" y="645.9300000000001" type="curve" smooth="yes"/>
      <point x="332.42999999999995" y="645.9300000000001"/>
      <point x="371.06" y="599.26"/>
      <point x="371.06" y="506.51000000000005" type="curve" smooth="yes"/>
      <point x="371.06" y="384.67999999999995"/>
      <point x="344.18999999999994" y="262.34999999999997"/>
      <point x="295.51" y="171.21" type="curve" smooth="yes"/>
      <point x="257.59" y="99.26"/>
      <point x="205.98" y="56.12"/>
      <point x="139.00000000000003" y="56.12" type="curve" smooth="yes"/>
      <point x="104.72" y="56.12"/>
      <point x="69.05" y="66.48"/>
      <point x="38.22" y="87.45" type="curve"/>
      <point x="8.93" y="27.740000000000002" type="line"/>
      <point x="41.64" y="3.6500000000000004"/>
      <point x="87.94" y="-10.0"/>
      <point x="142.29" y="-10.0" type="curve" smooth="yes"/>
      <point x="325.73" y="-10.0"/>
      <point x="439.97" y="219.78"/>
      <point x="439.97" y="504.80999999999995" type="curve" smooth="yes"/>
      <point x="439.97" y="645.0"/>
      <point x="378.48" y="710.0"/>
    </contour>
  </outline>
</glyph>
<glyph name="less" format="2">
  <advance width="399.76599999999996"/>
  <unicode hex="003C"/>
  <outline>
    <contour>
      <point x="330.388" y="86.736" type="line"/>
      <point x="340.022" y="150.20000000000002" type="line"/>
      <point x="105.07" y="296.502" type="line"/>
      <point x="386.938" y="443.54200000000003" type="line"/>
      <point x="396.57199999999995" y="508.124" type="line"/>
      <point x="49.028" y="332.39399999999995" type="line"/>
      <point x="38.036" y="263.562" type="line"/>
    </contour>
  </outline>
</glyph>
<glyph name="equal" format="2">
  <advance width="390.514"/>
  <unicode hex="003D"/>
  <outline>
    <contour>
      <point x="337.2" y="223.908" type="line"/>
      <point x="37.379999999999995" y="223.908" type="line"/>
      <point x="27.498" y="157.994" type="line"/>
      <point x="327.318" y="157.994" type="line"/>
    </contour>
    <contour>
      <point x="369.51000000000005" y="437.39000000000004" type="line"/>
      <point x="69.876" y="437.39000000000004" type="line"/>
      <point x="59.80800000000001" y="371.476" type="line"/>
      <point x="359.628" y="371.476" type="line"/>
    </contour>
  </outline>
</glyph>
<glyph name="greater" format="2">
  <advance width="399.76599999999996"/>
  <unicode hex="003E"/>
  <outline>
    <contour>
      <point x="358.26000000000005" y="261.90600000000006" type="line"/>
      <point x="369.128" y="329.808" type="line"/>
      <point x="76.596" y="506.4" type="line"/>
      <point x="66.838" y="443.68" type="line"/>
      <point x="302.652" y="297.05400000000003" type="line"/>
      <point x="20.598" y="150.89000000000001" type="line"/>
      <point x="10.35" y="85.632" type="line"/>
    </contour>
  </outline>
</glyph>
<glyph name="question" format="2">
  <advance width="341.46999999999997"/>
  <unicode hex="003F"/>
  <outline>
    <contour>
      <point x="119.91000000000001" y="262.34599999999995" type="line"/>
      <point x="181.744" y="262.34599999999995" type="line"/>
      <point x="193.482" y="335.032" type="line"/>
      <point x="297.556" y="405.80400000000003"/>
      <point x="370.226" y="471.654"/>
      <point x="370.226" y="606.7959999999999" type="curve" smooth="yes"/>
      <point x="370.226" y="702.15"/>
      <point x="311.23199999999997" y="750.0"/>
      <point x="233.75000000000003" y="750.0" type="curve" smooth="yes"/>
      <point x="181.258" y="750.0"/>
      <point x="121.66" y="727.834"/>
      <point x="75.228" y="690.6899999999999" type="curve"/>
      <point x="91.64" y="629.116" type="line"/>
      <point x="133.878" y="660.6039999999999"/>
      <point x="174.788" y="677.026"/>
      <point x="214.75400000000002" y="677.026" type="curve" smooth="yes"/>
      <point x="259.302" y="677.026"/>
      <point x="295.15" y="652.852"/>
      <point x="295.15" y="589.012" type="curve" smooth="yes"/>
      <point x="295.15" y="495.728"/>
      <point x="250.45800000000003" y="436.276"/>
      <point x="135.632" y="370.046" type="curve"/>
    </contour>
    <contour>
      <point x="75.42200000000001" y="27.813999999999997" type="curve" smooth="yes"/>
      <point x="75.18" y="5.8919999999999995"/>
      <point x="83.78600000000002" y="-3.1"/>
      <point x="109.20400000000001" y="-3.1" type="curve" smooth="yes"/>
      <point x="147.896" y="-3.1"/>
      <point x="160.132" y="22.39"/>
      <point x="160.858" y="61.042" type="curve" smooth="yes"/>
      <point x="161.1" y="83.84"/>
      <point x="151.32799999999997" y="92.528"/>
      <point x="126.834" y="92.528" type="curve" smooth="yes"/>
      <point x="88.998" y="92.528"/>
      <point x="76.148" y="66.852"/>
    </contour>
  </outline>
</glyph>
<glyph name="at" format="2">
  <advance width="612.4499999999999"/>
  <unicode hex="0040"/>
  <outline>
    <contour>
      <point x="243.10000000000002" y="-122.81" type="curve" smooth="yes"/>
      <point x="300.95" y="-122.81"/>
      <point x="362.08" y="-101.03"/>
      <point x="405.75" y="-59.83" type="curve"/>
      <point x="391.82" y="-31.37" type="line"/>
      <point x="350.05" y="-66.88"/>
      <point x="299.5" y="-85.54"/>
      <point x="245.60000000000002" y="-85.54" type="curve" smooth="yes"/>
      <point x="130.82" y="-85.54"/>
      <point x="58.440000000000005" y="-11.78"/>
      <point x="58.440000000000005" y="140.29" type="curve" smooth="yes"/>
      <point x="58.440000000000005" y="416.94"/>
      <point x="194.03" y="677.68"/>
      <point x="386.22" y="677.68" type="curve" smooth="yes"/>
      <point x="502.97" y="677.68"/>
      <point x="569.72" y="618.52"/>
      <point x="569.72" y="476.24" type="curve" smooth="yes"/>
      <point x="569.72" y="315.8"/>
      <point x="510.25" y="108.11"/>
      <point x="440.79" y="108.11" type="curve" smooth="yes"/>
      <point x="400.24" y="108.11"/>
      <point x="404.46999999999997" y="167.78"/>
      <point x="415.21" y="215.02" type="curve" smooth="yes"/>
      <point x="485.02" y="520.5" type="line"/>
      <point x="445.13" y="537.65"/>
      <point x="408.41999999999996" y="546.18"/>
      <point x="368.78" y="546.18" type="curve" smooth="yes"/>
      <point x="240.14000000000001" y="546.18"/>
      <point x="147.31" y="330.53"/>
      <point x="147.31" y="164.47" type="curve" smooth="yes"/>
      <point x="147.31" y="96.31"/>
      <point x="178.7" y="62.730000000000004"/>
      <point x="231.19" y="62.730000000000004" type="curve" smooth="yes"/>
      <point x="278.96000000000004" y="62.730000000000004"/>
      <point x="325.27" y="94.8"/>
      <point x="357.05999999999995" y="152.31" type="curve"/>
      <point x="361.12" y="110.66"/>
      <point x="371.93" y="60.68"/>
      <point x="429.58" y="60.68" type="curve" smooth="yes"/>
      <point x="535.76" y="60.68"/>
      <point x="609.54" y="295.38000000000005"/>
      <point x="609.54" y="483.53" type="curve" smooth="yes"/>
      <point x="609.54" y="637.28"/>
      <point x="524.2199999999999" y="715.52"/>
      <point x="392.61" y="715.52" type="curve" smooth="yes"/>
      <point x="170.45999999999998" y="715.52"/>
      <point x="18.189999999999998" y="444.53"/>
      <point x="18.189999999999998" y="130.38" type="curve" smooth="yes"/>
      <point x="18.189999999999998" y="-31.6"/>
      <point x="100.41" y="-122.81"/>
    </contour>
    <contour>
      <point x="260.73" y="125.06" type="curve" smooth="yes"/>
      <point x="231.12" y="125.06"/>
      <point x="215.41" y="145.22"/>
      <point x="215.41" y="183.92" type="curve" smooth="yes"/>
      <point x="215.41" y="310.05"/>
      <point x="294.22" y="493.71999999999997"/>
      <point x="361.94" y="493.71999999999997" type="curve" smooth="yes"/>
      <point x="380.65" y="493.71999999999997"/>
      <point x="397.69" y="490.53000000000003"/>
      <point x="416.04" y="483.27" type="curve"/>
      <point x="358.64000000000004" y="235.14" type="line" smooth="yes"/>
      <point x="337.53" y="166.87"/>
      <point x="296.12" y="125.06"/>
    </contour>
  </outline>
</glyph>
<glyph name="A" format="2">
  <advance width="442.10499999999996"/>
  <unicode hex="0041"/>
  <anchor x="175.905" y="0.0" name="bottom"/>
  <anchor x="384.375" y="0.0" name="ogonek"/>
  <anchor x="284.51000000000005" y="700.0" name="top"/>
  <outline>
    <contour>
      <point x="-30.27" y="0.0" type="line"/>
      <point x="46.305" y="0.0" type="line"/>
      <point x="116.05" y="182.405" type="line"/>
      <point x="295.34499999999997" y="182.405" type="line"/>
      <point x="307.68" y="0.0" type="line"/>
      <point x="384.375" y="0.0" type="line"/>
      <point x="333.56999999999994" y="707.52" type="line"/>
      <point x="238.51999999999998" y="707.52" type="line"/>
    </contour>
    <contour>
      <point x="136.88" y="247.13000000000002" type="line"/>
      <point x="273.86" y="625.88" type="line"/>
      <point x="295.39500000000004" y="247.13000000000002" type="line"/>
    </contour>
  </outline>
</glyph>
<glyph name="B" format="2">
  <advance width="440.74"/>
  <unicode hex="0042"/>
  <outline>
    <contour>
      <point x="9.092000000000002" y="-1.0719999999999996" type="line"/>
      <point x="78.86800000000001" y="-7.58"/>
      <point x="113.34400000000001" y="-10.0"/>
      <point x="168.376" y="-10.0" type="curve" smooth="yes"/>
      <point x="317.608" y="-10.0"/>
      <point x="406.468" y="104.30000000000001"/>
      <point x="406.468" y="239.316" type="curve" smooth="yes"/>
      <point x="406.468" y="309.52000000000004"/>
      <point x="372.828" y="353.82800000000003"/>
      <point x="323.704" y="368.204" type="curve"/>
      <point x="395.888" y="399.64799999999997"/>
      <point x="437.00800000000004" y="496.008"/>
      <point x="437.00800000000004" y="579.44" type="curve" smooth="yes"/>
      <point x="437.00800000000004" y="665.672"/>
      <point x="386.97200000000004" y="710.0"/>
      <point x="273.62399999999997" y="710.0" type="curve" smooth="yes"/>
      <point x="238.78" y="710.0"/>
      <point x="191.608" y="707.3520000000001"/>
      <point x="119.87199999999999" y="699.9680000000001" type="curve"/>
    </contour>
    <contour>
      <point x="142.272" y="385.228" type="line"/>
      <point x="182.428" y="641.2839999999999" type="line"/>
      <point x="213.20000000000002" y="644.5880000000001"/>
      <point x="238.94800000000004" y="646.864"/>
      <point x="267.29200000000003" y="646.864" type="curve" smooth="yes"/>
      <point x="334.668" y="646.864"/>
      <point x="366.596" y="623.424"/>
      <point x="366.596" y="559.2" type="curve" smooth="yes"/>
      <point x="366.596" y="475.76"/>
      <point x="312.47999999999996" y="385.228"/>
      <point x="245.416" y="385.228" type="curve" smooth="yes"/>
    </contour>
    <contour>
      <point x="132.576" y="325.26" type="line"/>
      <point x="244.95200000000003" y="325.26" type="line" smooth="yes"/>
      <point x="291.732" y="325.26"/>
      <point x="334.02400000000006" y="295.824"/>
      <point x="334.02400000000006" y="231.23200000000003" type="curve" smooth="yes"/>
      <point x="334.02400000000006" y="130.936"/>
      <point x="275.152" y="53.391999999999996"/>
      <point x="176.824" y="53.391999999999996" type="curve" smooth="yes"/>
      <point x="146.84" y="53.391999999999996"/>
      <point x="123.34" y="55.17199999999999"/>
      <point x="90.116" y="58.047999999999995" type="curve"/>
    </contour>
  </outline>
</glyph>
<glyph name="C" format="2">
  <advance width="415.098"/>
  <unicode hex="0043"/>
  <anchor x="224.65300000000002" y="0.0" name="bottom"/>
  <anchor x="324.7010000000001" y="700.0" name="top"/>
  <outline>
    <contour>
      <point x="239.97400000000002" y="-10.0" type="curve" smooth="yes"/>
      <point x="287.369" y="-10.0"/>
      <point x="326.76700000000005" y="-4.385999999999999"/>
      <point x="360.733" y="7.1579999999999995" type="curve"/>
      <point x="354.882" y="69.728" type="line"/>
      <point x="325.7970000000001" y="61.42999999999999"/>
      <point x="291.423" y="56.275"/>
      <point x="253.99099999999999" y="56.275" type="curve" smooth="yes"/>
      <point x="158.78" y="56.275"/>
      <point x="108.28999999999999" y="102.79599999999999"/>
      <point x="108.28999999999999" y="216.92800000000003" type="curve" smooth="yes"/>
      <point x="108.28999999999999" y="456.005"/>
      <point x="194.55" y="643.7249999999999"/>
      <point x="326.886" y="643.7249999999999" type="curve" smooth="yes"/>
      <point x="363.57300000000004" y="643.7249999999999"/>
      <point x="396.27500000000003" y="638.105"/>
      <point x="432.485" y="627.0289999999999" type="curve"/>
      <point x="453.51400000000007" y="687.809" type="line"/>
      <point x="414.71500000000003" y="703.4499999999999"/>
      <point x="372.2720000000001" y="710.0"/>
      <point x="325.002" y="710.0" type="curve" smooth="yes"/>
      <point x="148.07000000000002" y="710.0"/>
      <point x="34.419999999999995" y="505.06"/>
      <point x="34.419999999999995" y="206.85900000000004" type="curve" smooth="yes"/>
      <point x="34.419999999999995" y="58.026999999999994"/>
      <point x="104.258" y="-10.0"/>
    </contour>
  </outline>
</glyph>
<glyph name="D" format="2">
  <advance width="474.9390000000001"/>
  <unicode hex="0044"/>
  <anchor x="179.919" y="0.0" name="bottom"/>
  <anchor x="244.04324499999998" y="350.0" name="center"/>
  <anchor x="274.579" y="700.0" name="top"/>
  <outline>
    <contour>
      <point x="156.72700000000003" y="-10.0" type="curve" smooth="yes"/>
      <point x="343.166" y="-10.0"/>
      <point x="460.291" y="178.122"/>
      <point x="460.291" y="455.301" type="curve" smooth="yes"/>
      <point x="460.291" y="636.943"/>
      <point x="381.896" y="710.0"/>
      <point x="249.068" y="710.0" type="curve" smooth="yes"/>
      <point x="206.09" y="710.0"/>
      <point x="167.559" y="707.918"/>
      <point x="119.77899999999998" y="703.213" type="curve"/>
      <point x="8.165" y="-1.9789999999999996" type="line"/>
      <point x="56.532000000000004" y="-7.45"/>
      <point x="97.169" y="-10.0"/>
    </contour>
    <contour>
      <point x="164.243" y="51.48199999999999" type="curve" smooth="yes"/>
      <point x="135.133" y="51.48199999999999"/>
      <point x="115.333" y="52.868"/>
      <point x="89.071" y="55.092999999999996" type="curve"/>
      <point x="182.428" y="642.275" type="line"/>
      <point x="201.01500000000001" y="643.9649999999999"/>
      <point x="226.73299999999998" y="645.1200000000001"/>
      <point x="251.39300000000003" y="645.1200000000001" type="curve" smooth="yes"/>
      <point x="331.641" y="645.1200000000001"/>
      <point x="387.74" y="594.542"/>
      <point x="387.74" y="453.61100000000005" type="curve" smooth="yes"/>
      <point x="387.74" y="225.07299999999998"/>
      <point x="292.27899999999994" y="51.48199999999999"/>
    </contour>
  </outline>
</glyph>
<glyph name="E" format="2">
  <advance width="393.231"/>
  <unicode hex="0045"/>
  <anchor x="171.388" y="0.0" name="bottom"/>
  <anchor x="329.778" y="0.0" name="ogonek"/>
  <anchor x="275.47" y="700.0" name="top"/>
  <anchor x="89.960515" y="700.0" name="topleft"/>
  <outline>
    <contour>
      <point x="8.624" y="0.0" type="line"/>
      <point x="329.778" y="0.0" type="line"/>
      <point x="340.528" y="66.58499999999998" type="line"/>
      <point x="90.764" y="66.58499999999998" type="line"/>
      <point x="131.82299999999995" y="328.24" type="line"/>
      <point x="349.803" y="328.24" type="line"/>
      <point x="360.86300000000006" y="393.275" type="line"/>
      <point x="142.342" y="393.275" type="line"/>
      <point x="180.26999999999998" y="632.64" type="line"/>
      <point x="417.18600000000004" y="632.64" type="line"/>
      <point x="428.70500000000004" y="700.0" type="line"/>
      <point x="119.00999999999999" y="700.0" type="line"/>
    </contour>
  </outline>
</glyph>
<glyph name="F" format="2">
  <advance width="373.24"/>
  <unicode hex="0046"/>
  <outline>
    <contour>
      <point x="8.624" y="0.0" type="line"/>
      <point x="79.896" y="0.0" type="line"/>
      <point x="128.048" y="299.508" type="line"/>
      <point x="327.08" y="299.508" type="line"/>
      <point x="337.692" y="367.36400000000003" type="line"/>
      <point x="138.536" y="367.36400000000003" type="line"/>
      <point x="180.208" y="632.144" type="line"/>
      <point x="416.436" y="632.144" type="line"/>
      <point x="427.62" y="700.0" type="line"/>
      <point x="119.32" y="700.0" type="line"/>
    </contour>
  </outline>
</glyph>
<glyph name="G" format="2">
  <advance width="442.35"/>
  <unicode hex="0047"/>
  <anchor x="220.4" y="0.0" name="bottom"/>
  <anchor x="324.19800000000004" y="700.0" name="top"/>
  <outline>
    <contour>
      <point x="230.108" y="-10.0" type="curve" smooth="yes"/>
      <point x="282.276" y="-10.0"/>
      <point x="331.27200000000005" y="0.3080000000000001"/>
      <point x="363.36800000000005" y="16.556" type="curve"/>
      <point x="417.806" y="359.226" type="line"/>
      <point x="245.05200000000002" y="359.226" type="line"/>
      <point x="235.666" y="299.74" type="line"/>
      <point x="343.60200000000003" y="299.74" type="line"/>
      <point x="306.00600000000003" y="63.83" type="line"/>
      <point x="289.07" y="56.918"/>
      <point x="262.906" y="52.524"/>
      <point x="234.54800000000003" y="52.524" type="curve" smooth="yes"/>
      <point x="153.86" y="52.524"/>
      <point x="104.494" y="97.854"/>
      <point x="104.494" y="210.85199999999998" type="curve" smooth="yes"/>
      <point x="104.494" y="450.292"/>
      <point x="192.416" y="644.19"/>
      <point x="326.086" y="644.19" type="curve" smooth="yes"/>
      <point x="366.33000000000004" y="644.19"/>
      <point x="398.582" y="636.958"/>
      <point x="435.012" y="626.24" type="curve"/>
      <point x="457.498" y="688.122" type="line"/>
      <point x="420.01800000000003" y="702.2900000000001"/>
      <point x="374.19800000000004" y="710.0"/>
      <point x="326.12399999999997" y="710.0" type="curve" smooth="yes"/>
      <point x="136.952" y="710.0"/>
      <point x="33.476000000000006" y="481.474"/>
      <point x="33.476000000000006" y="205.89000000000001" type="curve" smooth="yes"/>
      <point x="33.476000000000006" y="58.91"/>
      <point x="107.026" y="-10.0"/>
    </contour>
  </outline>
</glyph>
<glyph name="H" format="2">
  <advance width="483.25399999999996"/>
  <unicode hex="0048"/>
  <anchor x="198.170912" y="0.0" name="bottom"/>
  <anchor x="253.917792" y="350.0" name="center"/>
  <anchor x="309.11222399999997" y="700.0" name="top"/>
  <anchor x="86.03622399999999" y="700.0" name="topleft"/>
  <outline>
    <contour>
      <point x="8.562000000000001" y="0.0" type="line"/>
      <point x="81.0" y="0.0" type="line"/>
      <point x="124.27199999999999" y="274.384" type="line"/>
      <point x="359.064" y="274.384" type="line"/>
      <point x="315.916" y="0.0" type="line"/>
      <point x="386.996" y="0.0" type="line"/>
      <point x="498.24399999999997" y="700.0" type="line"/>
      <point x="426.97799999999995" y="700.0" type="line"/>
      <point x="369.628" y="340.256" type="line"/>
      <point x="134.284" y="340.256" type="line"/>
      <point x="191.696" y="700.0" type="line"/>
      <point x="119.258" y="700.0" type="line"/>
    </contour>
  </outline>
</glyph>
<glyph name="I" format="2">
  <advance width="176.70600000000002"/>
  <unicode hex="0049"/>
  <anchor x="44.593384" y="0.0" name="bottom"/>
  <anchor x="81.198944" y="2.48" name="ogonek"/>
  <anchor x="155.54281799999998" y="700.0" name="top"/>
  <anchor x="90.113624" y="700.0" name="topleft"/>
  <outline>
    <contour>
      <point x="8.562000000000001" y="0.0" type="line"/>
      <point x="80.44800000000001" y="0.0" type="line"/>
      <point x="191.696" y="700.0" type="line"/>
      <point x="119.258" y="700.0" type="line"/>
    </contour>
  </outline>
</glyph>
<glyph name="J" format="2">
  <advance width="333.476"/>
  <unicode hex="004A"/>
  <anchor x="95.63811199999999" y="0.0" name="bottom"/>
  <anchor x="231.764" y="700.0" name="top"/>
  <outline>
    <contour>
      <point x="-33.006" y="12.31" type="line"/>
      <point x="-0.39999999999999947" y="-0.11999999999999966"/>
      <point x="35.886" y="-10.0"/>
      <point x="85.22800000000001" y="-10.0" type="curve" smooth="yes"/>
      <point x="194.41400000000002" y="-10.0"/>
      <point x="250.784" y="53.794"/>
      <point x="268.746" y="164.898" type="curve" smooth="yes"/>
      <point x="353.87399999999997" y="700.0" type="line"/>
      <point x="103.774" y="700.0" type="line"/>
      <point x="93.334" y="635.244" type="line"/>
      <point x="271.548" y="635.244" type="line"/>
      <point x="199.39400000000003" y="183.392" type="line" smooth="yes"/>
      <point x="184.842" y="92.34200000000001"/>
      <point x="141.41" y="60.646"/>
      <point x="76.082" y="60.646" type="curve" smooth="yes"/>
      <point x="42.11" y="60.646"/>
      <point x="13.574000000000002" y="68.67399999999999"/>
      <point x="-13.311999999999998" y="77.508" type="curve"/>
    </contour>
  </outline>
</glyph>
<glyph name="K" format="2">
  <advance width="437.98400000000004"/>
  <unicode hex="004B"/>
  <anchor x="191.54" y="0.0" name="bottom"/>
  <anchor x="282.78" y="700.0" name="top"/>
  <outline>
    <contour>
      <point x="8.076" y="0.0" type="line"/>
      <point x="80.648" y="0.0" type="line"/>
      <point x="191.396" y="700.0" type="line"/>
      <point x="119.444" y="700.0" type="line"/>
    </contour>
    <contour>
      <point x="365.264" y="-9.495999999999999" type="curve" smooth="yes"/>
      <point x="374.22799999999995" y="-9.495999999999999"/>
      <point x="388.15999999999997" y="-6.888000000000001"/>
      <point x="394.52799999999996" y="-3.768" type="curve"/>
      <point x="400.20799999999997" y="73.256" type="line"/>
      <point x="396.716" y="73.252"/>
      <point x="392.84799999999996" y="72.252"/>
      <point x="388.476" y="72.252" type="curve" smooth="yes"/>
      <point x="363.86400000000003" y="72.252"/>
      <point x="342.8" y="84.87599999999999"/>
      <point x="307.416" y="147.684" type="curve" smooth="yes"/>
      <point x="138.636" y="448.308" type="line"/>
      <point x="120.128" y="342.116" type="line"/>
      <point x="267.58799999999997" y="78.43599999999999" type="line" smooth="yes"/>
      <point x="304.86400000000003" y="8.719999999999999"/>
      <point x="327.312" y="-9.495999999999999"/>
    </contour>
    <contour>
      <point x="204.144" y="291.584" type="line"/>
      <point x="290.644" y="368.736"/>
      <point x="412.988" y="509.40000000000003"/>
      <point x="479.964" y="683.532" type="curve"/>
      <point x="423.53200000000004" y="708.14" type="line"/>
      <point x="351.576" y="540.332"/>
      <point x="244.812" y="412.40799999999996"/>
      <point x="173.588" y="348.536" type="curve"/>
    </contour>
  </outline>
</glyph>
<glyph name="L" format="2">
  <advance width="356.098"/>
  <unicode hex="004C"/>
  <anchor x="158.438" y="0.0" name="bottom"/>
  <anchor x="183.715792" y="350.0" name="center"/>
  <anchor x="154.856" y="700.0" name="top"/>
  <anchor x="301.20200000000006" y="700.0" name="topright"/>
  <outline>
    <contour>
      <point x="8.010000000000002" y="0.0" type="line"/>
      <point x="301.72799999999995" y="0.0" type="line"/>
      <point x="312.478" y="66.244" type="line"/>
      <point x="90.522" y="66.244" type="line"/>
      <point x="191.144" y="700.0" type="line"/>
      <point x="119.258" y="700.0" type="line"/>
    </contour>
  </outline>
</glyph>
<glyph name="M" format="2">
  <advance width="542.102"/>
  <unicode hex="004D"/>
  <outline>
    <contour>
      <point x="8.262" y="0.0" type="line"/>
      <point x="75.378" y="0.0" type="line"/>
      <point x="164.49" y="573.3280000000001" type="line"/>
      <point x="243.60799999999998" y="230.958" type="line"/>
      <point x="282.32" y="230.958" type="line"/>
      <point x="471.154" y="573.274" type="line"/>
      <point x="379.10400000000004" y="0.0" type="line"/>
      <point x="445.844" y="0.0" type="line"/>
      <point x="557.092" y="700.0" type="line"/>
      <point x="476.606" y="700.0" type="line"/>
      <point x="278.36999999999995" y="335.12399999999997" type="line"/>
      <point x="194.528" y="700.0" type="line"/>
      <point x="119.258" y="700.0" type="line"/>
    </contour>
  </outline>
</glyph>
<glyph name="N" format="2">
  <advance width="481.54"/>
  <unicode hex="004E"/>
  <anchor x="202.02" y="0.0" name="bottom"/>
  <anchor x="308.52000000000004" y="700.0" name="top"/>
  <outline>
    <contour>
      <point x="8.7" y="0.0" type="line"/>
      <point x="74.39" y="0.0" type="line"/>
      <point x="161.615" y="553.5699999999999" type="line"/>
      <point x="315.0" y="-1.38" type="line"/>
      <point x="385.22" y="-1.38" type="line"/>
      <point x="496.53000000000003" y="700.0" type="line"/>
      <point x="431.03" y="700.0" type="line"/>
      <point x="342.445" y="138.82" type="line"/>
      <point x="191.265" y="701.38" type="line"/>
      <point x="119.66499999999999" y="701.38" type="line"/>
    </contour>
  </outline>
</glyph>
<glyph name="O" format="2">
  <advance width="490.9"/>
  <unicode hex="004F"/>
  <note>
8
</note>
  <anchor x="204.21" y="0.0" name="bottom"/>
  <anchor x="259.90000000000003" y="350.0" name="center"/>
  <anchor x="261.73" y="0.9299999999999999" name="ogonek"/>
  <anchor x="314.28000000000003" y="700.0" name="top"/>
  <anchor x="90.76" y="700.0" name="topleft"/>
  <anchor x="404.65999999999997" y="692.67" name="topright"/>
  <outline>
    <contour>
      <point x="211.61999999999998" y="-9.07" type="curve" smooth="yes"/>
      <point x="390.9" y="-9.07"/>
      <point x="479.67" y="253.72"/>
      <point x="479.67" y="486.16999999999996" type="curve" smooth="yes"/>
      <point x="479.67" y="638.66"/>
      <point x="418.49" y="709.07"/>
      <point x="303.28000000000003" y="709.07" type="curve" smooth="yes"/>
      <point x="124.0" y="709.07"/>
      <point x="35.23" y="446.28"/>
      <point x="35.23" y="213.82999999999998" type="curve" smooth="yes"/>
      <point x="35.23" y="61.339999999999996"/>
      <point x="96.41" y="-9.07"/>
    </contour>
    <contour>
      <point x="217.51" y="57.91" type="curve" smooth="yes"/>
      <point x="148.16" y="57.91"/>
      <point x="108.48" y="101.5"/>
      <point x="108.48" y="211.61" type="curve" smooth="yes"/>
      <point x="108.48" y="395.23999999999995"/>
      <point x="177.89" y="642.09"/>
      <point x="297.7" y="642.09" type="curve" smooth="yes"/>
      <point x="366.74" y="642.09"/>
      <point x="406.42" y="598.5"/>
      <point x="406.42" y="488.39" type="curve" smooth="yes"/>
      <point x="406.42" y="304.76000000000005"/>
      <point x="337.01" y="57.91"/>
    </contour>
  </outline>
</glyph>
<glyph name="P" format="2">
  <advance width="436.225"/>
  <unicode hex="0050"/>
  <outline>
    <contour>
      <point x="8.855" y="0.0" type="line"/>
      <point x="80.55499999999999" y="0.0" type="line"/>
      <point x="120.01" y="246.63" type="line"/>
      <point x="153.17999999999998" y="244.355"/>
      <point x="171.495" y="244.01"/>
      <point x="215.315" y="244.01" type="curve" smooth="yes"/>
      <point x="365.11" y="244.01"/>
      <point x="449.705" y="358.775"/>
      <point x="450.04999999999995" y="541.9499999999999" type="curve" smooth="yes"/>
      <point x="450.04999999999995" y="657.455"/>
      <point x="395.28" y="710.0"/>
      <point x="266.02" y="710.0" type="curve" smooth="yes"/>
      <point x="234.73499999999999" y="710.0"/>
      <point x="189.13500000000002" y="707.69"/>
      <point x="120.16499999999999" y="702.535" type="curve"/>
    </contour>
    <contour>
      <point x="182.54500000000002" y="641.36" type="line"/>
      <point x="217.35999999999999" y="644.395"/>
      <point x="236.78" y="645.74"/>
      <point x="259.92" y="645.74" type="curve" smooth="yes"/>
      <point x="345.15000000000003" y="645.74"/>
      <point x="378.34999999999997" y="612.855"/>
      <point x="378.34999999999997" y="529.855" type="curve" smooth="yes"/>
      <point x="378.34999999999997" y="403.69"/>
      <point x="321.27000000000004" y="308.425"/>
      <point x="213.09499999999997" y="308.425" type="curve" smooth="yes"/>
      <point x="186.19" y="308.425"/>
      <point x="163.32" y="309.615"/>
      <point x="130.14" y="311.27" type="curve"/>
    </contour>
  </outline>
</glyph>
<glyph name="Q" format="2">
  <advance width="491.36400000000003"/>
  <unicode hex="0051"/>
  <note>
14
</note>
  <outline>
    <contour>
      <point x="339.734" y="-182.792" type="curve" smooth="yes"/>
      <point x="362.748" y="-182.792"/>
      <point x="385.81" y="-179.102"/>
      <point x="407.258" y="-170.28" type="curve"/>
      <point x="408.906" y="-109.012" type="line"/>
      <point x="392.42" y="-116.13799999999999"/>
      <point x="373.9" y="-119.518"/>
      <point x="355.084" y="-119.518" type="curve" smooth="yes"/>
      <point x="303.12600000000003" y="-119.518"/>
      <point x="259.20799999999997" y="-89.304"/>
      <point x="253.056" y="7.122" type="curve"/>
      <point x="191.50400000000002" y="3.5519999999999996" type="line"/>
      <point x="199.284" y="-136.336"/>
      <point x="266.354" y="-182.792"/>
    </contour>
    <component base="O"/>
  </outline>
</glyph>
<glyph name="R" format="2">
  <advance width="450.26"/>
  <unicode hex="0052"/>
  <anchor x="199.63000000000002" y="0.0" name="bottom"/>
  <anchor x="267.72" y="700.0" name="top"/>
  <outline>
    <contour>
      <point x="8.39" y="0.0" type="line"/>
      <point x="80.71" y="0.0" type="line"/>
      <point x="124.25" y="274.57" type="line"/>
      <point x="153.72" y="273.88"/>
      <point x="183.26" y="273.19"/>
      <point x="227.09" y="272.88" type="curve"/>
      <point x="234.17" y="275.67" type="line"/>
      <point x="361.25" y="276.17"/>
      <point x="448.78999999999996" y="378.13"/>
      <point x="448.78999999999996" y="540.28" type="curve" smooth="yes"/>
      <point x="448.78999999999996" y="653.6"/>
      <point x="396.51" y="710.0"/>
      <point x="266.3" y="710.0" type="curve" smooth="yes"/>
      <point x="219.05" y="710.0"/>
      <point x="175.96" y="707.38"/>
      <point x="120.00999999999999" y="702.26" type="curve"/>
    </contour>
    <contour>
      <point x="377.61" y="-10.0" type="curve" smooth="yes"/>
      <point x="385.96999999999997" y="-10.0"/>
      <point x="400.65" y="-6.88"/>
      <point x="406.32" y="-4.140000000000001" type="curve"/>
      <point x="411.19" y="67.11" type="line"/>
      <point x="406.5" y="65.73"/>
      <point x="402.38" y="65.73"/>
      <point x="399.76" y="65.73" type="curve" smooth="yes"/>
      <point x="365.35" y="66.11"/>
      <point x="331.44" y="105.01"/>
      <point x="282.41" y="308.91" type="curve"/>
      <point x="215.67" y="292.2" type="line"/>
      <point x="281.59999999999997" y="31.590000000000003"/>
      <point x="318.45" y="-10.0"/>
    </contour>
    <contour>
      <point x="226.84" y="336.09000000000003" type="curve" smooth="yes"/>
      <point x="187.04999999999998" y="336.09000000000003"/>
      <point x="160.44" y="336.71000000000004"/>
      <point x="134.45" y="338.71000000000004" type="curve"/>
      <point x="182.89000000000001" y="642.98" type="line"/>
      <point x="216.48000000000002" y="646.1700000000001"/>
      <point x="233.14" y="647.36"/>
      <point x="263.37" y="647.36" type="curve" smooth="yes"/>
      <point x="349.11999999999995" y="647.36"/>
      <point x="375.23" y="611.4599999999999"/>
      <point x="375.23" y="539.0600000000001" type="curve" smooth="yes"/>
      <point x="375.23" y="413.42"/>
      <point x="316.40999999999997" y="336.09000000000003"/>
    </contour>
  </outline>
</glyph>
<glyph name="S" format="2">
  <advance width="404.81499999999994"/>
  <unicode hex="0053"/>
  <anchor x="155.845" y="0.0" name="bottom"/>
  <anchor x="277.425" y="700.0" name="top"/>
  <outline>
    <contour>
      <point x="415.93" y="684.04" type="line"/>
      <point x="375.625" y="700.52"/>
      <point x="332.465" y="710.0"/>
      <point x="282.39" y="710.0" type="curve" smooth="yes"/>
      <point x="149.705" y="710.0"/>
      <point x="70.68499999999999" y="634.9899999999999"/>
      <point x="70.68499999999999" y="515.1899999999999" type="curve" smooth="yes"/>
      <point x="70.68499999999999" y="337.92499999999995"/>
      <point x="289.795" y="314.19"/>
      <point x="289.605" y="178.505" type="curve" smooth="yes"/>
      <point x="289.605" y="106.61999999999999"/>
      <point x="240.56" y="55.88"/>
      <point x="153.57500000000002" y="55.88" type="curve" smooth="yes"/>
      <point x="101.66499999999999" y="55.88"/>
      <point x="51.769999999999996" y="65.96499999999999"/>
      <point x="6.195" y="84.755" type="curve"/>
      <point x="-19.185000000000002" y="22.390000000000004" type="line"/>
      <point x="26.205" y="1.3599999999999999"/>
      <point x="86.23" y="-10.0"/>
      <point x="147.715" y="-10.0" type="curve" smooth="yes"/>
      <point x="285.645" y="-10.0"/>
      <point x="363.23499999999996" y="69.045"/>
      <point x="363.23499999999996" y="185.57" type="curve" smooth="yes"/>
      <point x="363.735" y="359.13"/>
      <point x="145.05499999999998" y="386.74"/>
      <point x="145.05499999999998" y="520.17" type="curve" smooth="yes"/>
      <point x="145.05499999999998" y="596.4849999999999"/>
      <point x="197.79000000000002" y="644.26"/>
      <point x="277.995" y="644.26" type="curve" smooth="yes"/>
      <point x="320.40500000000003" y="644.26"/>
      <point x="355.915" y="637.64"/>
      <point x="391.55" y="622.7099999999999" type="curve"/>
    </contour>
  </outline>
</glyph>
<glyph name="T" format="2">
  <advance width="380.88399999999996"/>
  <unicode hex="0054"/>
  <anchor x="146.55211200000002" y="0.0" name="bottom"/>
  <anchor x="202.395294" y="350.0" name="center"/>
  <anchor x="257.562818" y="700.0" name="top"/>
  <outline>
    <contour>
      <point x="430.108" y="636.174" type="line"/>
      <point x="440.796" y="700.0" type="line"/>
      <point x="74.77" y="700.0" type="line"/>
      <point x="64.02" y="636.174" type="line"/>
      <point x="211.10000000000002" y="636.174" type="line"/>
      <point x="110.23" y="0.0" type="line"/>
      <point x="182.116" y="0.0" type="line"/>
      <point x="282.92400000000004" y="636.174" type="line"/>
    </contour>
  </outline>
</glyph>
<glyph name="U" format="2">
  <advance width="471.10800000000006"/>
  <unicode hex="0055"/>
  <anchor x="191.79163999999997" y="0.0" name="bottom"/>
  <anchor x="242.624" y="0.0" name="ogonek"/>
  <anchor x="301.09503000000007" y="700.0" name="top"/>
  <anchor x="483.94199999999995" y="700.0" name="topright"/>
  <outline>
    <contour>
      <point x="188.972" y="-10.0" type="curve" smooth="yes"/>
      <point x="317.506" y="-10.0"/>
      <point x="387.8020000000001" y="51.05"/>
      <point x="408.972" y="182.68399999999997" type="curve" smooth="yes"/>
      <point x="491.50600000000003" y="700.0" type="line"/>
      <point x="419.50200000000007" y="700.0" type="line"/>
      <point x="335.90000000000003" y="175.244" type="line" smooth="yes"/>
      <point x="323.482" y="94.76999999999998"/>
      <point x="279.324" y="54.507999999999996"/>
      <point x="201.198" y="54.507999999999996" type="curve" smooth="yes"/>
      <point x="126.784" y="54.507999999999996"/>
      <point x="89.89" y="94.50000000000001"/>
      <point x="101.376" y="164.61800000000002" type="curve" smooth="yes"/>
      <point x="185.626" y="700.0" type="line"/>
      <point x="114.17399999999999" y="700.0" type="line"/>
      <point x="30.674000000000007" y="170.26399999999998" type="line" smooth="yes"/>
      <point x="27.53" y="150.70399999999998"/>
      <point x="26.834" y="141.964"/>
      <point x="26.834" y="126.744" type="curve" smooth="yes"/>
      <point x="26.834" y="37.266000000000005"/>
      <point x="83.326" y="-10.0"/>
    </contour>
  </outline>
</glyph>
<glyph name="V" format="2">
  <advance width="425.577"/>
  <unicode hex="0056"/>
  <outline>
    <contour>
      <point x="208.94700000000003" y="0.0" type="line"/>
      <point x="413.88500000000005" y="441.757"/>
      <point x="461.34499999999997" y="558.73"/>
      <point x="469.87" y="668.03" type="curve" smooth="yes"/>
      <point x="470.18" y="679.197"/>
      <point x="469.8" y="688.612"/>
      <point x="467.947" y="700.0" type="curve"/>
      <point x="391.667" y="700.0" type="line"/>
      <point x="392.98499999999996" y="689.635"/>
      <point x="393.892" y="681.2470000000001"/>
      <point x="393.892" y="672.615" type="curve" smooth="yes"/>
      <point x="391.877" y="574.01"/>
      <point x="344.336" y="463.401"/>
      <point x="180.29399999999998" y="82.76" type="curve"/>
      <point x="151.54" y="701.442" type="line"/>
      <point x="71.89999999999999" y="700.345" type="line"/>
      <point x="119.832" y="0.0" type="line"/>
    </contour>
  </outline>
</glyph>
<glyph name="W" format="2">
  <advance width="649.8199999999999"/>
  <unicode hex="0057"/>
  <anchor x="277.1" y="0.0" name="bottom"/>
  <anchor x="395.16999999999996" y="700.0" name="top"/>
  <outline>
    <contour>
      <point x="460.72999999999996" y="-0.69" type="line"/>
      <point x="650.51" y="468.6"/>
      <point x="691.92" y="594.48"/>
      <point x="693.7800000000001" y="671.6500000000001" type="curve" smooth="yes"/>
      <point x="693.7800000000001" y="681.7900000000001"/>
      <point x="693.4000000000001" y="690.1700000000001"/>
      <point x="691.5200000000001" y="700.0" type="curve"/>
      <point x="617.15" y="700.0" type="line"/>
      <point x="618.53" y="690.5500000000001"/>
      <point x="619.6" y="682.6700000000001"/>
      <point x="619.6" y="673.0300000000001" type="curve" smooth="yes"/>
      <point x="616.8100000000001" y="581.6"/>
      <point x="586.43" y="492.82"/>
      <point x="431.09000000000003" y="93.84" type="curve"/>
      <point x="426.05" y="640.5100000000001" type="line"/>
      <point x="345.25" y="640.5100000000001" type="line"/>
      <point x="286.94000000000005" y="461.7"/>
      <point x="222.24" y="269.04"/>
      <point x="159.9" y="100.27" type="curve"/>
      <point x="149.94" y="700.0" type="line"/>
      <point x="73.4" y="700.0" type="line"/>
      <point x="96.08999999999999" y="-0.69" type="line"/>
      <point x="178.26" y="-0.69" type="line"/>
      <point x="246.51" y="182.4"/>
      <point x="310.42" y="357.53000000000003"/>
      <point x="367.82" y="526.05" type="curve"/>
      <point x="375.7" y="-0.69" type="line"/>
    </contour>
  </outline>
</glyph>
<glyph name="X" format="2">
  <advance width="439.68"/>
  <unicode hex="0058"/>
  <outline>
    <contour>
      <point x="321.85" y="-4.330000000000001" type="line"/>
      <point x="399.18" y="0.0" type="line"/>
      <point x="274.46" y="342.96" type="line"/>
      <point x="380.03000000000003" y="477.6"/>
      <point x="460.07" y="589.92"/>
      <point x="471.55" y="700.38" type="curve"/>
      <point x="393.71999999999997" y="701.57" type="line"/>
      <point x="386.37" y="602.91"/>
      <point x="335.15" y="523.59"/>
      <point x="246.88000000000002" y="408.1" type="curve"/>
      <point x="147.9" y="704.95" type="line"/>
      <point x="72.80999999999999" y="700.24" type="line"/>
      <point x="189.72" y="366.68" type="line"/>
      <point x="85.22" y="239.7"/>
      <point x="-5.74" y="116.33"/>
      <point x="-9.159999999999998" y="0.0" type="curve"/>
      <point x="69.47999999999999" y="0.0" type="line"/>
      <point x="72.89999999999999" y="99.56"/>
      <point x="132.61" y="195.01"/>
      <point x="217.67999999999998" y="301.54" type="curve"/>
    </contour>
  </outline>
</glyph>
<glyph name="Y" format="2">
  <advance width="407.34799999999996"/>
  <unicode hex="0059"/>
  <anchor x="158.54000000000002" y="0.0" name="bottom"/>
  <anchor x="271.5400000000001" y="700.0" name="top"/>
  <anchor x="89.37599999999999" y="700.0" name="topleft"/>
  <outline>
    <contour>
      <point x="124.392" y="0.0" type="line"/>
      <point x="195.22400000000002" y="0.0" type="line"/>
      <point x="241.26399999999998" y="280.876" type="line"/>
      <point x="352.70799999999997" y="415.196"/>
      <point x="417.47600000000006" y="527.408"/>
      <point x="454.292" y="660.968" type="curve" smooth="yes"/>
      <point x="457.544" y="673.98"/>
      <point x="461.292" y="687.74"/>
      <point x="464.416" y="701.2520000000001" type="curve"/>
      <point x="384.78400000000005" y="704.264" type="line"/>
      <point x="382.28000000000003" y="691.376"/>
      <point x="379.65200000000004" y="678.74"/>
      <point x="376.77200000000005" y="665.852" type="curve" smooth="yes"/>
      <point x="350.26" y="553.188"/>
      <point x="306.18" y="457.78800000000007"/>
      <point x="216.416" y="348.396" type="curve"/>
      <point x="150.396" y="703.388" type="line"/>
      <point x="70.524" y="700.0000000000001" type="line"/>
      <point x="169.304" y="280.876" type="line"/>
    </contour>
  </outline>
</glyph>
<glyph name="Z" format="2">
  <advance width="398.60999999999996"/>
  <unicode hex="005A"/>
  <anchor x="158.41" y="0.0" name="bottom"/>
  <anchor x="208.89" y="350.0" name="center"/>
  <anchor x="266.22" y="700.0" name="top"/>
  <outline>
    <contour>
      <point x="-26.43" y="0.0" type="line"/>
      <point x="342.01" y="0.0" type="line"/>
      <point x="352.76" y="64.57" type="line"/>
      <point x="63.5" y="64.57" type="line"/>
      <point x="429.03" y="637.26" type="line"/>
      <point x="438.78" y="700.0" type="line"/>
      <point x="103.47" y="700.0" type="line"/>
      <point x="93.03" y="635.4300000000001" type="line"/>
      <point x="349.22999999999996" y="635.4300000000001" type="line"/>
      <point x="-16.3" y="61.5" type="line"/>
    </contour>
  </outline>
</glyph>
<glyph name="bracketleft" format="2">
  <advance width="243.176"/>
  <unicode hex="005B"/>
  <outline>
    <contour>
      <point x="51.74399999999999" y="-151.07999999999998" type="line"/>
      <point x="184.59199999999998" y="681.2180000000001" type="line"/>
      <point x="295.902" y="681.2180000000001" type="line"/>
      <point x="305.722" y="740.0" type="line"/>
      <point x="134.93200000000002" y="740.0" type="line"/>
      <point x="-16.942" y="-210.0" type="line"/>
      <point x="152.986" y="-210.0" type="line"/>
      <point x="163.054" y="-151.07999999999998" type="line"/>
    </contour>
  </outline>
</glyph>
<glyph name="backslash" format="2">
  <advance width="327.112"/>
  <unicode hex="005C"/>
  <outline>
    <contour>
      <point x="135.662" y="740.0" type="line"/>
      <point x="77.148" y="740.0" type="line"/>
      <point x="226.636" y="-210.0" type="line"/>
      <point x="284.902" y="-210.0" type="line"/>
    </contour>
  </outline>
</glyph>
<glyph name="bracketright" format="2">
  <advance width="243.176"/>
  <unicode hex="005D"/>
  <outline>
    <contour>
      <point x="-55.036" y="-151.07999999999998" type="line"/>
      <point x="-64.794" y="-210.0" type="line"/>
      <point x="104.44399999999999" y="-210.0" type="line"/>
      <point x="257.18" y="740.0" type="line"/>
      <point x="86.94200000000001" y="740.0" type="line"/>
      <point x="76.87400000000001" y="681.08" type="line"/>
      <point x="188.184" y="681.08" type="line"/>
      <point x="55.088" y="-151.07999999999998" type="line"/>
    </contour>
  </outline>
</glyph>
<glyph name="asciicircum" format="2">
  <advance width="399.626"/>
  <unicode hex="005E"/>
  <outline>
    <contour>
      <point x="40.178" y="264.63599999999997" type="line"/>
      <point x="94.918" y="264.63599999999997" type="line"/>
      <point x="255.368" y="630.732" type="line"/>
      <point x="302.368" y="264.63599999999997" type="line"/>
      <point x="356.584" y="264.63599999999997" type="line"/>
      <point x="298.73400000000004" y="706.9" type="line"/>
      <point x="233.874" y="706.9" type="line"/>
    </contour>
  </outline>
</glyph>
<glyph name="underscore" format="2">
  <advance width="640.376"/>
  <unicode hex="005F"/>
  <outline>
    <contour>
      <point x="-64.30600000000001" y="-158.692" type="line"/>
      <point x="566.746" y="-158.692" type="line"/>
      <point x="577.682" y="-93.08800000000001" type="line"/>
      <point x="-53.37" y="-93.08800000000001" type="line"/>
    </contour>
  </outline>
</glyph>
<glyph name="a" format="2">
  <advance width="403.558"/>
  <unicode hex="0061"/>
  <note>
15
</note>
  <anchor x="161.715" y="0.0" name="bottom"/>
  <anchor x="367.92" y="3.7199999999999998" name="ogonek"/>
  <anchor x="250.13799999999998" y="536.2" name="top"/>
  <outline>
    <contour>
      <point x="312.034" y="-10.0" type="curve" smooth="yes"/>
      <point x="332.31" y="-10.0"/>
      <point x="353.595" y="-4.602000000000001"/>
      <point x="367.99600000000004" y="3.4919999999999995" type="curve"/>
      <point x="370.50899999999996" y="61.120000000000005" type="line"/>
      <point x="361.296" y="57.43600000000001"/>
      <point x="353.15299999999996" y="55.597"/>
      <point x="344.709" y="55.597" type="curve" smooth="yes"/>
      <point x="327.733" y="55.597"/>
      <point x="320.979" y="64.889"/>
      <point x="320.979" y="83.93500000000002" type="curve" smooth="yes"/>
      <point x="320.979" y="91.39399999999999"/>
      <point x="329.81199999999995" y="146.51700000000002"/>
      <point x="389.47200000000004" y="519.702" type="curve"/>
      <point x="356.01700000000005" y="535.2549999999999"/>
      <point x="308.593" y="546.2"/>
      <point x="263.412" y="546.2" type="curve" smooth="yes"/>
      <point x="115.401" y="546.2"/>
      <point x="20.122" y="394.43899999999996"/>
      <point x="20.122" y="156.893" type="curve" smooth="yes"/>
      <point x="20.122" y="47.714"/>
      <point x="64.155" y="-10.0"/>
      <point x="140.24599999999998" y="-10.0" type="curve" smooth="yes"/>
      <point x="182.88099999999997" y="-10.0"/>
      <point x="220.954" y="5.772"/>
      <point x="250.81400000000002" y="30.570999999999998" type="curve"/>
      <point x="260.24499999999995" y="4.924"/>
      <point x="281.904" y="-10.0"/>
    </contour>
    <contour>
      <point x="248.665" y="82.525" type="line"/>
      <point x="226.169" y="66.871"/>
      <point x="194.925" y="56.126000000000005"/>
      <point x="167.292" y="56.126000000000005" type="curve" smooth="yes"/>
      <point x="121.014" y="56.126000000000005"/>
      <point x="93.603" y="94.49799999999999"/>
      <point x="93.603" y="167.64900000000003" type="curve" smooth="yes"/>
      <point x="93.603" y="354.13"/>
      <point x="164.012" y="484.48400000000004"/>
      <point x="254.98700000000002" y="484.48400000000004" type="curve" smooth="yes"/>
      <point x="276.86300000000006" y="484.48400000000004"/>
      <point x="295.29200000000003" y="480.879"/>
      <point x="310.04" y="472.96999999999997" type="curve"/>
    </contour>
  </outline>
</glyph>
<glyph name="b" format="2">
  <advance width="402.612"/>
  <unicode hex="0062"/>
  <note>
12
</note>
  <outline>
    <contour>
      <point x="196.35100000000003" y="740.0" type="line"/>
      <point x="125.426" y="740.0" type="line"/>
      <point x="10.322" y="11.306" type="line"/>
      <point x="44.85300000000001" y="-0.6070000000000001"/>
      <point x="85.94300000000001" y="-10.0"/>
      <point x="136.99300000000002" y="-10.0" type="curve" smooth="yes"/>
      <point x="294.829" y="-10.0"/>
      <point x="382.933" y="180.562"/>
      <point x="382.468" y="378.968" type="curve" smooth="yes"/>
      <point x="382.31299999999993" y="491.686"/>
      <point x="344.38500000000005" y="546.2"/>
      <point x="268.423" y="546.2" type="curve" smooth="yes"/>
      <point x="229.334" y="546.2"/>
      <point x="195.40200000000002" y="531.6460000000001"/>
      <point x="159.315" y="508.612" type="curve"/>
    </contour>
    <contour>
      <point x="238.109" y="479.547" type="curve" smooth="yes"/>
      <point x="290.41800000000006" y="479.547"/>
      <point x="310.458" y="433.80699999999996"/>
      <point x="310.458" y="367.288" type="curve" smooth="yes"/>
      <point x="310.458" y="210.36200000000002"/>
      <point x="244.145" y="51.073"/>
      <point x="146.085" y="51.073" type="curve" smooth="yes"/>
      <point x="124.30199999999999" y="51.073"/>
      <point x="104.02" y="55.247"/>
      <point x="89.27499999999999" y="60.852000000000004" type="curve"/>
      <point x="150.115" y="447.8279999999999" type="line"/>
      <point x="178.832" y="467.97400000000005"/>
      <point x="211.101" y="479.547"/>
    </contour>
  </outline>
</glyph>
<glyph name="c" format="2">
  <advance width="335.82"/>
  <unicode hex="0063"/>
  <note>
10
</note>
  <anchor x="168.33599999999998" y="0.0" name="bottom"/>
  <anchor x="250.12" y="536.2" name="top"/>
  <outline>
    <contour>
      <point x="171.30199999999996" y="-10.0" type="curve" smooth="yes"/>
      <point x="213.788" y="-10.0"/>
      <point x="254.32800000000003" y="-2.9940000000000007"/>
      <point x="285.36999999999995" y="8.258000000000001" type="curve"/>
      <point x="277.56800000000004" y="67.5" type="line"/>
      <point x="251.39200000000002" y="60.582"/>
      <point x="222.55599999999998" y="55.822"/>
      <point x="190.416" y="55.822" type="curve" smooth="yes"/>
      <point x="127.94999999999999" y="55.822"/>
      <point x="91.44200000000002" y="97.25999999999999"/>
      <point x="91.44200000000002" y="171.08200000000002" type="curve" smooth="yes"/>
      <point x="91.44200000000002" y="332.858"/>
      <point x="161.252" y="479.46000000000004"/>
      <point x="253.68200000000004" y="479.46000000000004" type="curve" smooth="yes"/>
      <point x="281.676" y="479.46000000000004"/>
      <point x="306.068" y="476.618"/>
      <point x="336.16800000000006" y="467.30800000000005" type="curve"/>
      <point x="358.5919999999999" y="531.34" type="line"/>
      <point x="326.27" y="541.27"/>
      <point x="292.432" y="546.2"/>
      <point x="256.6820000000001" y="546.2" type="curve" smooth="yes"/>
      <point x="110.502" y="546.2"/>
      <point x="20.045999999999996" y="376.898"/>
      <point x="20.045999999999996" y="155.44799999999998" type="curve" smooth="yes"/>
      <point x="20.045999999999996" y="50.440000000000005"/>
      <point x="73.40400000000001" y="-10.0"/>
    </contour>
  </outline>
</glyph>
<glyph name="d" format="2">
  <advance width="404.09000000000003"/>
  <unicode hex="0064"/>
  <note>
17
</note>
  <anchor x="162.471" y="0.0" name="bottom"/>
  <anchor x="206.07100000000003" y="327.285" name="center"/>
  <anchor x="265.59999999999997" y="740.0" name="top"/>
  <anchor x="481.18499999999995" y="740.0" name="topright"/>
  <outline>
    <contour>
      <point x="310.87899999999996" y="-10.0" type="curve" smooth="yes"/>
      <point x="328.617" y="-10.0"/>
      <point x="349.981" y="-5.216000000000001"/>
      <point x="366.227" y="3.4919999999999995" type="curve"/>
      <point x="368.202" y="61.12" type="line"/>
      <point x="360.06200000000007" y="57.895"/>
      <point x="351.156" y="55.596999999999994"/>
      <point x="342.253" y="55.596999999999994" type="curve" smooth="yes"/>
      <point x="326.657" y="55.596999999999994"/>
      <point x="319.137" y="64.12"/>
      <point x="319.137" y="81.391" type="curve" smooth="yes"/>
      <point x="319.137" y="92.64899999999999"/>
      <point x="365.813" y="381.361"/>
      <point x="422.38999999999993" y="740.0" type="curve"/>
      <point x="351.31" y="740.0" type="line"/>
      <point x="318.54699999999997" y="533.4220000000001" type="line"/>
      <point x="295.784" y="541.124"/>
      <point x="271.933" y="546.2"/>
      <point x="242.246" y="546.2" type="curve" smooth="yes"/>
      <point x="112.41" y="546.2"/>
      <point x="19.204" y="379.99800000000005"/>
      <point x="19.204" y="151.117" type="curve" smooth="yes"/>
      <point x="19.204" y="42.95399999999999"/>
      <point x="64.386" y="-10.0"/>
      <point x="138.64700000000002" y="-10.0" type="curve" smooth="yes"/>
      <point x="179.82" y="-10.0"/>
      <point x="222.19400000000005" y="8.704999999999998"/>
      <point x="248.74099999999996" y="31.261000000000003" type="curve"/>
      <point x="258.707" y="4.24"/>
      <point x="279.28999999999996" y="-10.0"/>
    </contour>
    <contour>
      <point x="164.295" y="56.894999999999996" type="curve" smooth="yes"/>
      <point x="119.54599999999999" y="56.894999999999996"/>
      <point x="91.45100000000001" y="92.58600000000001"/>
      <point x="91.45100000000001" y="152.60600000000002" type="curve" smooth="yes"/>
      <point x="91.45100000000001" y="325.57599999999996"/>
      <point x="156.331" y="484.4840000000001"/>
      <point x="250.692" y="484.4840000000001" type="curve" smooth="yes"/>
      <point x="274.103" y="484.4840000000001"/>
      <point x="291.45599999999996" y="480.34100000000007"/>
      <point x="309.19199999999995" y="475.19500000000005" type="curve"/>
      <point x="247.27899999999997" y="82.75600000000001" type="line"/>
      <point x="224.631" y="67.02599999999998"/>
      <point x="194.45700000000002" y="56.894999999999996"/>
    </contour>
  </outline>
</glyph>
<glyph name="e" format="2">
  <advance width="374.06"/>
  <unicode hex="0065"/>
  <note>
14 points
</note>
  <anchor x="179.588" y="0.0" name="bottom"/>
  <anchor x="272.31600000000003" y="2.8480000000000003" name="ogonek"/>
  <anchor x="251.704" y="537.4280000000001" name="top"/>
  <outline>
    <contour>
      <point x="80.71399999999998" y="282.43" type="curve"/>
      <point x="72.368" y="227.92600000000002" type="line"/>
      <point x="109.38" y="228.3"/>
      <point x="151.60799999999998" y="233.98999999999998"/>
      <point x="192.61999999999998" y="245.36999999999998" type="curve" smooth="yes"/>
      <point x="306.03000000000003" y="277.35800000000006"/>
      <point x="378.89" y="349.856"/>
      <point x="378.89" y="443.442" type="curve" smooth="yes"/>
      <point x="378.89" y="505.21599999999995"/>
      <point x="336.83" y="546.2"/>
      <point x="262.986" y="546.2" type="curve" smooth="yes"/>
      <point x="112.8" y="546.2"/>
      <point x="23.116000000000003" y="392.8419999999999"/>
      <point x="23.116000000000003" y="185.61599999999999" type="curve" smooth="yes"/>
      <point x="23.116000000000003" y="61.024"/>
      <point x="79.11200000000001" y="-10.0"/>
      <point x="181.998" y="-10.0" type="curve" smooth="yes"/>
      <point x="228.274" y="-10.0"/>
      <point x="280.24000000000007" y="0.3860000000000001"/>
      <point x="321.06" y="20.714" type="curve"/>
      <point x="308.24000000000007" y="82.132" type="line"/>
      <point x="265.678" y="63.897999999999996"/>
      <point x="226.58399999999997" y="55.822"/>
      <point x="191.988" y="55.822" type="curve" smooth="yes"/>
      <point x="127.35799999999999" y="55.822"/>
      <point x="92.032" y="102.69"/>
      <point x="92.032" y="194.6" type="curve" smooth="yes"/>
      <point x="92.032" y="365.92199999999997"/>
      <point x="161.748" y="485.338"/>
      <point x="250.838" y="485.338" type="curve" smooth="yes"/>
      <point x="290.05800000000005" y="485.338"/>
      <point x="311.214" y="468.006"/>
      <point x="311.214" y="430.838" type="curve" smooth="yes"/>
      <point x="311.214" y="369.694"/>
      <point x="259.614" y="323.35200000000003"/>
      <point x="178.506" y="298.46999999999997" type="curve" smooth="yes"/>
      <point x="146.326" y="288.64"/>
      <point x="112.602" y="282.728"/>
    </contour>
  </outline>
</glyph>
<glyph name="f" format="2">
  <advance width="254.066"/>
  <unicode hex="0066"/>
  <outline>
    <contour>
      <point x="-46.898" y="-220.0" type="curve" smooth="yes"/>
      <point x="35.402" y="-220.0"/>
      <point x="77.054" y="-159.66799999999998"/>
      <point x="96.652" y="-35.465999999999994" type="curve" smooth="yes"/>
      <point x="170.812" y="433.75199999999995" type="line"/>
      <point x="279.458" y="433.75199999999995" type="line"/>
      <point x="289.278" y="495.15999999999997" type="line"/>
      <point x="180.57" y="495.15999999999997" type="line"/>
      <point x="201.64600000000002" y="630.536"/>
      <point x="235.048" y="682.64"/>
      <point x="296.858" y="682.64" type="curve" smooth="yes"/>
      <point x="320.71" y="682.64"/>
      <point x="342.51000000000005" y="677.75"/>
      <point x="364.168" y="671.26" type="curve"/>
      <point x="384.608" y="731.7299999999999" type="line"/>
      <point x="354.3" y="743.3480000000001"/>
      <point x="325.44399999999996" y="750.0"/>
      <point x="292.248" y="750.0" type="curve" smooth="yes"/>
      <point x="194.882" y="750.0"/>
      <point x="137.08599999999998" y="674.374"/>
      <point x="109.6" y="495.15999999999997" type="curve"/>
      <point x="44.31" y="488.18199999999996" type="line"/>
      <point x="35.366" y="433.75199999999995" type="line"/>
      <point x="99.78" y="433.75199999999995" type="line"/>
      <point x="26.516000000000002" y="-31.386000000000003" type="line" smooth="yes"/>
      <point x="13.706" y="-111.668"/>
      <point x="-7.489999999999999" y="-153.896"/>
      <point x="-56.318000000000005" y="-153.896" type="curve" smooth="yes"/>
      <point x="-68.596" y="-153.896"/>
      <point x="-80.08600000000001" y="-152.25400000000002"/>
      <point x="-95.63199999999999" y="-147.102" type="curve"/>
      <point x="-113.05199999999999" y="-208.618" type="line"/>
      <point x="-91.824" y="-216.498"/>
      <point x="-70.892" y="-220.0"/>
    </contour>
  </outline>
</glyph>
<glyph name="g" format="2">
  <advance width="400.00199999999995"/>
  <unicode hex="0067"/>
  <note>
16
</note>
  <anchor x="114.94" y="-213.85999999999999" name="bottom"/>
  <anchor x="247.992" y="536.2" name="top"/>
  <outline>
    <contour>
      <point x="-8.832" y="-195.782" type="line"/>
      <point x="29.708000000000002" y="-211.438"/>
      <point x="74.86800000000001" y="-220.0"/>
      <point x="116.94" y="-220.0" type="curve" smooth="yes"/>
      <point x="221.084" y="-220.0"/>
      <point x="279.858" y="-157.718"/>
      <point x="300.876" y="-22.762" type="curve" smooth="yes"/>
      <point x="388.62399999999997" y="523.4920000000001" type="line"/>
      <point x="358.51800000000003" y="536.34"/>
      <point x="309.058" y="546.2"/>
      <point x="267.436" y="546.2" type="curve" smooth="yes"/>
      <point x="98.19200000000001" y="546.2"/>
      <point x="18.888000000000005" y="362.418"/>
      <point x="18.888000000000005" y="153.41000000000003" type="curve" smooth="yes"/>
      <point x="18.888000000000005" y="57.446"/>
      <point x="59.19199999999999" y="-3.49"/>
      <point x="135.30999999999997" y="-3.49" type="curve" smooth="yes"/>
      <point x="165.754" y="-3.49"/>
      <point x="206.462" y="7.656"/>
      <point x="238.234" y="26.866" type="curve"/>
      <point x="231.024" y="-23.33" type="line" smooth="yes"/>
      <point x="216.82000000000002" y="-118.80600000000001"/>
      <point x="179.00199999999998" y="-155.49400000000003"/>
      <point x="114.24399999999999" y="-155.49400000000003" type="curve" smooth="yes"/>
      <point x="82.144" y="-155.49400000000003"/>
      <point x="42.616" y="-147.476"/>
      <point x="11.048000000000002" y="-135.46400000000003" type="curve"/>
    </contour>
    <contour>
      <point x="309.344" y="475.444" type="curve"/>
      <point x="247.58599999999998" y="87.16" type="line"/>
      <point x="226.78" y="71.74"/>
      <point x="191.63" y="59.53600000000001"/>
      <point x="167.064" y="59.53600000000001" type="curve" smooth="yes"/>
      <point x="120.39399999999999" y="59.53600000000001"/>
      <point x="91.904" y="96.422"/>
      <point x="91.904" y="166.85" type="curve" smooth="yes"/>
      <point x="91.904" y="325.06600000000003"/>
      <point x="156.39200000000002" y="486.268"/>
      <point x="254.97200000000004" y="486.268" type="curve" smooth="yes"/>
      <point x="277.246" y="486.268"/>
      <point x="293.754" y="481.046"/>
    </contour>
  </outline>
</glyph>
<glyph name="h" format="2">
  <advance width="408.72"/>
  <unicode hex="0068"/>
  <note>
16
</note>
  <anchor x="165.962" y="0.0" name="bottom"/>
  <anchor x="220.743" y="371.55" name="center"/>
  <anchor x="279.18399999999997" y="740.0" name="top"/>
  <outline>
    <contour>
      <point x="326.527" y="81.473" type="curve" smooth="yes"/>
      <point x="326.527" y="109.80799999999999"/>
      <point x="381.561" y="419.094"/>
      <point x="381.561" y="453.62" type="curve" smooth="yes"/>
      <point x="381.561" y="509.112"/>
      <point x="353.616" y="546.2"/>
      <point x="289.12399999999997" y="546.2" type="curve" smooth="yes"/>
      <point x="243.519" y="546.2"/>
      <point x="202.47900000000004" y="530.37"/>
      <point x="159.078" y="505.26699999999994" type="curve"/>
      <point x="196.53700000000003" y="740.0" type="line"/>
      <point x="125.302" y="740.0" type="line"/>
      <point x="7.837" y="0.0" type="line"/>
      <point x="79.07199999999999" y="0.0" type="line"/>
      <point x="149.72899999999998" y="447.07" type="line"/>
      <point x="182.739" y="466.262"/>
      <point x="218.658" y="480.229"/>
      <point x="250.50400000000002" y="480.229" type="curve" smooth="yes"/>
      <point x="292.946" y="480.229"/>
      <point x="306.22599999999994" y="456.973"/>
      <point x="306.22599999999994" y="425.65900000000005" type="curve" smooth="yes"/>
      <point x="306.22599999999994" y="393.86199999999997"/>
      <point x="252.34099999999998" y="91.81"/>
      <point x="252.34099999999998" y="52.743" type="curve" smooth="yes"/>
      <point x="252.34099999999998" y="14.142000000000001"/>
      <point x="280.243" y="-10.0"/>
      <point x="319.193" y="-10.0" type="curve" smooth="yes"/>
      <point x="336.551" y="-10.0"/>
      <point x="355.757" y="-6.289"/>
      <point x="372.854" y="2.571" type="curve"/>
      <point x="375.674" y="61.35399999999999" type="line"/>
      <point x="365.923" y="57.593999999999994"/>
      <point x="358.24199999999996" y="56.287"/>
      <point x="351.79200000000003" y="56.287" type="curve" smooth="yes"/>
      <point x="334.28399999999993" y="56.287"/>
      <point x="326.527" y="65.03800000000001"/>
    </contour>
  </outline>
</glyph>
<glyph name="i" format="2">
  <advance width="175.098"/>
  <unicode hex="0069"/>
  <note>
Ajuster pts sur points
8
</note>
  <anchor x="43.355528" y="0.0" name="bottom"/>
  <anchor x="79.18199999999999" y="0.0" name="ogonek"/>
  <anchor x="128.430472" y="536.2" name="top"/>
  <outline>
    <contour>
      <point x="8.777999999999999" y="0.0" type="line"/>
      <point x="79.18199999999999" y="0.0" type="line"/>
      <point x="164.04999999999998" y="536.2" type="line"/>
      <point x="93.218" y="536.2" type="line"/>
    </contour>
    <contour>
      <point x="160.97199999999998" y="734.8" type="curve" smooth="yes"/>
      <point x="123.73599999999999" y="734.8"/>
      <point x="111.514" y="713.05"/>
      <point x="109.72" y="673.77" type="curve" smooth="yes"/>
      <point x="109.168" y="651.648"/>
      <point x="121.994" y="642.892"/>
      <point x="144.782" y="642.892" type="curve" smooth="yes"/>
      <point x="181.21999999999997" y="642.892"/>
      <point x="194.316" y="664.2700000000001"/>
      <point x="196.248" y="704.3700000000001" type="curve" smooth="yes"/>
      <point x="196.79999999999998" y="726.2919999999999"/>
      <point x="184.14000000000001" y="734.8"/>
    </contour>
  </outline>
</glyph>
<glyph name="j" format="2">
  <advance width="182.726"/>
  <unicode hex="006A"/>
  <note>
idem /i
12
</note>
  <outline>
    <contour>
      <point x="168.662" y="734.8" type="curve" smooth="yes"/>
      <point x="131.364" y="734.8"/>
      <point x="119.48" y="713.05"/>
      <point x="117.68599999999999" y="673.77" type="curve" smooth="yes"/>
      <point x="117.134" y="651.648"/>
      <point x="129.994" y="642.892"/>
      <point x="152.782" y="642.892" type="curve" smooth="yes"/>
      <point x="188.558" y="642.892"/>
      <point x="201.73000000000002" y="664.2700000000001"/>
      <point x="203.66199999999998" y="704.3700000000001" type="curve" smooth="yes"/>
      <point x="204.214" y="726.2919999999999"/>
      <point x="191.83" y="734.8"/>
    </contour>
    <contour>
      <point x="172.04999999999998" y="536.2" type="line"/>
      <point x="100.908" y="536.2" type="line"/>
      <point x="9.574" y="-40.704" type="line" smooth="yes"/>
      <point x="-1.6419999999999992" y="-111.07"/>
      <point x="-21.941999999999997" y="-153.896"/>
      <point x="-69.32" y="-153.896" type="curve" smooth="yes"/>
      <point x="-82.15" y="-153.896"/>
      <point x="-94.60600000000001" y="-152.454"/>
      <point x="-110.746" y="-146.812" type="curve"/>
      <point x="-127.22200000000001" y="-209.692" type="line"/>
      <point x="-106.20800000000001" y="-217.24200000000002"/>
      <point x="-80.45599999999999" y="-220.0"/>
      <point x="-61.010000000000005" y="-220.0" type="curve" smooth="yes"/>
      <point x="23.491999999999997" y="-220.0"/>
      <point x="61.616" y="-160.34599999999998"/>
      <point x="80.026" y="-42.914" type="curve" smooth="yes"/>
    </contour>
  </outline>
</glyph>
<glyph name="k" format="2">
  <advance width="380.61"/>
  <unicode hex="006B"/>
  <anchor x="165.03" y="0.0" name="bottom"/>
  <anchor x="161.69" y="740.0" name="top"/>
  <outline>
    <contour>
      <point x="8.34" y="0.0" type="line"/>
      <point x="79.73" y="0.0" type="line"/>
      <point x="197.04000000000002" y="740.0" type="line"/>
      <point x="125.33999999999999" y="740.0" type="line"/>
    </contour>
    <contour>
      <point x="318.89" y="-10.0" type="curve" smooth="yes"/>
      <point x="328.67999999999995" y="-10.0"/>
      <point x="338.46999999999997" y="-8.5"/>
      <point x="348.57" y="-4.569999999999999" type="curve"/>
      <point x="354.8" y="64.25" type="line"/>
      <point x="348.18" y="62.870000000000005"/>
      <point x="342.37" y="62.489999999999995"/>
      <point x="337.25" y="62.800000000000004" type="curve" smooth="yes"/>
      <point x="308.32" y="64.35"/>
      <point x="280.08" y="92.52999999999999"/>
      <point x="220.25" y="200.14999999999998" type="curve" smooth="yes"/>
      <point x="126.8" y="364.59999999999997" type="line"/>
      <point x="108.24" y="274.54" type="line"/>
      <point x="194.03" y="119.12" type="line" smooth="yes"/>
      <point x="246.45" y="23.48"/>
      <point x="276.74" y="-10.0"/>
    </contour>
    <contour>
      <point x="187.04000000000002" y="245.28" type="line"/>
      <point x="279.49" y="314.34000000000003"/>
      <point x="360.44" y="423.92"/>
      <point x="402.43" y="535.96" type="curve"/>
      <point x="333.54" y="545.82" type="line"/>
      <point x="288.96" y="431.07"/>
      <point x="233.3" y="356.63"/>
      <point x="147.92" y="291.92" type="curve"/>
    </contour>
  </outline>
</glyph>
<glyph name="l" format="2">
  <advance width="195.386"/>
  <unicode hex="006C"/>
  <anchor x="90.468" y="0.0" name="bottom"/>
  <anchor x="107.302372" y="371.55" name="center"/>
  <anchor x="160.60399999999998" y="740.0" name="top"/>
  <anchor x="255.15999999999997" y="740.0" name="topright"/>
  <outline>
    <contour>
      <point x="125.364" y="740.0" type="line"/>
      <point x="23.298000000000002" y="95.81" type="line" smooth="yes"/>
      <point x="21.664" y="84.516"/>
      <point x="20.064" y="71.042"/>
      <point x="20.064" y="59.711999999999996" type="curve" smooth="yes"/>
      <point x="20.064" y="16.531999999999996"/>
      <point x="41.436" y="-10.0"/>
      <point x="91.46600000000001" y="-10.0" type="curve" smooth="yes"/>
      <point x="115.34799999999998" y="-10.0"/>
      <point x="142.16" y="-4.168"/>
      <point x="162.17600000000002" y="4.579999999999999" type="curve"/>
      <point x="164.73399999999998" y="63.717999999999996" type="line"/>
      <point x="149.318" y="59.186"/>
      <point x="137.04" y="56.944"/>
      <point x="126.02399999999999" y="56.944" type="curve" smooth="yes"/>
      <point x="101.40999999999998" y="56.944"/>
      <point x="94.14" y="69.244"/>
      <point x="94.14" y="85.556" type="curve" smooth="yes"/>
      <point x="94.14" y="97.042"/>
      <point x="96.59599999999999" y="110.19"/>
      <point x="99.452" y="128.27800000000002" type="curve" smooth="yes"/>
      <point x="196.396" y="740.0" type="line"/>
    </contour>
  </outline>
</glyph>
<glyph name="m" format="2">
  <advance width="610.2719999999999"/>
  <unicode hex="006D"/>
  <note>
24&gt;23 points
un point de trop dans la jointure avec 2e jambage
</note>
  <outline>
    <contour>
      <point x="520.218" y="-10.0" type="curve" smooth="yes"/>
      <point x="537.452" y="-10.0"/>
      <point x="557.898" y="-6.444"/>
      <point x="574.468" y="2.4779999999999998" type="curve"/>
      <point x="577.1640000000001" y="60.79599999999999" type="line"/>
      <point x="567.63" y="57.035999999999994"/>
      <point x="559.67" y="56.008"/>
      <point x="553.282" y="56.008" type="curve" smooth="yes"/>
      <point x="535.836" y="56.008"/>
      <point x="527.386" y="65.396"/>
      <point x="527.386" y="82.60600000000001" type="curve" smooth="yes"/>
      <point x="527.386" y="115.498"/>
      <point x="582.8539999999999" y="420.644"/>
      <point x="582.8539999999999" y="454.922" type="curve" smooth="yes"/>
      <point x="582.8539999999999" y="508.368"/>
      <point x="555.044" y="546.2"/>
      <point x="490.49" y="546.2" type="curve" smooth="yes"/>
      <point x="448.588" y="546.2"/>
      <point x="404.51000000000005" y="530.5780000000001"/>
      <point x="357.058" y="497.01000000000005" type="curve"/>
      <point x="345.272" y="527.132"/>
      <point x="318.05199999999996" y="546.2"/>
      <point x="275.656" y="546.2" type="curve" smooth="yes"/>
      <point x="235.96" y="546.2"/>
      <point x="194.982" y="530.0600000000001"/>
      <point x="152.422" y="502.604" type="curve"/>
      <point x="157.98000000000002" y="536.2" type="line"/>
      <point x="92.60400000000001" y="536.2" type="line"/>
      <point x="7.812000000000002" y="0.0" type="line"/>
      <point x="78.706" y="0.0" type="line"/>
      <point x="149.53199999999998" y="448.628" type="line"/>
      <point x="179.35600000000002" y="467.828"/>
      <point x="209.918" y="480.26"/>
      <point x="238.666" y="480.26" type="curve" smooth="yes"/>
      <point x="277.54800000000006" y="480.26"/>
      <point x="291.69" y="456.7"/>
      <point x="291.69" y="425.808" type="curve" smooth="yes"/>
      <point x="291.69" y="401.99399999999997"/>
      <point x="240.578" y="93.998"/>
      <point x="225.942" y="0.0" type="curve"/>
      <point x="296.892" y="0.0" type="line"/>
      <point x="309.606" y="82.238"/>
      <point x="355.882" y="369.164"/>
      <point x="361.834" y="425.182" type="curve" smooth="yes"/>
      <point x="362.144" y="431.78200000000004"/>
      <point x="362.198" y="440.8"/>
      <point x="361.68" y="446.476" type="curve"/>
      <point x="390.42" y="465.606"/>
      <point x="421.5" y="480.074"/>
      <point x="454.40199999999993" y="480.074" type="curve" smooth="yes"/>
      <point x="493.808" y="480.074"/>
      <point x="507.412" y="456.92799999999994"/>
      <point x="507.412" y="424.676" type="curve" smooth="yes"/>
      <point x="507.412" y="391.882"/>
      <point x="453.696" y="93.98"/>
      <point x="453.696" y="53.456" type="curve" smooth="yes"/>
      <point x="453.696" y="12.592"/>
      <point x="481.392" y="-10.0"/>
    </contour>
  </outline>
</glyph>
<glyph name="n" format="2">
  <advance width="407.61599999999993"/>
  <unicode hex="006E"/>
  <note>
16
</note>
  <anchor x="173.306" y="0.0" name="bottom"/>
  <anchor x="241.276" y="536.2" name="top"/>
  <outline>
    <contour>
      <point x="92.60400000000001" y="536.2" type="line"/>
      <point x="7.812000000000002" y="0.0" type="line"/>
      <point x="78.644" y="0.0" type="line"/>
      <point x="149.642" y="447.38" type="line"/>
      <point x="182.61200000000002" y="466.61400000000003"/>
      <point x="217.554" y="480.812"/>
      <point x="249.95799999999997" y="480.812" type="curve" smooth="yes"/>
      <point x="292.076" y="480.812"/>
      <point x="306.28000000000003" y="457.36199999999997"/>
      <point x="306.28000000000003" y="424.986" type="curve" smooth="yes"/>
      <point x="306.28000000000003" y="390.80999999999995"/>
      <point x="252.50199999999998" y="94.6"/>
      <point x="252.50199999999998" y="51.471999999999994" type="curve" smooth="yes"/>
      <point x="252.50199999999998" y="14.328"/>
      <point x="279.23199999999997" y="-10.0"/>
      <point x="318.058" y="-10.0" type="curve" smooth="yes"/>
      <point x="335.29200000000003" y="-10.0"/>
      <point x="355.242" y="-6.444"/>
      <point x="371.81199999999995" y="2.4779999999999998" type="curve"/>
      <point x="374.508" y="60.79599999999999" type="line"/>
      <point x="364.974" y="57.035999999999994"/>
      <point x="357.01399999999995" y="56.008"/>
      <point x="350.626" y="56.008" type="curve" smooth="yes"/>
      <point x="333.18" y="56.008"/>
      <point x="325.696" y="64.79"/>
      <point x="325.696" y="81.256" type="curve" smooth="yes"/>
      <point x="325.696" y="109.684"/>
      <point x="381.41200000000003" y="418.908"/>
      <point x="381.41200000000003" y="453.43399999999997" type="curve" smooth="yes"/>
      <point x="381.41200000000003" y="509.732"/>
      <point x="351.272" y="546.2"/>
      <point x="288.082" y="546.2" type="curve" smooth="yes"/>
      <point x="241.95" y="546.2"/>
      <point x="196.62" y="529.4599999999999"/>
      <point x="152.27" y="501.6380000000001" type="curve"/>
      <point x="157.85600000000002" y="536.2" type="line"/>
    </contour>
  </outline>
</glyph>
<glyph name="o" format="2">
  <advance width="395.15"/>
  <unicode hex="006F"/>
  <note>
8
</note>
  <anchor x="160.95" y="0.0" name="bottom"/>
  <anchor x="200.11999999999998" y="269.48" name="center"/>
  <anchor x="217.71" y="1.1400000000000001" name="ogonek"/>
  <anchor x="236.95" y="536.2" name="top"/>
  <anchor x="317.17" y="527.58" name="topright"/>
  <outline>
    <contour>
      <point x="166.66" y="-10.0" type="curve" smooth="yes"/>
      <point x="312.40000000000003" y="-10.0"/>
      <point x="371.3" y="217.90000000000003"/>
      <point x="371.3" y="387.89000000000004" type="curve" smooth="yes"/>
      <point x="371.3" y="500.18999999999994"/>
      <point x="321.54999999999995" y="546.32"/>
      <point x="226.85" y="546.32" type="curve" smooth="yes"/>
      <point x="79.82" y="546.32"/>
      <point x="20.97" y="312.94"/>
      <point x="20.97" y="147.74" type="curve" smooth="yes"/>
      <point x="20.97" y="35.68"/>
      <point x="69.22" y="-10.0"/>
    </contour>
    <contour>
      <point x="165.8" y="52.14" type="curve" smooth="yes"/>
      <point x="117.18" y="52.14"/>
      <point x="90.30999999999999" y="76.51"/>
      <point x="90.30999999999999" y="147.81" type="curve" smooth="yes"/>
      <point x="90.30999999999999" y="254.64000000000001"/>
      <point x="135.0" y="484.18"/>
      <point x="226.97" y="484.18" type="curve" smooth="yes"/>
      <point x="273.28000000000003" y="484.18"/>
      <point x="301.65000000000003" y="459.16999999999996"/>
      <point x="301.65000000000003" y="390.42" type="curve" smooth="yes"/>
      <point x="301.65000000000003" y="277.05999999999995"/>
      <point x="257.71999999999997" y="52.14"/>
    </contour>
  </outline>
</glyph>
<glyph name="p" format="2">
  <advance width="402.90500000000003"/>
  <unicode hex="0070"/>
  <note>
14 point
</note>
  <outline>
    <contour>
      <point x="-24.574" y="-210.0" type="line"/>
      <point x="45.489000000000004" y="-210.0" type="line"/>
      <point x="78.903" y="-0.06799999999999976" type="line"/>
      <point x="98.73299999999999" y="-5.414"/>
      <point x="122.251" y="-9.535000000000002"/>
      <point x="151.527" y="-9.535000000000002" type="curve" smooth="yes"/>
      <point x="297.05" y="-9.535000000000002"/>
      <point x="382.468" y="175.21"/>
      <point x="382.468" y="377.46900000000005" type="curve" smooth="yes"/>
      <point x="382.468" y="490.998"/>
      <point x="345.211" y="546.2"/>
      <point x="269.16400000000004" y="546.2" type="curve" smooth="yes"/>
      <point x="224.21899999999997" y="546.2"/>
      <point x="190.23600000000002" y="527.754"/>
      <point x="155.905" y="505.18500000000006" type="curve"/>
      <point x="156.82" y="541.72" type="line"/>
      <point x="93.77" y="541.72" type="line"/>
    </contour>
    <contour>
      <point x="144.981" y="51.073" type="curve" smooth="yes"/>
      <point x="123.19800000000001" y="51.073"/>
      <point x="104.02" y="54.833000000000006"/>
      <point x="88.723" y="60.438" type="curve"/>
      <point x="149.977" y="447.845" type="line"/>
      <point x="177.435" y="466.732"/>
      <point x="210.68699999999998" y="479.547"/>
      <point x="238.419" y="479.547" type="curve" smooth="yes"/>
      <point x="286.14" y="479.547"/>
      <point x="310.458" y="443.46500000000003"/>
      <point x="310.458" y="365.186" type="curve" smooth="yes"/>
      <point x="310.458" y="208.61499999999998"/>
      <point x="245.29999999999998" y="51.073"/>
    </contour>
  </outline>
</glyph>
<glyph name="q" format="2">
  <advance width="399.574"/>
  <unicode hex="0071"/>
  <note>
12
</note>
  <outline>
    <contour>
      <point x="388.13100000000003" y="524.894" type="line"/>
      <point x="353.619" y="535.7030000000001"/>
      <point x="307.325" y="546.2"/>
      <point x="259.375" y="546.2" type="curve" smooth="yes"/>
      <point x="89.10900000000001" y="546.2"/>
      <point x="18.522000000000006" y="322.86699999999996"/>
      <point x="18.522000000000006" y="145.19400000000002" type="curve" smooth="yes"/>
      <point x="18.522000000000006" y="41.977000000000004"/>
      <point x="63.55600000000001" y="-10.0"/>
      <point x="135.304" y="-10.0" type="curve" smooth="yes"/>
      <point x="174.463" y="-10.0"/>
      <point x="207.085" y="4.777"/>
      <point x="238.138" y="27.570999999999998" type="curve"/>
      <point x="199.361" y="-210.0" type="line"/>
      <point x="270.77" y="-210.0" type="line"/>
    </contour>
    <contour>
      <point x="309.161" y="475.2290000000001" type="curve"/>
      <point x="247.493" y="87.21700000000001" type="line"/>
      <point x="219.29399999999998" y="65.812"/>
      <point x="190.061" y="56.03300000000001"/>
      <point x="162.811" y="56.03300000000001" type="curve" smooth="yes"/>
      <point x="116.814" y="56.03300000000001"/>
      <point x="90.186" y="96.82399999999998"/>
      <point x="90.186" y="153.57700000000003" type="curve" smooth="yes"/>
      <point x="90.186" y="298.97200000000004"/>
      <point x="143.355" y="484.749"/>
      <point x="250.67800000000003" y="484.749" type="curve" smooth="yes"/>
      <point x="271.73500000000007" y="484.749"/>
      <point x="292.38" y="480.28200000000004"/>
    </contour>
  </outline>
</glyph>
<glyph name="r" format="2">
  <advance width="280.96999999999997"/>
  <unicode hex="0072"/>
  <anchor x="42.232" y="0.0" name="bottom"/>
  <anchor x="209.83" y="536.2" name="top"/>
  <outline>
    <contour>
      <point x="157.22199999999998" y="536.2" type="line"/>
      <point x="92.72800000000001" y="536.2" type="line"/>
      <point x="7.750000000000002" y="0.0" type="line"/>
      <point x="77.82400000000001" y="0.0" type="line"/>
      <point x="144.43599999999998" y="419.064" type="line"/>
      <point x="185.714" y="457.298"/>
      <point x="220.04000000000002" y="471.828"/>
      <point x="252.992" y="471.828" type="curve" smooth="yes"/>
      <point x="268.656" y="471.828"/>
      <point x="287.042" y="469.138"/>
      <point x="303.42800000000005" y="464.0" type="curve"/>
      <point x="326.09999999999997" y="536.814" type="line"/>
      <point x="310.184" y="543.296"/>
      <point x="291.61" y="546.2"/>
      <point x="271.374" y="546.2" type="curve" smooth="yes"/>
      <point x="232.088" y="546.2"/>
      <point x="192.738" y="526.716"/>
      <point x="148.746" y="484.718" type="curve"/>
    </contour>
  </outline>
</glyph>
<glyph name="s" format="2">
  <advance width="339.59000000000003"/>
  <unicode hex="0073"/>
  <anchor x="126.41" y="0.0" name="bottom"/>
  <anchor x="222.14" y="536.2" name="top"/>
  <outline>
    <contour>
      <point x="-15.700000000000001" y="16.53" type="line"/>
      <point x="20.43" y="0.55"/>
      <point x="65.15" y="-10.0"/>
      <point x="121.0" y="-10.0" type="curve" smooth="yes"/>
      <point x="238.08" y="-10.0"/>
      <point x="301.15" y="54.82"/>
      <point x="301.15" y="152.41" type="curve" smooth="yes"/>
      <point x="301.15" y="296.09"/>
      <point x="120.58" y="298.81"/>
      <point x="120.58" y="398.18" type="curve" smooth="yes"/>
      <point x="120.58" y="445.61"/>
      <point x="152.18" y="483.06"/>
      <point x="220.86999999999998" y="483.06" type="curve" smooth="yes"/>
      <point x="256.06" y="483.06"/>
      <point x="292.38" y="473.75"/>
      <point x="321.40999999999997" y="462.51" type="curve"/>
      <point x="341.19" y="523.72" type="line"/>
      <point x="313.66" y="536.77"/>
      <point x="270.89" y="546.2"/>
      <point x="227.47" y="546.2" type="curve" smooth="yes"/>
      <point x="106.54" y="546.2"/>
      <point x="51.86" y="474.48"/>
      <point x="51.86" y="391.12" type="curve" smooth="yes"/>
      <point x="51.86" y="241.58"/>
      <point x="232.04999999999998" y="246.31"/>
      <point x="232.04999999999998" y="142.85" type="curve" smooth="yes"/>
      <point x="232.04999999999998" y="93.9"/>
      <point x="197.69" y="52.52"/>
      <point x="125.30999999999999" y="52.52" type="curve" smooth="yes"/>
      <point x="83.24" y="52.52"/>
      <point x="37.3" y="63.379999999999995"/>
      <point x="5.51" y="77.5" type="curve"/>
    </contour>
  </outline>
</glyph>
<glyph name="t" format="2">
  <advance width="266.276"/>
  <unicode hex="0074"/>
  <anchor x="128.94000000000003" y="0.0" name="bottom"/>
  <anchor x="126.40399999999998" y="307.01599999999996" name="center"/>
  <anchor x="167.17000000000002" y="662.272" name="top"/>
  <anchor x="294.566" y="756.89" name="topright"/>
  <outline>
    <contour>
      <point x="226.646" y="67.19" type="line"/>
      <point x="205.948" y="61.244"/>
      <point x="186.64000000000001" y="57.112"/>
      <point x="169.036" y="57.112" type="curve" smooth="yes"/>
      <point x="128.116" y="57.112"/>
      <point x="112.498" y="77.65400000000001"/>
      <point x="112.498" y="114.912" type="curve" smooth="yes"/>
      <point x="112.498" y="125.65199999999999"/>
      <point x="113.988" y="137.32999999999998"/>
      <point x="115.816" y="150.974" type="curve" smooth="yes"/>
      <point x="167.63400000000001" y="475.068" type="line"/>
      <point x="292.522" y="475.068" type="line"/>
      <point x="302.962" y="536.2" type="line"/>
      <point x="177.888" y="536.2" type="line"/>
      <point x="197.66199999999998" y="662.272" type="line"/>
      <point x="138.13400000000001" y="662.272" type="line"/>
      <point x="107.55199999999999" y="536.2" type="line"/>
      <point x="42.054" y="529.332" type="line"/>
      <point x="32.599999999999994" y="475.316" type="line"/>
      <point x="96.926" y="475.316" type="line"/>
      <point x="44.426" y="145.208" type="line" smooth="yes"/>
      <point x="40.806000000000004" y="123.792"/>
      <point x="38.614" y="99.39999999999999"/>
      <point x="38.614" y="82.962" type="curve" smooth="yes"/>
      <point x="38.614" y="17.823999999999998"/>
      <point x="73.56" y="-10.0"/>
      <point x="133.244" y="-10.0" type="curve" smooth="yes"/>
      <point x="162.324" y="-10.0"/>
      <point x="193.264" y="-4.588000000000001"/>
      <point x="224.83999999999997" y="7.706000000000001" type="curve"/>
    </contour>
  </outline>
</glyph>
<glyph name="u" format="2">
  <advance width="403.78000000000003"/>
  <unicode hex="0075"/>
  <note>
15
</note>
  <anchor x="159.40599999999998" y="0.0" name="bottom"/>
  <anchor x="365.71999999999997" y="5.332000000000001" name="ogonek"/>
  <anchor x="239.02588800000004" y="536.2" name="top"/>
  <anchor x="381.348" y="536.2" name="topright"/>
  <outline>
    <contour>
      <point x="115.22600000000001" y="-10.0" type="curve" smooth="yes"/>
      <point x="162.02599999999998" y="-10.0"/>
      <point x="201.688" y="6.44"/>
      <point x="248.37199999999996" y="38.946" type="curve"/>
      <point x="254.306" y="7.126"/>
      <point x="277.23" y="-10.0"/>
      <point x="309.622" y="-10.0" type="curve" smooth="yes"/>
      <point x="325.558" y="-10.0"/>
      <point x="349.91" y="-3.9060000000000006"/>
      <point x="365.71999999999997" y="6.014" type="curve"/>
      <point x="367.878" y="61.1" type="line"/>
      <point x="357.772" y="57.154"/>
      <point x="347.438" y="55.084"/>
      <point x="341.926" y="55.084" type="curve" smooth="yes"/>
      <point x="324.942" y="55.084"/>
      <point x="318.472" y="64.838"/>
      <point x="318.472" y="82.69599999999998" type="curve" smooth="yes"/>
      <point x="318.472" y="92.18800000000002"/>
      <point x="320.576" y="110.4"/>
      <point x="388.788" y="536.2" type="curve"/>
      <point x="318.43800000000005" y="536.2" type="line"/>
      <point x="248.144" y="88.82799999999999" type="line"/>
      <point x="212.88999999999996" y="66.55799999999999"/>
      <point x="181.90800000000002" y="54.767999999999994"/>
      <point x="148.304" y="54.767999999999994" type="curve" smooth="yes"/>
      <point x="113.176" y="54.767999999999994"/>
      <point x="94.874" y="76.43"/>
      <point x="95.37" y="107.21" type="curve" smooth="yes"/>
      <point x="99.834" y="147.374"/>
      <point x="106.6" y="191.564"/>
      <point x="160.94599999999997" y="536.2" type="curve"/>
      <point x="90.486" y="536.2" type="line"/>
      <point x="41.52" y="220.57599999999996"/>
      <point x="21.624000000000002" y="119.176"/>
      <point x="21.624000000000002" y="77.10000000000001" type="curve" smooth="yes"/>
      <point x="21.624000000000002" y="24.863999999999997"/>
      <point x="54.814" y="-10.0"/>
    </contour>
  </outline>
</glyph>
<glyph name="v" format="2">
  <advance width="358.574"/>
  <unicode hex="0076"/>
  <outline>
    <contour>
      <point x="175.96800000000002" y="-2.008" type="line"/>
      <point x="313.79400000000004" y="308.398"/>
      <point x="373.116" y="408.09"/>
      <point x="376.902" y="536.2" type="curve"/>
      <point x="304.09" y="536.2" type="line"/>
      <point x="300.524" y="426.846"/>
      <point x="268.37800000000004" y="367.024"/>
      <point x="144.292" y="71.63999999999999" type="curve"/>
      <point x="120.666" y="537.58" type="line"/>
      <point x="46.614000000000004" y="536.514" type="line"/>
      <point x="89.12" y="-2.008" type="line"/>
    </contour>
  </outline>
</glyph>
<glyph name="w" format="2">
  <advance width="564.072"/>
  <unicode hex="0077"/>
  <note>
15
</note>
  <anchor x="247.584" y="0.0" name="bottom"/>
  <anchor x="312.18399999999997" y="536.2" name="top"/>
  <outline>
    <contour>
      <point x="397.916" y="0.0" type="line"/>
      <point x="532.788" y="326.192"/>
      <point x="575.02" y="413.224"/>
      <point x="580.0360000000001" y="536.2" type="curve"/>
      <point x="511.31600000000003" y="536.2" type="line"/>
      <point x="503.556" y="423.252"/>
      <point x="480.468" y="359.84"/>
      <point x="367.488" y="75.52000000000001" type="curve"/>
      <point x="355.656" y="503.832" type="line"/>
      <point x="276.372" y="503.832" type="line"/>
      <point x="226.944" y="358.04"/>
      <point x="178.516" y="217.70399999999998"/>
      <point x="128.34400000000002" y="74.516" type="curve"/>
      <point x="115.98" y="537.58" type="line"/>
      <point x="44.908" y="536.576" type="line"/>
      <point x="71.79999999999998" y="0.0" type="line"/>
      <point x="158.028" y="0.0" type="line"/>
      <point x="205.59599999999998" y="133.26000000000002"/>
      <point x="254.28399999999996" y="270.244"/>
      <point x="300.364" y="402.264" type="curve"/>
      <point x="315.90399999999994" y="0.0" type="line"/>
    </contour>
  </outline>
</glyph>
<glyph name="x" format="2">
  <advance width="368.35"/>
  <unicode hex="0078"/>
  <outline>
    <contour>
      <point x="313.47499999999997" y="536.2" type="line"/>
      <point x="304.595" y="464.54499999999996"/>
      <point x="277.805" y="401.24"/>
      <point x="200.22000000000003" y="315.585" type="curve"/>
      <point x="139.305" y="540.7700000000001" type="line"/>
      <point x="62.94" y="535.8900000000001" type="line"/>
      <point x="142.905" y="278.475" type="line"/>
      <point x="43.775" y="180.33500000000004"/>
      <point x="-5.535" y="91.44"/>
      <point x="-15.909999999999997" y="0.0" type="curve"/>
      <point x="57.699999999999996" y="0.0" type="line"/>
      <point x="67.96000000000001" y="80.87"/>
      <point x="104.86" y="147.875"/>
      <point x="178.51" y="226.76999999999998" type="curve"/>
      <point x="241.99499999999998" y="-2.4499999999999997" type="line"/>
      <point x="318.635" y="1.1549999999999998" type="line"/>
      <point x="234.705" y="266.275" type="line"/>
      <point x="337.68" y="367.94500000000005"/>
      <point x="377.985" y="468.53999999999996"/>
      <point x="386.34499999999997" y="536.2" type="curve"/>
    </contour>
  </outline>
</glyph>
<glyph name="y" format="2">
  <advance width="361.19"/>
  <unicode hex="0079"/>
  <anchor x="118.10000000000001" y="-210.0" name="bottom"/>
  <anchor x="211.06" y="536.2" name="top"/>
  <outline>
    <contour>
      <point x="310.56999999999994" y="541.72" type="line"/>
      <point x="289.84000000000003" y="373.03"/>
      <point x="226.61999999999998" y="214.25"/>
      <point x="159.37" y="65.57000000000001" type="curve"/>
      <point x="113.6" y="543.1" type="line"/>
      <point x="41.28" y="541.03" type="line"/>
      <point x="97.30000000000001" y="-1.38" type="line"/>
      <point x="122.69" y="-1.38" type="line"/>
      <point x="88.1" y="-74.67999999999999"/>
      <point x="49.1" y="-142.7"/>
      <point x="8.280000000000001" y="-209.31" type="curve"/>
      <point x="80.7" y="-216.9" type="line"/>
      <point x="214.39000000000001" y="20.179999999999996"/>
      <point x="353.63" y="309.59999999999997"/>
      <point x="381.58" y="539.65" type="curve"/>
    </contour>
  </outline>
</glyph>
<glyph name="z" format="2">
  <advance width="359.212"/>
  <unicode hex="007A"/>
  <anchor x="150.066" y="0.0" name="bottom"/>
  <anchor x="176.78199999999998" y="275.0" name="center"/>
  <anchor x="223.856" y="536.2" name="top"/>
  <outline>
    <contour>
      <point x="-10.72" y="0.0" type="line"/>
      <point x="306.496" y="0.0" type="line"/>
      <point x="316.378" y="62.519999999999996" type="line"/>
      <point x="80.298" y="62.519999999999996" type="line"/>
      <point x="362.404" y="476.10200000000003" type="line"/>
      <point x="373.522" y="536.2" type="line"/>
      <point x="79.718" y="536.2" type="line"/>
      <point x="69.526" y="473.184" type="line"/>
      <point x="282.318" y="473.184" type="line"/>
      <point x="-2.3960000000000004" y="56.75" type="line"/>
    </contour>
  </outline>
</glyph>
<glyph name="braceleft" format="2">
  <advance width="255.872"/>
  <unicode hex="007B"/>
  <outline>
    <contour>
      <point x="23.020000000000003" y="-108.53" type="curve" smooth="yes"/>
      <point x="23.020000000000003" y="-172.24"/>
      <point x="52.815999999999995" y="-210.0"/>
      <point x="107.998" y="-210.0" type="curve" smooth="yes"/>
      <point x="152.268" y="-210.0" type="line"/>
      <point x="162.336" y="-149.7" type="line"/>
      <point x="134.372" y="-149.7" type="line" smooth="yes"/>
      <point x="100.40599999999999" y="-149.7"/>
      <point x="87.114" y="-125.19"/>
      <point x="87.114" y="-90.004" type="curve" smooth="yes"/>
      <point x="87.114" y="10.363999999999999"/>
      <point x="154.57" y="97.698"/>
      <point x="154.57" y="196.044" type="curve" smooth="yes"/>
      <point x="154.57" y="226.44"/>
      <point x="147.676" y="254.464"/>
      <point x="121.576" y="269.83" type="curve"/>
      <point x="171.206" y="286.624"/>
      <point x="191.47" y="358.962"/>
      <point x="191.47" y="419.69" type="curve" smooth="yes"/>
      <point x="191.47" y="462.67"/>
      <point x="187.892" y="491.266"/>
      <point x="187.892" y="543.18" type="curve" smooth="yes"/>
      <point x="187.892" y="606.168"/>
      <point x="205.61999999999998" y="679.7"/>
      <point x="268.82" y="679.7" type="curve" smooth="yes"/>
      <point x="294.08" y="679.7" type="line"/>
      <point x="303.652" y="740.0" type="line"/>
      <point x="262.142" y="740.0" type="line" smooth="yes"/>
      <point x="158.98000000000002" y="740.0"/>
      <point x="125.83000000000001" y="635.308"/>
      <point x="125.83000000000001" y="535.918" type="curve" smooth="yes"/>
      <point x="125.83000000000001" y="485.608"/>
      <point x="130.09" y="454.026"/>
      <point x="130.09" y="419.356" type="curve" smooth="yes"/>
      <point x="130.09" y="367.54"/>
      <point x="120.082" y="301.46200000000005"/>
      <point x="76.476" y="301.46200000000005" type="curve" smooth="yes"/>
      <point x="62.352000000000004" y="301.46200000000005" type="line"/>
      <point x="52.532" y="239.744" type="line"/>
      <point x="65.69" y="239.744" type="line" smooth="yes"/>
      <point x="88.644" y="239.744"/>
      <point x="95.258" y="220.932"/>
      <point x="95.258" y="196.86" type="curve" smooth="yes"/>
      <point x="95.258" y="96.25200000000001"/>
      <point x="23.020000000000003" y="10.079999999999998"/>
    </contour>
  </outline>
</glyph>
<glyph name="bar" format="2">
  <advance width="161.692"/>
  <unicode hex="007C"/>
  <outline>
    <contour>
      <point x="193.05" y="790.2479999999999" type="line"/>
      <point x="132.58" y="790.2479999999999" type="line"/>
      <point x="-26.605999999999998" y="-210.0" type="line"/>
      <point x="34.05" y="-210.0" type="line"/>
    </contour>
  </outline>
</glyph>
<glyph name="braceright" format="2">
  <advance width="255.872"/>
  <unicode hex="007D"/>
  <outline>
    <contour>
      <point x="229.714" y="638.53" type="curve" smooth="yes"/>
      <point x="229.714" y="702.4879999999999"/>
      <point x="199.67000000000002" y="740.2479999999999"/>
      <point x="144.488" y="740.2479999999999" type="curve" smooth="yes"/>
      <point x="100.21799999999999" y="740.2479999999999" type="line"/>
      <point x="90.15" y="679.948" type="line"/>
      <point x="115.63400000000001" y="679.948" type="line" smooth="yes"/>
      <point x="149.84799999999998" y="679.948"/>
      <point x="163.388" y="655.1899999999999"/>
      <point x="163.388" y="620.004" type="curve" smooth="yes"/>
      <point x="163.388" y="519.14"/>
      <point x="95.932" y="441.734"/>
      <point x="95.932" y="338.17999999999995" type="curve" smooth="yes"/>
      <point x="95.932" y="308.528"/>
      <point x="102.578" y="280.504"/>
      <point x="129.174" y="265.38599999999997" type="curve"/>
      <point x="79.54400000000001" y="248.344"/>
      <point x="59.03200000000001" y="176.502"/>
      <point x="59.03200000000001" y="115.526" type="curve" smooth="yes"/>
      <point x="59.03200000000001" y="72.54599999999999"/>
      <point x="62.61" y="38.98199999999999"/>
      <point x="62.61" y="-12.436" type="curve" smooth="yes"/>
      <point x="62.61" y="-75.424"/>
      <point x="45.13" y="-149.452"/>
      <point x="-18.07" y="-149.452" type="curve" smooth="yes"/>
      <point x="-41.346000000000004" y="-149.452" type="line"/>
      <point x="-50.918" y="-210.0" type="line"/>
      <point x="-9.655999999999999" y="-210.0" type="line" smooth="yes"/>
      <point x="93.506" y="-210.0"/>
      <point x="126.656" y="-102.084"/>
      <point x="126.656" y="-10.63" type="curve" smooth="yes"/>
      <point x="126.656" y="46.376"/>
      <point x="122.39599999999999" y="83.918"/>
      <point x="122.39599999999999" y="116.852" type="curve" smooth="yes"/>
      <point x="122.39599999999999" y="168.172"/>
      <point x="132.9" y="233.754"/>
      <point x="176.01000000000002" y="233.754" type="curve" smooth="yes"/>
      <point x="190.134" y="233.754" type="line"/>
      <point x="199.954" y="295.224" type="line"/>
      <point x="186.796" y="295.224" type="line" smooth="yes"/>
      <point x="163.84199999999998" y="295.224"/>
      <point x="157.228" y="314.036"/>
      <point x="157.228" y="338.108" type="curve" smooth="yes"/>
      <point x="157.228" y="438.96400000000006"/>
      <point x="229.714" y="516.448"/>
    </contour>
  </outline>
</glyph>
<glyph name="asciitilde" format="2">
  <advance width="404.234"/>
  <unicode hex="007E"/>
  <outline>
    <contour>
      <point x="343.068" y="248.67000000000002" type="curve"/>
      <point x="353.63999999999993" y="317.242" type="line"/>
      <point x="330.636" y="292.38"/>
      <point x="310.102" y="279.916"/>
      <point x="284.69800000000004" y="279.916" type="curve" smooth="yes"/>
      <point x="220.93999999999997" y="279.916"/>
      <point x="202.902" y="381.74"/>
      <point x="139.18" y="381.74" type="curve" smooth="yes"/>
      <point x="109.07000000000001" y="381.74"/>
      <point x="84.86399999999999" y="365.738"/>
      <point x="69.432" y="348.25" type="curve"/>
      <point x="58.550000000000004" y="279.54" type="line"/>
      <point x="76.60799999999999" y="299.4"/>
      <point x="99.532" y="316.232"/>
      <point x="128.16" y="316.232" type="curve" smooth="yes"/>
      <point x="188.55200000000002" y="316.232"/>
      <point x="206.632" y="214.408"/>
      <point x="275.346" y="214.408" type="curve" smooth="yes"/>
      <point x="301.428" y="214.408"/>
      <point x="321.87800000000004" y="225.712"/>
    </contour>
  </outline>
</glyph>
<glyph name="cent" format="2">
  <advance width="449.952"/>
  <unicode hex="00A2"/>
  <outline>
    <contour>
      <point x="166.674" y="-105.186" type="line"/>
      <point x="226.64800000000002" y="-105.186" type="line"/>
      <point x="241.95800000000003" y="-7.815999999999999" type="line"/>
      <point x="280.118" y="-5.458"/>
      <point x="313.594" y="0.7420000000000004"/>
      <point x="335.71599999999995" y="8.443999999999999" type="curve"/>
      <point x="333.37" y="74.706" type="line"/>
      <point x="307.32" y="68.044"/>
      <point x="271.404" y="61.525999999999996"/>
      <point x="245.03000000000003" y="61.525999999999996" type="curve" smooth="yes"/>
      <point x="179.52800000000002" y="61.525999999999996"/>
      <point x="152.384" y="102.52"/>
      <point x="152.384" y="172.07000000000002" type="curve" smooth="yes"/>
      <point x="152.384" y="336.67599999999993"/>
      <point x="216.832" y="473.012"/>
      <point x="309.918" y="473.012" type="curve" smooth="yes"/>
      <point x="338.858" y="473.012"/>
      <point x="363.212" y="467.728"/>
      <point x="388.064" y="460.432" type="curve"/>
      <point x="410.488" y="530.416" type="line"/>
      <point x="386.64" y="537.4639999999999"/>
      <point x="362.854" y="542.988"/>
      <point x="332.82800000000003" y="544.4080000000001" type="curve"/>
      <point x="348.752" y="640.952" type="line"/>
      <point x="288.778" y="640.952" type="line"/>
      <point x="272.172" y="539.62" type="line"/>
      <point x="151.554" y="515.364"/>
      <point x="77.83200000000001" y="345.534"/>
      <point x="77.83200000000001" y="148.18999999999997" type="curve" smooth="yes"/>
      <point x="77.83200000000001" y="47.356"/>
      <point x="121.43800000000002" y="5.968"/>
      <point x="181.66600000000003" y="-4.474" type="curve"/>
    </contour>
  </outline>
</glyph>
<glyph name="sterling" format="2">
  <advance width="450.324"/>
  <unicode hex="00A3"/>
  <outline>
    <contour>
      <point x="36.06399999999999" y="0.0" type="line"/>
      <point x="349.72" y="0.0" type="line"/>
      <point x="359.84999999999997" y="65.57000000000001" type="line"/>
      <point x="130.56799999999998" y="65.57000000000001" type="line"/>
      <point x="188.78799999999998" y="132.77200000000002"/>
      <point x="224.98" y="196.004"/>
      <point x="224.98" y="290.80199999999996" type="curve" smooth="yes"/>
      <point x="224.98" y="348.28"/>
      <point x="203.53599999999997" y="402.21599999999995"/>
      <point x="203.53599999999997" y="460.238" type="curve" smooth="yes"/>
      <point x="203.53599999999997" y="588.004"/>
      <point x="268.732" y="639.622"/>
      <point x="333.92400000000004" y="639.622" type="curve" smooth="yes"/>
      <point x="367.29200000000003" y="639.622"/>
      <point x="397.4200000000001" y="634.552"/>
      <point x="430.326" y="621.096" type="curve"/>
      <point x="453.042" y="683.66" type="line"/>
      <point x="416.79" y="701.3739999999999"/>
      <point x="374.62" y="710.0"/>
      <point x="335.174" y="710.0" type="curve" smooth="yes"/>
      <point x="219.51" y="710.0"/>
      <point x="134.62" y="621.816"/>
      <point x="134.62" y="471.67800000000005" type="curve" smooth="yes"/>
      <point x="134.62" y="392.714"/>
      <point x="157.92999999999998" y="351.186"/>
      <point x="157.92999999999998" y="282.316" type="curve" smooth="yes"/>
      <point x="157.92999999999998" y="184.03799999999998"/>
      <point x="107.474" y="118.99799999999999"/>
      <point x="42.492000000000004" y="53.169999999999995" type="curve"/>
    </contour>
    <contour>
      <point x="74.75999999999999" y="336.164" type="line"/>
      <point x="362.502" y="336.316" type="line"/>
      <point x="370.46200000000005" y="390.50399999999996" type="line"/>
      <point x="83.03" y="390.50399999999996" type="line"/>
    </contour>
  </outline>
</glyph>
<glyph name="currency" format="2">
  <advance width="395.718"/>
  <unicode hex="00A4"/>
  <outline>
    <contour>
      <point x="48.78000000000001" y="107.172" type="line"/>
      <point x="122.42800000000001" y="176.716" type="line"/>
      <point x="136.962" y="162.29600000000002"/>
      <point x="157.11199999999997" y="154.644"/>
      <point x="181.09799999999998" y="154.644" type="curve" smooth="yes"/>
      <point x="204.574" y="154.644"/>
      <point x="227.43599999999998" y="162.434"/>
      <point x="246.848" y="176.53" type="curve"/>
      <point x="299.004" y="107.172" type="line"/>
      <point x="346.78200000000004" y="152.048" type="line"/>
      <point x="297.25" y="217.686" type="line"/>
      <point x="318.098" y="242.35199999999998"/>
      <point x="332.006" y="275.208"/>
      <point x="332.502" y="310.658" type="curve" smooth="yes"/>
      <point x="332.998" y="330.614"/>
      <point x="328.796" y="349.024"/>
      <point x="320.89599999999996" y="365.026" type="curve"/>
      <point x="390.838" y="430.664" type="line"/>
      <point x="357.47" y="475.53999999999996" type="line"/>
      <point x="284.05600000000004" y="406.926" type="line"/>
      <point x="268.984" y="421.16"/>
      <point x="248.49599999999998" y="429.75"/>
      <point x="224.71" y="429.75" type="curve" smooth="yes"/>
      <point x="200.47599999999997" y="429.75"/>
      <point x="177.318" y="420.912"/>
      <point x="157.53400000000002" y="406.74" type="curve"/>
      <point x="107.18400000000001" y="475.53999999999996" type="line"/>
      <point x="60.014" y="430.664" type="line"/>
      <point x="108.186" y="364.648" type="line"/>
      <point x="87.572" y="340.31199999999995"/>
      <point x="74.602" y="308.628"/>
      <point x="74.10600000000001" y="274.06" type="curve" smooth="yes"/>
      <point x="73.61000000000001" y="253.09"/>
      <point x="77.56400000000001" y="233.942"/>
      <point x="85.52600000000001" y="217.92600000000002" type="curve"/>
      <point x="15.895999999999999" y="152.048" type="line"/>
    </contour>
    <contour>
      <point x="189.81" y="205.024" type="curve" smooth="yes"/>
      <point x="150.10199999999998" y="205.024"/>
      <point x="122.872" y="235.786"/>
      <point x="123.61599999999999" y="277.64599999999996" type="curve" smooth="yes"/>
      <point x="124.36" y="332.83"/>
      <point x="169.466" y="379.122"/>
      <point x="216.874" y="379.122" type="curve" smooth="yes"/>
      <point x="257.196" y="379.122"/>
      <point x="283.62600000000003" y="347.63"/>
      <point x="282.882" y="305.914" type="curve" smooth="yes"/>
      <point x="282.138" y="250.6"/>
      <point x="237.92199999999997" y="205.024"/>
    </contour>
  </outline>
</glyph>
<glyph name="yen" format="2">
  <advance width="450.4"/>
  <unicode hex="00A5"/>
  <outline>
    <contour>
      <point x="88.44" y="334.62" type="line"/>
      <point x="200.03" y="334.62" type="line"/>
      <point x="185.08999999999997" y="242.58" type="line"/>
      <point x="74.69" y="242.58" type="line"/>
      <point x="66.35" y="193.51" type="line"/>
      <point x="177.44000000000003" y="193.51" type="line"/>
      <point x="146.99" y="0.0" type="line"/>
      <point x="219.24" y="0.0" type="line"/>
      <point x="250.0" y="193.51" type="line"/>
      <point x="364.47" y="193.51" type="line"/>
      <point x="371.81" y="242.58" type="line"/>
      <point x="257.34000000000003" y="242.58" type="line"/>
      <point x="272.28" y="334.62" type="line"/>
      <point x="386.37" y="334.62" type="line"/>
      <point x="394.4" y="383.26" type="line"/>
      <point x="281.12" y="383.26" type="line"/>
      <point x="462.89" y="699.62" type="line"/>
      <point x="388.3" y="705.52" type="line"/>
      <point x="253.60999999999999" y="439.95" type="line"/>
      <point x="197.48" y="702.07" type="line"/>
      <point x="122.01" y="699.12" type="line"/>
      <point x="207.68" y="383.26" type="line"/>
      <point x="96.78" y="383.26" type="line"/>
    </contour>
  </outline>
</glyph>
<glyph name="brokenbar" format="2">
  <advance width="163.48399999999998"/>
  <unicode hex="00A6"/>
  <outline>
    <contour>
      <point x="129.98000000000002" y="391.0" type="line"/>
      <point x="194.53799999999998" y="790.2479999999999" type="line"/>
      <point x="134.06799999999998" y="790.2479999999999" type="line"/>
      <point x="69.51" y="391.0" type="line"/>
    </contour>
    <contour>
      <point x="37.70400000000001" y="190.248" type="line"/>
      <point x="-26.054" y="-210.0" type="line"/>
      <point x="34.354000000000006" y="-210.0" type="line"/>
      <point x="98.36" y="190.248" type="line"/>
    </contour>
  </outline>
</glyph>
<glyph name="section" format="2">
  <advance width="411.354"/>
  <unicode hex="00A7"/>
  <outline>
    <contour>
      <point x="4.828" y="-107.648" type="curve"/>
      <point x="-25.858" y="-177.278" type="line"/>
      <point x="10.626" y="-206.06199999999998"/>
      <point x="53.328" y="-220.0"/>
      <point x="96.60000000000001" y="-220.0" type="curve" smooth="yes"/>
      <point x="246.45000000000002" y="-220.0"/>
      <point x="359.458" y="-51.376000000000005"/>
      <point x="359.458" y="141.804" type="curve" smooth="yes"/>
      <point x="359.458" y="306.828"/>
      <point x="264.626" y="418.83000000000004"/>
      <point x="264.626" y="557.986" type="curve" smooth="yes"/>
      <point x="264.626" y="623.144"/>
      <point x="293.286" y="671.6419999999999"/>
      <point x="340.776" y="671.6419999999999" type="curve" smooth="yes"/>
      <point x="356.292" y="671.6419999999999"/>
      <point x="369.06399999999996" y="666.828"/>
      <point x="384.762" y="659.2" type="curve"/>
      <point x="412.06" y="731.7139999999999" type="line"/>
      <point x="386.95199999999994" y="743.6320000000001"/>
      <point x="349.226" y="749.2479999999999"/>
      <point x="320.118" y="749.2479999999999" type="curve" smooth="yes"/>
      <point x="161.048" y="749.2479999999999"/>
      <point x="54.532000000000004" y="592.554"/>
      <point x="54.532000000000004" y="395.18" type="curve" smooth="yes"/>
      <point x="54.532000000000004" y="212.54"/>
      <point x="148.04199999999997" y="83.066"/>
      <point x="148.04199999999997" y="-42.25599999999999" type="curve" smooth="yes"/>
      <point x="148.04199999999997" y="-99.88799999999999"/>
      <point x="117.66000000000001" y="-142.386"/>
      <point x="75.73599999999999" y="-142.386" type="curve" smooth="yes"/>
      <point x="50.653999999999996" y="-142.386"/>
      <point x="24.824" y="-128.73000000000002"/>
    </contour>
    <contour>
      <point x="276.70599999999996" y="697.5459999999999" type="curve"/>
      <point x="232.782" y="666.048"/>
      <point x="212.782" y="607.414"/>
      <point x="212.782" y="551.314" type="curve" smooth="yes"/>
      <point x="212.782" y="394.998"/>
      <point x="304.50600000000003" y="285.65000000000003"/>
      <point x="304.50600000000003" y="123.294" type="curve" smooth="yes"/>
      <point x="304.50600000000003" y="-19.408"/>
      <point x="223.836" y="-161.262"/>
      <point x="121.50399999999999" y="-171.518" type="curve"/>
      <point x="176.612" y="-142.46"/>
      <point x="201.134" y="-82.37400000000001"/>
      <point x="201.134" y="-22.438" type="curve" smooth="yes"/>
      <point x="201.134" y="111.71600000000001"/>
      <point x="110.356" y="243.86999999999998"/>
      <point x="110.356" y="397.79" type="curve" smooth="yes"/>
      <point x="110.356" y="545.572"/>
      <point x="169.952" y="667.76"/>
    </contour>
  </outline>
</glyph>
<glyph name="copyright" format="2">
  <advance width="535.4440000000001"/>
  <unicode hex="00A9"/>
  <outline>
    <contour>
      <point x="238.108" y="-10.123999999999999" type="curve" smooth="yes"/>
      <point x="424.90399999999994" y="-10.372"/>
      <point x="513.332" y="236.424"/>
      <point x="513.332" y="476.08400000000006" type="curve" smooth="yes"/>
      <point x="513.332" y="625.5279999999999"/>
      <point x="449.068" y="710.6320000000001"/>
      <point x="322.208" y="710.8800000000001" type="curve" smooth="yes"/>
      <point x="135.904" y="711.128"/>
      <point x="45.864" y="465.572"/>
      <point x="45.864" y="224.796" type="curve" smooth="yes"/>
      <point x="45.864" y="75.724"/>
      <point x="109.88000000000001" y="-9.876"/>
    </contour>
    <contour>
      <point x="266.15600000000006" y="154.748" type="curve" smooth="yes"/>
      <point x="290.488" y="154.748"/>
      <point x="318.44" y="160.236"/>
      <point x="337.416" y="167.588" type="curve"/>
      <point x="335.548" y="212.0" type="line"/>
      <point x="320.06399999999996" y="206.88"/>
      <point x="297.564" y="203.50799999999998"/>
      <point x="279.936" y="203.50799999999998" type="curve" smooth="yes"/>
      <point x="242.54399999999998" y="203.50799999999998"/>
      <point x="221.16" y="232.148"/>
      <point x="221.16" y="278.52" type="curve" smooth="yes"/>
      <point x="221.16" y="382.73599999999993"/>
      <point x="262.83599999999996" y="485.108"/>
      <point x="321.24" y="485.108" type="curve" smooth="yes"/>
      <point x="339.73999999999995" y="485.108"/>
      <point x="354.86400000000003" y="483.36"/>
      <point x="371.61199999999997" y="477.85999999999996" type="curve"/>
      <point x="386.292" y="527.236" type="line"/>
      <point x="369.42" y="533.4799999999999"/>
      <point x="348.444" y="537.092"/>
      <point x="322.74399999999997" y="537.092" type="curve" smooth="yes"/>
      <point x="238.45999999999998" y="537.092"/>
      <point x="168.81199999999998" y="425.076"/>
      <point x="168.81199999999998" y="277.90399999999994" type="curve" smooth="yes"/>
      <point x="168.81199999999998" y="196.556"/>
      <point x="203.87199999999999" y="154.748"/>
    </contour>
    <contour>
      <point x="241.09199999999996" y="22.636" type="curve" smooth="yes"/>
      <point x="133.168" y="22.636"/>
      <point x="80.736" y="93.792"/>
      <point x="80.736" y="227.928" type="curve" smooth="yes"/>
      <point x="80.736" y="441.64"/>
      <point x="153.98000000000002" y="678.2439999999999"/>
      <point x="318.972" y="678.2439999999999" type="curve" smooth="yes"/>
      <point x="425.65599999999995" y="678.2439999999999"/>
      <point x="478.46" y="606.964"/>
      <point x="478.46" y="473.076" type="curve" smooth="yes"/>
      <point x="478.46" y="259.61199999999997"/>
      <point x="405.836" y="22.636"/>
    </contour>
  </outline>
</glyph>
<glyph name="ordfeminine" format="2">
  <advance width="285.208"/>
  <unicode hex="00AA"/>
  <outline>
    <contour>
      <point x="36.374" y="274.962" type="line"/>
      <point x="250.67000000000002" y="274.962" type="line"/>
      <point x="257.26599999999996" y="315.976" type="line"/>
      <point x="42.97" y="315.976" type="line"/>
    </contour>
    <component base="a.superior" xOffset="10.484"/>
  </outline>
</glyph>
<glyph name="logicalnot" format="2">
  <advance width="399.84000000000003"/>
  <unicode hex="00AC"/>
  <outline>
    <contour>
      <point x="59.102000000000004" y="357.14200000000005" type="line"/>
      <point x="303.28000000000003" y="357.14200000000005" type="line"/>
      <point x="275.192" y="175.946" type="line"/>
      <point x="337.826" y="175.946" type="line"/>
      <point x="376.292" y="419.472" type="line"/>
      <point x="69.48" y="419.472" type="line"/>
    </contour>
  </outline>
</glyph>
<glyph name="registered" format="2">
  <advance width="484.15999999999997"/>
  <unicode hex="00AE"/>
  <outline>
    <contour>
      <point x="239.31600000000003" y="208.75199999999998" type="curve" smooth="yes"/>
      <point x="392.76000000000005" y="208.75199999999998"/>
      <point x="495.91999999999996" y="423.1"/>
      <point x="495.91999999999996" y="684.8080000000001" type="curve" smooth="yes"/>
      <point x="495.91999999999996" y="818.268"/>
      <point x="439.78" y="893.752"/>
      <point x="331.596" y="893.752" type="curve" smooth="yes"/>
      <point x="178.15200000000002" y="893.752"/>
      <point x="76.11599999999999" y="678.9039999999999"/>
      <point x="76.11599999999999" y="417.69599999999997" type="curve" smooth="yes"/>
      <point x="76.11599999999999" y="284.36"/>
      <point x="131.00799999999998" y="208.75199999999998"/>
    </contour>
    <contour>
      <point x="241.30000000000004" y="238.76399999999998" type="curve" smooth="yes"/>
      <point x="152.176" y="238.76399999999998"/>
      <point x="107.87599999999999" y="305.04"/>
      <point x="107.87599999999999" y="418.08" type="curve" smooth="yes"/>
      <point x="107.87599999999999" y="659.4479999999999"/>
      <point x="196.21999999999997" y="863.3639999999999"/>
      <point x="329.736" y="863.3639999999999" type="curve" smooth="yes"/>
      <point x="418.86" y="863.3639999999999"/>
      <point x="464.15999999999997" y="797.464"/>
      <point x="464.15999999999997" y="683.924" type="curve" smooth="yes"/>
      <point x="464.15999999999997" y="442.556"/>
      <point x="374.692" y="238.76399999999998"/>
    </contour>
    <contour>
      <point x="177.38400000000001" y="388.512" type="line"/>
      <point x="224.268" y="388.512" type="line"/>
      <point x="245.15200000000002" y="517.9320000000001" type="line"/>
      <point x="258.44800000000004" y="516.5519999999999"/>
      <point x="270.348" y="515.048"/>
      <point x="288.40799999999996" y="515.8" type="curve"/>
      <point x="304.1" y="522.516" type="line"/>
      <point x="361.388" y="532.428"/>
      <point x="394.52" y="580.012"/>
      <point x="394.52" y="647.62" type="curve" smooth="yes"/>
      <point x="394.52" y="708.3199999999999"/>
      <point x="366.572" y="732.504"/>
      <point x="308.052" y="732.504" type="curve" smooth="yes"/>
      <point x="281.584" y="732.504"/>
      <point x="259.27200000000005" y="730.756"/>
      <point x="231.092" y="726.632" type="curve"/>
    </contour>
    <contour>
      <point x="282.70399999999995" y="553.8720000000001" type="curve" smooth="yes"/>
      <point x="271.29200000000003" y="553.8720000000001"/>
      <point x="262.39199999999994" y="555.124"/>
      <point x="251.12400000000002" y="556.0" type="curve"/>
      <point x="271.50800000000004" y="687.7040000000001" type="line"/>
      <point x="286.396" y="689.7080000000001"/>
      <point x="292.78" y="690.7080000000001"/>
      <point x="306.93199999999996" y="690.7080000000001" type="curve" smooth="yes"/>
      <point x="336.236" y="690.7080000000001"/>
      <point x="348.26399999999995" y="676.6959999999999"/>
      <point x="348.26399999999995" y="646.14" type="curve" smooth="yes"/>
      <point x="348.26399999999995" y="589.3439999999999"/>
      <point x="326.37199999999996" y="553.8720000000001"/>
    </contour>
    <contour>
      <point x="356.528" y="385.02" type="curve" smooth="yes"/>
      <point x="359.76800000000003" y="385.02"/>
      <point x="366.736" y="386.01599999999996"/>
      <point x="370.848" y="387.76" type="curve"/>
      <point x="376.316" y="435.512" type="line"/>
      <point x="374.068" y="434.508"/>
      <point x="372.068" y="434.508"/>
      <point x="370.69599999999997" y="434.508" type="curve" smooth="yes"/>
      <point x="353.07599999999996" y="434.508"/>
      <point x="337.9719999999999" y="463.804"/>
      <point x="323.83199999999994" y="539.332" type="curve"/>
      <point x="280.55199999999996" y="528.148" type="line"/>
      <point x="304.38" y="406.15999999999997"/>
      <point x="325.336" y="385.02"/>
    </contour>
  </outline>
</glyph>
<glyph name="degree" format="2">
  <advance width="248.18"/>
  <unicode hex="00B0"/>
  <outline>
    <contour>
      <point x="155.56" y="470.276" type="curve" smooth="yes"/>
      <point x="228.276" y="470.276"/>
      <point x="272.87199999999996" y="549.068"/>
      <point x="272.87199999999996" y="627.044" type="curve" smooth="yes"/>
      <point x="272.87199999999996" y="680.656"/>
      <point x="248.42000000000002" y="722.2959999999999"/>
      <point x="194.188" y="722.2959999999999" type="curve" smooth="yes"/>
      <point x="120.816" y="722.2959999999999"/>
      <point x="76.752" y="641.716"/>
      <point x="76.752" y="564.016" type="curve" smooth="yes"/>
      <point x="76.752" y="510.716"/>
      <point x="101.768" y="470.276"/>
    </contour>
    <contour>
      <point x="163.52" y="525.244" type="curve" smooth="yes"/>
      <point x="137.824" y="525.244"/>
      <point x="125.70400000000001" y="545.856"/>
      <point x="125.70400000000001" y="574.7239999999999" type="curve" smooth="yes"/>
      <point x="125.70400000000001" y="621.08"/>
      <point x="148.904" y="666.336"/>
      <point x="185.85599999999997" y="666.336" type="curve" smooth="yes"/>
      <point x="212.152" y="666.336"/>
      <point x="223.996" y="644.544"/>
      <point x="223.996" y="615.7239999999999" type="curve" smooth="yes"/>
      <point x="223.996" y="569.54"/>
      <point x="200.34800000000004" y="525.244"/>
    </contour>
  </outline>
</glyph>
<glyph name="plusminus" format="2">
  <advance width="401.068"/>
  <unicode hex="00B1"/>
  <outline>
    <contour>
      <point x="320.80400000000003" y="50.998000000000005" type="line"/>
      <point x="331.182" y="116.36" type="line"/>
      <point x="206.70199999999997" y="116.36" type="line"/>
      <point x="233.612" y="285.236" type="line"/>
      <point x="357.54" y="285.236" type="line"/>
      <point x="367.91800000000006" y="350.598" type="line"/>
      <point x="243.99" y="350.598" type="line"/>
      <point x="271.472" y="510.63000000000005" type="line"/>
      <point x="208.59" y="510.63000000000005" type="line"/>
      <point x="181.536" y="350.598" type="line"/>
      <point x="56.690000000000005" y="350.598" type="line"/>
      <point x="46.312" y="285.236" type="line"/>
      <point x="170.73" y="285.236" type="line"/>
      <point x="143.696" y="116.36" type="line"/>
      <point x="19.954" y="116.36" type="line"/>
      <point x="9.576000000000002" y="50.998000000000005" type="line"/>
    </contour>
  </outline>
</glyph>
<glyph name="uni00B2" format="2">
  <advance width="281.59"/>
  <unicode hex="00B2"/>
  <outline>
    <contour>
      <point x="51.68" y="368.244" type="line"/>
      <point x="256.53799999999995" y="368.244" type="line"/>
      <point x="262.564" y="407.25399999999996" type="line"/>
      <point x="119.44800000000001" y="407.25399999999996" type="line"/>
      <point x="202.174" y="502.296"/>
      <point x="281.358" y="598.4079999999999"/>
      <point x="281.358" y="695.436" type="curve" smooth="yes"/>
      <point x="281.358" y="744.644"/>
      <point x="252.302" y="772.934"/>
      <point x="204.424" y="772.934" type="curve" smooth="yes"/>
      <point x="170.29" y="772.934"/>
      <point x="134.102" y="760.1320000000001"/>
      <point x="105.82000000000001" y="737.756" type="curve"/>
      <point x="118.478" y="696.368" type="line"/>
      <point x="143.738" y="715.144"/>
      <point x="163.738" y="722.644"/>
      <point x="186.37" y="722.644" type="curve" smooth="yes"/>
      <point x="213.274" y="722.644"/>
      <point x="227.35199999999998" y="704.558"/>
      <point x="227.35199999999998" y="674.634" type="curve" smooth="yes"/>
      <point x="226.6" y="597.0799999999999"/>
      <point x="142.968" y="490.40000000000003"/>
      <point x="55.458" y="401.83599999999996" type="curve"/>
    </contour>
  </outline>
</glyph>
<glyph name="uni00B3" format="2">
  <advance width="286.305"/>
  <unicode hex="00B3"/>
  <outline>
    <contour>
      <point x="43.14" y="396.105" type="line"/>
      <point x="67.515" y="374.65500000000003"/>
      <point x="100.68499999999999" y="364.31"/>
      <point x="137.54" y="364.31" type="curve" smooth="yes"/>
      <point x="220.57500000000002" y="364.31"/>
      <point x="278.195" y="421.66499999999996"/>
      <point x="278.195" y="504.675" type="curve" smooth="yes"/>
      <point x="278.195" y="542.845"/>
      <point x="261.21500000000003" y="568.83"/>
      <point x="236.94" y="578.035" type="curve"/>
      <point x="271.09000000000003" y="595.635"/>
      <point x="297.45" y="634.76"/>
      <point x="297.45" y="687.38" type="curve" smooth="yes"/>
      <point x="297.45" y="741.035"/>
      <point x="261.09499999999997" y="773.775"/>
      <point x="202.60500000000002" y="773.775" type="curve" smooth="yes"/>
      <point x="170.20000000000002" y="773.775"/>
      <point x="137.295" y="766.2950000000001"/>
      <point x="108.9" y="749.175" type="curve"/>
      <point x="119.14" y="712.925" type="line"/>
      <point x="140.86499999999998" y="723.9100000000001"/>
      <point x="166.035" y="728.91"/>
      <point x="188.46499999999997" y="728.91" type="curve" smooth="yes"/>
      <point x="224.57" y="728.91"/>
      <point x="246.97" y="709.2850000000001"/>
      <point x="246.97" y="672.515" type="curve" smooth="yes"/>
      <point x="246.97" y="627.07"/>
      <point x="218.38" y="594.06"/>
      <point x="181.81" y="594.06" type="curve" smooth="yes"/>
      <point x="135.79000000000002" y="594.06" type="line"/>
      <point x="129.76" y="558.6" type="line"/>
      <point x="176.125" y="558.6" type="line" smooth="yes"/>
      <point x="212.82999999999998" y="558.6"/>
      <point x="231.35" y="540.425"/>
      <point x="231.35" y="503.34499999999997" type="curve" smooth="yes"/>
      <point x="231.35" y="453.02"/>
      <point x="198.845" y="407.47"/>
      <point x="136.73" y="407.47" type="curve" smooth="yes"/>
      <point x="109.19500000000001" y="407.47"/>
      <point x="86.23" y="415.575"/>
      <point x="66.8" y="432.13" type="curve"/>
    </contour>
  </outline>
</glyph>
<glyph name="uni00B5" format="2">
  <advance width="406.146"/>
  <unicode hex="00B5"/>
  <outline>
    <contour>
      <point x="-24.194" y="-210.0" type="line"/>
      <point x="45.59" y="-210.0" type="line"/>
      <point x="81.93" y="19.242" type="line"/>
      <point x="90.11200000000001" y="-0.14000000000000012"/>
      <point x="108.32" y="-10.0"/>
      <point x="134.642" y="-10.0" type="curve" smooth="yes"/>
      <point x="174.374" y="-10.0"/>
      <point x="211.37" y="4.704000000000001"/>
      <point x="252.97" y="35.97" type="curve"/>
      <point x="258.904" y="6.63"/>
      <point x="280.836" y="-10.0"/>
      <point x="311.988" y="-10.0" type="curve" smooth="yes"/>
      <point x="327.924" y="-10.0"/>
      <point x="352.276" y="-3.9060000000000006"/>
      <point x="368.086" y="6.014" type="curve"/>
      <point x="370.24399999999997" y="61.1" type="line"/>
      <point x="360.13800000000003" y="57.154"/>
      <point x="349.80400000000003" y="55.084"/>
      <point x="344.292" y="55.084" type="curve" smooth="yes"/>
      <point x="327.30800000000005" y="55.084"/>
      <point x="320.838" y="64.838"/>
      <point x="320.838" y="82.69599999999998" type="curve" smooth="yes"/>
      <point x="320.838" y="92.18800000000002"/>
      <point x="322.942" y="110.4"/>
      <point x="391.154" y="536.2" type="curve"/>
      <point x="320.804" y="536.2" type="line"/>
      <point x="250.51000000000002" y="88.82799999999999" type="line"/>
      <point x="215.25600000000003" y="66.55799999999999"/>
      <point x="179.858" y="54.767999999999994"/>
      <point x="149.566" y="54.767999999999994" type="curve" smooth="yes"/>
      <point x="114.438" y="54.767999999999994"/>
      <point x="96.688" y="73.67"/>
      <point x="97.184" y="104.45" type="curve" smooth="yes"/>
      <point x="102.888" y="146.82199999999997"/>
      <point x="120.558" y="266.63599999999997"/>
      <point x="163.31199999999998" y="536.2" type="curve"/>
      <point x="92.852" y="536.2" type="line"/>
    </contour>
  </outline>
</glyph>
<glyph name="paragraph" format="2">
  <advance width="474.608"/>
  <unicode hex="00B6"/>
  <outline>
    <contour>
      <point x="288.772" y="-210.0" type="line"/>
      <point x="344.778" y="-210.0" type="line"/>
      <point x="495.58400000000006" y="740.0" type="line"/>
      <point x="439.57800000000003" y="740.0" type="line"/>
    </contour>
    <contour>
      <point x="192.42" y="250.18200000000002" type="line"/>
      <point x="143.292" y="260.716"/>
      <point x="114.40199999999999" y="310.31399999999996"/>
      <point x="114.40199999999999" y="385.54400000000004" type="curve" smooth="yes"/>
      <point x="114.40199999999999" y="530.082"/>
      <point x="176.90200000000002" y="670.8860000000001"/>
      <point x="295.90599999999995" y="675.1080000000001" type="curve"/>
      <point x="155.912" y="-210.0" type="line"/>
      <point x="211.91799999999998" y="-210.0" type="line"/>
      <point x="362.724" y="740.0" type="line"/>
      <point x="325.144" y="740.0" type="line" smooth="yes"/>
      <point x="150.57000000000002" y="740.0"/>
      <point x="52.29200000000001" y="574.1679999999999"/>
      <point x="52.29200000000001" y="381.616" type="curve" smooth="yes"/>
      <point x="52.29200000000001" y="283.57399999999996"/>
      <point x="94.062" y="215.80200000000002"/>
      <point x="176.88" y="198.40399999999997" type="curve"/>
    </contour>
  </outline>
</glyph>
<glyph name="periodcentered" format="2">
  <advance width="150.65"/>
  <unicode hex="00B7"/>
  <outline>
    <contour>
      <point x="36.70900000000001" y="286.933" type="curve" smooth="yes"/>
      <point x="35.405" y="261.22299999999996"/>
      <point x="44.538" y="250.935"/>
      <point x="71.111" y="250.935" type="curve" smooth="yes"/>
      <point x="107.902" y="250.935"/>
      <point x="118.977" y="277.975"/>
      <point x="120.43299999999999" y="311.712" type="curve" smooth="yes"/>
      <point x="121.737" y="336.653"/>
      <point x="112.75299999999999" y="347.4"/>
      <point x="86.645" y="347.4" type="curve" smooth="yes"/>
      <point x="50.629000000000005" y="347.4"/>
      <point x="38.165000000000006" y="320.36"/>
    </contour>
  </outline>
</glyph>
<glyph name="uni00B9" format="2">
  <advance width="272.43399999999997"/>
  <unicode hex="00B9"/>
  <outline>
    <contour>
      <point x="43.732" y="370.0" type="line"/>
      <point x="264.176" y="370.0" type="line"/>
      <point x="271.012" y="411.29" type="line"/>
      <point x="191.704" y="411.29" type="line"/>
      <point x="250.29999999999998" y="768.856" type="line"/>
      <point x="222.884" y="768.856" type="line"/>
      <point x="93.912" y="701.898" type="line"/>
      <point x="99.968" y="657.924" type="line"/>
      <point x="190.088" y="707.5759999999999" type="line"/>
      <point x="141.658" y="411.29" type="line"/>
      <point x="50.486000000000004" y="411.29" type="line"/>
    </contour>
  </outline>
</glyph>
<glyph name="ordmasculine" format="2">
  <advance width="270.006"/>
  <unicode hex="00BA"/>
  <outline>
    <contour>
      <point x="35.394" y="274.962" type="line"/>
      <point x="231.76799999999997" y="274.962" type="line"/>
      <point x="237.81199999999998" y="315.976" type="line"/>
      <point x="41.438" y="315.976" type="line"/>
    </contour>
    <component base="o.superior" xOffset="13.52"/>
  </outline>
</glyph>
<glyph name="AE" format="2">
  <advance width="637.111"/>
  <unicode hex="00C6"/>
  <anchor x="286.416564" y="0.0" name="bottom"/>
  <anchor x="407.20099999999996" y="700.0" name="top"/>
  <outline>
    <contour>
      <point x="254.519" y="0.0" type="line"/>
      <point x="573.6579999999999" y="0.0" type="line"/>
      <point x="584.0980000000001" y="66.58499999999998" type="line"/>
      <point x="334.954" y="66.58499999999998" type="line"/>
      <point x="374.1069999999999" y="315.768" type="line"/>
      <point x="588.3239999999998" y="315.768" type="line"/>
      <point x="599.0740000000002" y="380.803" type="line"/>
      <point x="384.70199999999994" y="380.803" type="line"/>
      <point x="424.46" y="632.64" type="line"/>
      <point x="661.066" y="632.64" type="line"/>
      <point x="672.585" y="700.0" type="line"/>
      <point x="316.553" y="700.0" type="line"/>
      <point x="-39.017999999999994" y="0.0" type="line"/>
      <point x="40.253" y="0.0" type="line"/>
      <point x="175.43099999999998" y="264.92800000000005" type="line"/>
      <point x="295.7419999999999" y="264.92800000000005" type="line"/>
    </contour>
    <contour>
      <point x="204.02799999999996" y="329.033" type="line"/>
      <point x="354.16099999999994" y="637.6179999999999" type="line"/>
      <point x="305.872" y="329.033" type="line"/>
    </contour>
  </outline>
</glyph>
<glyph name="multiply" format="2">
  <advance width="380.548"/>
  <unicode hex="00D7"/>
  <outline>
    <contour>
      <point x="65.19200000000001" y="98.54499999999999" type="line"/>
      <point x="187.76500000000001" y="253.202" type="line"/>
      <point x="259.106" y="99.00099999999999" type="line"/>
      <point x="309.4309999999999" y="144.031" type="line"/>
      <point x="235.95" y="302.649" type="line"/>
      <point x="363.104" y="464.501" type="line"/>
      <point x="324.85400000000004" y="508.98699999999997" type="line"/>
      <point x="202.451" y="353.722" type="line"/>
      <point x="129.48999999999998" y="508.98699999999997" type="line"/>
      <point x="79.00999999999999" y="464.57699999999994" type="line"/>
      <point x="153.497" y="304.11400000000003" type="line"/>
      <point x="26.787000000000003" y="142.721" type="line"/>
    </contour>
  </outline>
</glyph>
<glyph name="Oslash" format="2">
  <advance width="490.9"/>
  <unicode hex="00D8"/>
  <anchor x="304.02000000000004" y="700.0" name="top"/>
  <outline>
    <contour>
      <point x="519.74" y="710.0" type="line"/>
      <point x="459.92" y="710.0" type="line"/>
      <point x="403.87" y="628.92" type="line"/>
      <point x="401.13" y="629.54" type="line"/>
      <point x="83.21" y="124.32" type="line"/>
      <point x="80.77999999999999" y="125.25" type="line"/>
      <point x="-7.920000000000001" y="-6.9" type="line"/>
      <point x="52.02" y="-6.9" type="line"/>
      <point x="106.78" y="72.34" type="line"/>
      <point x="109.52" y="71.72" type="line"/>
      <point x="429.18" y="579.5400000000001" type="line"/>
      <point x="431.61" y="578.61" type="line"/>
    </contour>
    <contour>
      <point x="212.5" y="-9.38" type="curve" smooth="yes"/>
      <point x="385.89" y="-9.38"/>
      <point x="478.07" y="247.83"/>
      <point x="478.07" y="484.61999999999995" type="curve" smooth="yes"/>
      <point x="478.07" y="635.25"/>
      <point x="418.44" y="709.38"/>
      <point x="299.81999999999994" y="709.38" type="curve" smooth="yes"/>
      <point x="127.97999999999999" y="709.38"/>
      <point x="34.25" y="452.47999999999996"/>
      <point x="34.25" y="215.38" type="curve" smooth="yes"/>
      <point x="34.25" y="64.44000000000001"/>
      <point x="93.88000000000001" y="-9.38"/>
    </contour>
    <contour>
      <point x="217.46" y="56.36" type="curve" smooth="yes"/>
      <point x="147.79999999999998" y="56.36"/>
      <point x="105.95" y="102.74"/>
      <point x="105.95" y="210.37" type="curve" smooth="yes"/>
      <point x="105.95" y="408.57"/>
      <point x="180.94" y="643.64"/>
      <point x="296.72" y="643.64" type="curve" smooth="yes"/>
      <point x="365.14" y="643.64"/>
      <point x="406.67999999999995" y="597.57"/>
      <point x="406.67999999999995" y="490.25" type="curve" smooth="yes"/>
      <point x="406.67999999999995" y="299.49"/>
      <point x="332.0" y="56.36"/>
    </contour>
  </outline>
</glyph>
<glyph name="Thorn" format="2">
  <advance width="437.19"/>
  <unicode hex="00DE"/>
  <outline>
    <contour>
      <point x="8.7" y="0.0" type="line"/>
      <point x="80.55499999999999" y="0.0" type="line"/>
      <point x="104.94000000000001" y="151.57" type="line"/>
      <point x="141.33499999999998" y="149.295"/>
      <point x="167.085" y="149.14"/>
      <point x="201.625" y="149.14" type="curve" smooth="yes"/>
      <point x="347.625" y="149.14"/>
      <point x="435.445" y="260.23"/>
      <point x="435.445" y="447.91" type="curve" smooth="yes"/>
      <point x="435.445" y="556.1899999999999"/>
      <point x="384.415" y="614.9399999999999"/>
      <point x="257.09" y="614.9399999999999" type="curve" smooth="yes"/>
      <point x="238.77499999999998" y="614.9399999999999"/>
      <point x="215.61499999999998" y="614.095"/>
      <point x="177.38" y="611.6800000000001" type="curve"/>
      <point x="191.48499999999999" y="700.0" type="line"/>
      <point x="119.63" y="700.0" type="line"/>
    </contour>
    <contour>
      <point x="197.455" y="213.21" type="curve" smooth="yes"/>
      <point x="162.57999999999998" y="213.21"/>
      <point x="144.385" y="213.9"/>
      <point x="115.84500000000001" y="216.055" type="curve"/>
      <point x="167.47500000000002" y="546.1450000000001" type="line"/>
      <point x="209.19" y="549.68"/>
      <point x="228.8" y="550.68"/>
      <point x="250.06" y="550.68" type="curve" smooth="yes"/>
      <point x="330.27000000000004" y="550.68"/>
      <point x="363.745" y="514.485"/>
      <point x="363.745" y="439.19" type="curve" smooth="yes"/>
      <point x="363.745" y="299.1"/>
      <point x="304.785" y="213.21"/>
    </contour>
  </outline>
</glyph>
<glyph name="germandbls" format="2">
  <advance width="478.705"/>
  <unicode hex="00DF"/>
  <outline>
    <contour>
      <point x="23.47" y="-42.13" type="line" smooth="yes"/>
      <point x="12.139999999999999" y="-111.80000000000001"/>
      <point x="-7.3450000000000015" y="-154.435"/>
      <point x="-53.91" y="-154.435" type="curve" smooth="yes"/>
      <point x="-66.89500000000001" y="-154.435"/>
      <point x="-79.0" y="-152.74499999999998"/>
      <point x="-95.605" y="-147.365" type="curve"/>
      <point x="-113.09" y="-208.125" type="line"/>
      <point x="-92.355" y="-216.45"/>
      <point x="-68.515" y="-220.0"/>
      <point x="-44.970000000000006" y="-220.0" type="curve" smooth="yes"/>
      <point x="35.495000000000005" y="-220.0"/>
      <point x="75.14" y="-161.10999999999999"/>
      <point x="92.77499999999999" y="-48.834999999999994" type="curve" smooth="yes"/>
      <point x="183.195" y="523.515" type="line" smooth="yes"/>
      <point x="199.97500000000002" y="628.125"/>
      <point x="242.285" y="685.155"/>
      <point x="322.275" y="685.155" type="curve" smooth="yes"/>
      <point x="369.52" y="685.155"/>
      <point x="394.765" y="667.46"/>
      <point x="394.765" y="629.155" type="curve" smooth="yes"/>
      <point x="394.765" y="591.0400000000001"/>
      <point x="376.865" y="566.965"/>
      <point x="319.395" y="531.715" type="curve" smooth="yes"/>
      <point x="250.81" y="490.07"/>
      <point x="217.07500000000002" y="450.385"/>
      <point x="217.07500000000002" y="378.17" type="curve" smooth="yes"/>
      <point x="217.07500000000002" y="316.63"/>
      <point x="252.19000000000003" y="277.975"/>
      <point x="316.17" y="238.11999999999998" type="curve" smooth="yes"/>
      <point x="368.86" y="205.49"/>
      <point x="386.845" y="183.725"/>
      <point x="386.845" y="147.4" type="curve" smooth="yes"/>
      <point x="386.845" y="93.82999999999998"/>
      <point x="341.3" y="53.365"/>
      <point x="276.405" y="53.365" type="curve" smooth="yes"/>
      <point x="239.2" y="53.365"/>
      <point x="196.945" y="62.245"/>
      <point x="163.74" y="75.47" type="curve"/>
      <point x="144.975" y="16.895" type="line"/>
      <point x="180.07500000000002" y="0.7399999999999999"/>
      <point x="227.02" y="-10.0"/>
      <point x="274.44" y="-10.0" type="curve" smooth="yes"/>
      <point x="390.64000000000004" y="-10.0"/>
      <point x="457.495" y="54.085"/>
      <point x="457.495" y="155.585" type="curve" smooth="yes"/>
      <point x="457.495" y="215.10999999999999"/>
      <point x="428.88" y="251.95"/>
      <point x="366.295" y="292.03000000000003" type="curve" smooth="yes"/>
      <point x="305.65999999999997" y="331.53999999999996"/>
      <point x="284.71" y="351.635"/>
      <point x="284.71" y="387.56" type="curve" smooth="yes"/>
      <point x="284.71" y="427.315"/>
      <point x="306.42" y="450.53000000000003"/>
      <point x="369.935" y="489.28" type="curve" smooth="yes"/>
      <point x="437.76500000000004" y="531.0500000000001"/>
      <point x="465.49999999999994" y="567.355"/>
      <point x="465.49999999999994" y="635.7900000000001" type="curve" smooth="yes"/>
      <point x="465.49999999999994" y="710.53"/>
      <point x="413.76" y="750.0"/>
      <point x="326.89000000000004" y="750.0" type="curve" smooth="yes"/>
      <point x="199.73499999999999" y="750.0"/>
      <point x="137.595" y="677.625"/>
      <point x="114.63" y="533.695" type="curve" smooth="yes"/>
      <point x="108.8" y="495.31499999999994" type="line"/>
      <point x="42.395" y="487.72999999999996" type="line"/>
      <point x="32.765" y="433.18999999999994" type="line"/>
      <point x="98.10000000000001" y="433.18999999999994" type="line"/>
    </contour>
  </outline>
</glyph>
<glyph name="ae" format="2">
  <advance width="630.2500000000001"/>
  <unicode hex="00E6"/>
  <anchor x="281.86" y="0.0" name="bottom"/>
  <anchor x="358.01" y="536.2" name="top"/>
  <outline>
    <contour>
      <point x="138.61999999999998" y="-10.0" type="curve" smooth="yes"/>
      <point x="177.76" y="-10.0"/>
      <point x="212.71" y="3.45"/>
      <point x="241.0" y="27.03" type="curve"/>
      <point x="235.38" y="-4.95" type="line"/>
      <point x="300.81000000000006" y="-4.95" type="line"/>
      <point x="316.48999999999995" y="92.01" type="line"/>
      <point x="332.74" y="29.6"/>
      <point x="378.81" y="-9.38"/>
      <point x="446.96" y="-9.38" type="curve" smooth="yes"/>
      <point x="491.58" y="-9.38"/>
      <point x="540.65" y="1.0000000000000002"/>
      <point x="577.44" y="20.79" type="curve"/>
      <point x="566.72" y="81.12" type="line"/>
      <point x="527.22" y="64.12"/>
      <point x="490.79999999999995" y="54.93"/>
      <point x="452.87" y="54.93" type="curve" smooth="yes"/>
      <point x="382.81" y="54.93"/>
      <point x="339.98" y="107.63"/>
      <point x="339.98" y="192.72" type="curve" smooth="yes"/>
      <point x="339.98" y="354.61"/>
      <point x="404.5" y="485.3"/>
      <point x="498.17999999999995" y="485.3" type="curve" smooth="yes"/>
      <point x="541.42" y="485.3"/>
      <point x="561.72" y="466.17"/>
      <point x="561.72" y="428.92" type="curve" smooth="yes"/>
      <point x="561.72" y="371.39"/>
      <point x="511.61999999999995" y="323.89"/>
      <point x="430.86" y="297.91999999999996" type="curve" smooth="yes"/>
      <point x="396.79999999999995" y="286.4"/>
      <point x="359.98" y="280.83000000000004"/>
      <point x="323.87" y="280.26" type="curve"/>
      <point x="316.79" y="227.85" type="line"/>
      <point x="356.41" y="227.61"/>
      <point x="402.74" y="232.98999999999998"/>
      <point x="445.16999999999996" y="246.06" type="curve" smooth="yes"/>
      <point x="558.89" y="277.63"/>
      <point x="630.25" y="349.78000000000003"/>
      <point x="630.25" y="440.53000000000003" type="curve" smooth="yes"/>
      <point x="630.25" y="505.64"/>
      <point x="591.27" y="546.2"/>
      <point x="521.5699999999999" y="546.2" type="curve" smooth="yes"/>
      <point x="459.8" y="546.2"/>
      <point x="406.16999999999996" y="513.48"/>
      <point x="371.58" y="452.3" type="curve"/>
      <point x="386.31" y="544.2" type="line"/>
      <point x="322.30999999999995" y="544.2" type="line"/>
      <point x="318.99999999999994" y="523.34" type="line"/>
      <point x="298.24" y="539.2"/>
      <point x="271.48" y="546.2"/>
      <point x="244.31" y="546.2" type="curve" smooth="yes"/>
      <point x="114.73" y="546.2"/>
      <point x="19.85" y="387.67"/>
      <point x="19.85" y="155.46" type="curve" smooth="yes"/>
      <point x="19.85" y="48.290000000000006"/>
      <point x="63.45" y="-10.0"/>
    </contour>
    <contour>
      <point x="167.01999999999998" y="49.54" type="curve" smooth="yes"/>
      <point x="121.77999999999999" y="49.54"/>
      <point x="93.1" y="87.95"/>
      <point x="93.1" y="160.99" type="curve" smooth="yes"/>
      <point x="93.1" y="336.86"/>
      <point x="165.72000000000003" y="485.18"/>
      <point x="252.54" y="485.18" type="curve" smooth="yes"/>
      <point x="274.08" y="485.18"/>
      <point x="293.76" y="480.85"/>
      <point x="310.42" y="467.38" type="curve"/>
      <point x="248.96" y="76.86" type="line"/>
      <point x="226.04" y="60.51"/>
      <point x="195.15" y="49.54"/>
    </contour>
  </outline>
</glyph>
<glyph name="eth" format="2">
  <advance width="409.07"/>
  <unicode hex="00F0"/>
  <outline>
    <contour>
      <point x="343.29" y="441.67" type="curve"/>
      <point x="355.23" y="497.44" type="line"/>
      <point x="327.37000000000006" y="522.22"/>
      <point x="285.68" y="534.0"/>
      <point x="245.07" y="534.0" type="curve" smooth="yes"/>
      <point x="97.08" y="534.0"/>
      <point x="20.490000000000002" y="339.44"/>
      <point x="20.490000000000002" y="159.17" type="curve" smooth="yes"/>
      <point x="20.490000000000002" y="41.93"/>
      <point x="76.44" y="-9.69"/>
      <point x="163.92999999999998" y="-9.69" type="curve" smooth="yes"/>
      <point x="282.47999999999996" y="-9.69"/>
      <point x="346.61" y="73.95"/>
      <point x="385.16" y="309.92" type="curve" smooth="yes"/>
      <point x="397.18" y="384.59"/>
      <point x="404.06" y="443.77000000000004"/>
      <point x="404.06" y="494.19000000000005" type="curve" smooth="yes"/>
      <point x="404.06" y="647.5799999999999"/>
      <point x="328.94" y="724.5699999999999"/>
      <point x="190.76" y="724.5699999999999" type="curve" smooth="yes"/>
      <point x="157.32" y="724.5699999999999"/>
      <point x="124.60000000000001" y="718.4699999999999"/>
      <point x="91.91" y="711.16" type="curve"/>
      <point x="94.6" y="658.32" type="line"/>
      <point x="123.02" y="663.77"/>
      <point x="145.95000000000002" y="668.32"/>
      <point x="179.41" y="668.32" type="curve" smooth="yes"/>
      <point x="284.32" y="668.32"/>
      <point x="333.29" y="618.24"/>
      <point x="333.29" y="505.4" type="curve" smooth="yes"/>
      <point x="333.29" y="457.08"/>
      <point x="328.15000000000003" y="397.38"/>
      <point x="315.51" y="322.75" type="curve" smooth="yes"/>
      <point x="279.63" y="110.27000000000001"/>
      <point x="237.74" y="46.56"/>
      <point x="169.27" y="46.56" type="curve" smooth="yes"/>
      <point x="117.89" y="46.56"/>
      <point x="89.21" y="80.64"/>
      <point x="89.21" y="149.92000000000002" type="curve" smooth="yes"/>
      <point x="89.21" y="294.17999999999995"/>
      <point x="149.69000000000003" y="477.63000000000005"/>
      <point x="254.17999999999998" y="477.63000000000005" type="curve" smooth="yes"/>
      <point x="286.33" y="477.63000000000005"/>
      <point x="318.20000000000005" y="467.73"/>
    </contour>
    <contour>
      <point x="173.26" y="562.27" type="line"/>
      <point x="318.71000000000004" y="646.6099999999999" type="line"/>
      <point x="316.97" y="649.0899999999999" type="line"/>
      <point x="454.14" y="729.0899999999999" type="line"/>
      <point x="380.77" y="729.0899999999999" type="line"/>
      <point x="285.96000000000004" y="674.25" type="line"/>
      <point x="288.13000000000005" y="672.08" type="line"/>
      <point x="100.94" y="562.27" type="line"/>
    </contour>
  </outline>
</glyph>
<glyph name="divide" format="2">
  <advance width="401.19800000000004"/>
  <unicode hex="00F7"/>
  <outline>
    <contour>
      <point x="136.03400000000002" y="104.554" type="curve" smooth="yes"/>
      <point x="135.03400000000002" y="85.62799999999999"/>
      <point x="144.01199999999997" y="77.504"/>
      <point x="167.956" y="77.504" type="curve" smooth="yes"/>
      <point x="198.98799999999997" y="77.504"/>
      <point x="211.464" y="89.664"/>
      <point x="213.84400000000002" y="129.094" type="curve" smooth="yes"/>
      <point x="214.84400000000002" y="148.63400000000001"/>
      <point x="204.638" y="156.144"/>
      <point x="181.928" y="156.144" type="curve" smooth="yes"/>
      <point x="150.574" y="156.144"/>
      <point x="138.41400000000002" y="139.954"/>
    </contour>
    <contour>
      <point x="195.46" y="473.08599999999996" type="curve" smooth="yes"/>
      <point x="194.46" y="454.47"/>
      <point x="203.128" y="446.346"/>
      <point x="227.07199999999997" y="446.346" type="curve" smooth="yes"/>
      <point x="258.104" y="446.346"/>
      <point x="270.58" y="458.816"/>
      <point x="272.96" y="497.62600000000003" type="curve" smooth="yes"/>
      <point x="273.96" y="517.476"/>
      <point x="264.06399999999996" y="524.986"/>
      <point x="241.04399999999998" y="524.986" type="curve" smooth="yes"/>
      <point x="208.76" y="524.986"/>
      <point x="197.84" y="507.556"/>
    </contour>
    <contour>
      <point x="43.994" y="268.15" type="line"/>
      <point x="355.408" y="268.15" type="line"/>
      <point x="366.23400000000004" y="334.65000000000003" type="line"/>
      <point x="54.510000000000005" y="334.65000000000003" type="line"/>
    </contour>
  </outline>
</glyph>
<glyph name="oslash" format="2">
  <advance width="395.15"/>
  <unicode hex="00F8"/>
  <anchor x="236.81" y="536.2" name="top"/>
  <outline>
    <contour>
      <point x="359.64" y="546.32" type="line"/>
      <point x="314.08" y="478.78" type="line"/>
      <point x="311.34" y="479.71" type="line"/>
      <point x="65.65" y="104.44" type="line"/>
      <point x="63.220000000000006" y="105.99" type="line"/>
      <point x="-14.919999999999998" y="-10.0" type="line"/>
      <point x="38.63" y="-10.0" type="line"/>
      <point x="87.64999999999999" y="61.47999999999999" type="line"/>
      <point x="90.7" y="60.550000000000004" type="line"/>
      <point x="334.40999999999997" y="433.28999999999996" type="line"/>
      <point x="336.53" y="431.74" type="line"/>
      <point x="413.19" y="546.32" type="line"/>
    </contour>
    <contour>
      <point x="169.28" y="-10.0" type="curve" smooth="yes"/>
      <point x="315.02" y="-10.0"/>
      <point x="373.92" y="217.90000000000003"/>
      <point x="373.92" y="387.89000000000004" type="curve" smooth="yes"/>
      <point x="373.92" y="500.18999999999994"/>
      <point x="324.16999999999996" y="546.32"/>
      <point x="229.47" y="546.32" type="curve" smooth="yes"/>
      <point x="82.44" y="546.32"/>
      <point x="23.589999999999996" y="312.94"/>
      <point x="23.589999999999996" y="147.74" type="curve" smooth="yes"/>
      <point x="23.589999999999996" y="35.68"/>
      <point x="71.84" y="-10.0"/>
    </contour>
    <contour>
      <point x="169.35" y="50.9" type="curve" smooth="yes"/>
      <point x="118.25" y="50.589999999999996"/>
      <point x="91.07" y="76.51"/>
      <point x="90.75999999999999" y="145.95" type="curve" smooth="yes"/>
      <point x="90.13999999999999" y="252.47000000000003"/>
      <point x="134.21" y="484.79999999999995"/>
      <point x="228.66" y="485.41999999999996" type="curve" smooth="yes"/>
      <point x="278.38" y="485.72999999999996"/>
      <point x="306.13" y="457.93"/>
      <point x="306.44" y="389.49" type="curve" smooth="yes"/>
      <point x="307.06" y="276.44"/>
      <point x="262.82" y="51.519999999999996"/>
    </contour>
  </outline>
</glyph>
<glyph name="thorn" format="2">
  <advance width="402.90500000000003"/>
  <unicode hex="00FE"/>
  <outline>
    <contour>
      <point x="-24.574" y="-210.0" type="line"/>
      <point x="45.489" y="-210.0" type="line"/>
      <point x="78.90299999999999" y="-0.06799999999999976" type="line"/>
      <point x="98.733" y="-5.414"/>
      <point x="122.251" y="-9.535000000000002"/>
      <point x="151.52700000000002" y="-9.535000000000002" type="curve" smooth="yes"/>
      <point x="297.05" y="-9.535000000000002"/>
      <point x="382.468" y="175.21"/>
      <point x="382.468" y="377.46900000000005" type="curve" smooth="yes"/>
      <point x="382.468" y="492.54799999999994"/>
      <point x="346.91599999999994" y="546.2"/>
      <point x="271.954" y="546.2" type="curve" smooth="yes"/>
      <point x="225.76899999999998" y="546.2"/>
      <point x="192.096" y="527.599"/>
      <point x="158.695" y="505.18500000000006" type="curve"/>
      <point x="196.04100000000003" y="740.0" type="line"/>
      <point x="125.426" y="740.0" type="line"/>
    </contour>
    <contour>
      <point x="144.981" y="51.538" type="curve" smooth="yes"/>
      <point x="123.198" y="51.538"/>
      <point x="104.02000000000001" y="55.298"/>
      <point x="88.723" y="60.903" type="curve"/>
      <point x="149.97700000000003" y="447.38000000000005" type="line"/>
      <point x="177.435" y="466.26700000000005"/>
      <point x="210.68699999999998" y="479.082"/>
      <point x="238.419" y="479.082" type="curve" smooth="yes"/>
      <point x="286.14" y="479.082"/>
      <point x="310.30299999999994" y="443.00000000000006"/>
      <point x="310.30299999999994" y="364.72099999999995" type="curve" smooth="yes"/>
      <point x="310.30299999999994" y="208.15"/>
      <point x="244.98999999999998" y="51.538"/>
    </contour>
  </outline>
</glyph>
<glyph name="Dcroat" format="2">
  <advance width="482.4920000000001"/>
  <unicode hex="0110"/>
  <outline>
    <contour>
      <point x="17.578000000000007" y="326.10900000000004" type="line"/>
      <point x="242.83" y="326.10900000000004" type="line"/>
      <point x="253.89" y="389.995" type="line"/>
      <point x="28.79" y="389.995" type="line"/>
    </contour>
    <component base="D" xOffset="7.553"/>
  </outline>
</glyph>
<glyph name="dcroat" format="2">
  <advance width="409.397"/>
  <unicode hex="0111"/>
  <outline>
    <contour>
      <point x="214.802" y="615.657" type="line"/>
      <point x="464.75" y="615.657" type="line"/>
      <point x="472.09000000000003" y="658.32" type="line"/>
      <point x="222.29699999999997" y="658.32" type="line"/>
    </contour>
    <component base="d"/>
  </outline>
</glyph>
<glyph name="Hbar" format="2">
  <advance width="488.93600000000004"/>
  <unicode hex="0126"/>
  <outline>
    <contour>
      <point x="44.556" y="500.79400000000004" type="line"/>
      <point x="516.318" y="500.79400000000004" type="line"/>
      <point x="525.462" y="558.8919999999999" type="line"/>
      <point x="53.7" y="558.8919999999999" type="line"/>
    </contour>
    <component base="H" xOffset="1.9920000000000002"/>
  </outline>
</glyph>
<glyph name="hbar" format="2">
  <advance width="410.27"/>
  <unicode hex="0127"/>
  <outline>
    <contour>
      <point x="53.444" y="615.657" type="line"/>
      <point x="281.921" y="615.657" type="line"/>
      <point x="288.951" y="658.32" type="line"/>
      <point x="60.474" y="658.32" type="line"/>
    </contour>
    <component base="h" xOffset="1.5500000000000003"/>
  </outline>
</glyph>
<glyph name="Idotaccent" format="2">
  <advance width="178.914"/>
  <unicode hex="0130"/>
  <outline>
    <contour>
      <point x="185.362" y="875.83" type="curve" smooth="yes"/>
      <point x="148.126" y="875.83"/>
      <point x="135.904" y="854.0799999999999"/>
      <point x="134.10999999999999" y="814.8000000000001" type="curve" smooth="yes"/>
      <point x="133.558" y="792.678"/>
      <point x="146.384" y="783.922"/>
      <point x="169.172" y="783.922" type="curve" smooth="yes"/>
      <point x="205.60999999999999" y="783.922"/>
      <point x="218.706" y="805.3000000000001"/>
      <point x="220.638" y="845.4000000000001" type="curve" smooth="yes"/>
      <point x="221.19" y="867.322"/>
      <point x="208.53" y="875.83"/>
    </contour>
    <component base="I"/>
  </outline>
</glyph>
<glyph name="dotlessi" format="2">
  <advance width="173.994"/>
  <unicode hex="0131"/>
  <anchor x="42.803528" y="0.0" name="bottom"/>
  <anchor x="78.63" y="0.0" name="ogonek"/>
  <anchor x="127.87847199999999" y="536.2" name="top"/>
  <outline>
    <contour>
      <point x="78.63" y="0.0" type="line"/>
      <point x="163.498" y="536.2" type="line"/>
      <point x="92.66600000000001" y="536.2" type="line"/>
      <point x="8.226" y="0.062" type="line"/>
    </contour>
  </outline>
</glyph>
<glyph name="kgreenlandic" format="2">
  <advance width="380.61"/>
  <unicode hex="0138"/>
  <anchor x="160.85" y="0.0" name="bottom"/>
  <anchor x="235.86999999999998" y="536.2" name="top"/>
  <outline>
    <contour>
      <point x="8.149999999999999" y="0.0" type="line"/>
      <point x="79.35000000000001" y="0.0" type="line"/>
      <point x="164.09" y="536.2" type="line"/>
      <point x="92.58" y="536.2" type="line"/>
    </contour>
    <contour>
      <point x="318.89" y="-10.0" type="curve" smooth="yes"/>
      <point x="328.67999999999995" y="-10.0"/>
      <point x="338.46999999999997" y="-8.5"/>
      <point x="348.57" y="-4.569999999999999" type="curve"/>
      <point x="354.8" y="64.25" type="line"/>
      <point x="348.18" y="62.870000000000005"/>
      <point x="342.37" y="62.489999999999995"/>
      <point x="337.25" y="62.800000000000004" type="curve" smooth="yes"/>
      <point x="308.32" y="64.35"/>
      <point x="280.08" y="92.52999999999999"/>
      <point x="220.25" y="200.14999999999998" type="curve" smooth="yes"/>
      <point x="126.8" y="364.59999999999997" type="line"/>
      <point x="108.24" y="274.54" type="line"/>
      <point x="194.03" y="119.12" type="line" smooth="yes"/>
      <point x="246.45" y="23.48"/>
      <point x="276.74" y="-10.0"/>
    </contour>
    <contour>
      <point x="187.04000000000002" y="245.28" type="line"/>
      <point x="279.49" y="314.34000000000003"/>
      <point x="360.44" y="423.92"/>
      <point x="402.43" y="535.96" type="curve"/>
      <point x="333.54" y="545.82" type="line"/>
      <point x="288.96" y="431.07"/>
      <point x="233.3" y="356.63"/>
      <point x="147.92" y="291.92" type="curve"/>
    </contour>
  </outline>
</glyph>
<glyph name="Ldot" format="2">
  <advance width="356.098"/>
  <unicode hex="013F"/>
  <outline>
    <contour>
      <point x="248.49750400000002" y="365.864576" type="curve" smooth="yes"/>
      <point x="247.255504" y="344.51689600000003"/>
      <point x="254.66217600000002" y="336.42047199999996"/>
      <point x="276.73844" y="336.42047199999996" type="curve" smooth="yes"/>
      <point x="306.159128" y="336.42047199999996"/>
      <point x="315.094384" y="355.35583199999996"/>
      <point x="316.61238399999996" y="383.686432" type="curve" smooth="yes"/>
      <point x="317.854384" y="404.275528"/>
      <point x="310.999712" y="412.923952"/>
      <point x="289.150616" y="412.923952" type="curve" smooth="yes"/>
      <point x="259.957344" y="412.923952"/>
      <point x="250.015504" y="393.94717599999996"/>
    </contour>
    <component base="L"/>
  </outline>
</glyph>
<glyph name="ldot" format="2">
  <advance width="249.75600000000003"/>
  <unicode hex="0140"/>
  <outline>
    <contour>
      <point x="198.65147000000002" y="357.72411999999997" type="curve" smooth="yes"/>
      <point x="197.40947" y="337.713904"/>
      <point x="203.595238" y="330.374004"/>
      <point x="223.07184200000003" y="330.374004" type="curve" smooth="yes"/>
      <point x="249.50245599999997" y="330.374004"/>
      <point x="256.5203" y="348.277622"/>
      <point x="258.0383" y="374.660988" type="curve" smooth="yes"/>
      <point x="259.2803" y="393.877094"/>
      <point x="253.646532" y="401.768994"/>
      <point x="234.36715" y="401.768994" type="curve" smooth="yes"/>
      <point x="208.133448" y="401.768994"/>
      <point x="200.16947000000002" y="383.93965199999997"/>
    </contour>
    <component base="l"/>
  </outline>
</glyph>
<glyph name="Lslash" format="2">
  <advance width="364.92800000000005"/>
  <unicode hex="0141"/>
  <outline>
    <contour>
      <point x="16.84" y="0.0" type="line"/>
      <point x="310.558" y="0.0" type="line"/>
      <point x="321.30800000000005" y="66.244" type="line"/>
      <point x="99.104" y="66.244" type="line"/>
      <point x="134.06799999999998" y="286.208" type="line"/>
      <point x="290.99600000000004" y="392.406" type="line"/>
      <point x="303.242" y="466.09000000000003" type="line"/>
      <point x="145.81799999999998" y="359.644" type="line"/>
      <point x="199.974" y="700.0" type="line"/>
      <point x="128.336" y="700.0" type="line"/>
      <point x="67.598" y="317.99399999999997" type="line"/>
      <point x="14.824000000000002" y="281.48400000000004" type="line"/>
      <point x="2.894000000000001" y="207.558" type="line"/>
      <point x="55.296" y="244.00600000000003" type="line"/>
    </contour>
  </outline>
</glyph>
<glyph name="lslash" format="2">
  <advance width="205.11999999999998"/>
  <unicode hex="0142"/>
  <outline>
    <contour>
      <point x="-0.20399999999999974" y="194.438" type="line"/>
      <point x="211.79" y="372.742" type="line"/>
      <point x="222.36200000000002" y="440.794" type="line"/>
      <point x="10.058" y="262.49" type="line"/>
    </contour>
    <component base="l" xOffset="4.96"/>
  </outline>
</glyph>
<glyph name="Eng" format="2">
  <advance width="481.38500000000005"/>
  <unicode hex="014A"/>
  <outline>
    <contour>
      <point x="8.545" y="0.0" type="line"/>
      <point x="77.025" y="0.0" type="line"/>
      <point x="162.39000000000001" y="541.4099999999999" type="line"/>
      <point x="316.55" y="-0.8599999999999997" type="line"/>
      <point x="304.92499999999995" y="-73.13"/>
      <point x="265.96" y="-96.5"/>
      <point x="213.58" y="-96.5" type="curve" smooth="yes"/>
      <point x="195.075" y="-97.12"/>
      <point x="175.57" y="-94.945"/>
      <point x="154.655" y="-89.71999999999998" type="curve"/>
      <point x="141.44" y="-160.87" type="line"/>
      <point x="164.54500000000002" y="-166.71499999999997"/>
      <point x="189.165" y="-169.285"/>
      <point x="210.185" y="-169.285" type="curve" smooth="yes"/>
      <point x="314.54499999999996" y="-168.355"/>
      <point x="367.31" y="-110.2"/>
      <point x="384.82500000000005" y="0.49" type="curve" smooth="yes"/>
      <point x="496.37500000000006" y="700.0" type="line"/>
      <point x="428.085" y="700.0" type="line"/>
      <point x="341.705" y="151.70499999999998" type="line"/>
      <point x="190.64499999999998" y="701.38" type="line"/>
      <point x="119.50999999999999" y="701.38" type="line"/>
    </contour>
  </outline>
</glyph>
<glyph name="eng" format="2">
  <advance width="405.40400000000005"/>
  <unicode hex="014B"/>
  <outline>
    <contour>
      <point x="302.284" y="-40.456" type="curve" smooth="yes"/>
      <point x="349.76200000000006" y="264.78"/>
      <point x="381.16400000000004" y="447.2"/>
      <point x="381.16400000000004" y="461.602" type="curve" smooth="yes"/>
      <point x="381.16400000000004" y="512.9200000000001"/>
      <point x="349.312" y="546.2"/>
      <point x="288.57199999999995" y="546.2" type="curve" smooth="yes"/>
      <point x="242.44" y="546.2"/>
      <point x="198.418" y="529.646"/>
      <point x="151.712" y="501.6380000000001" type="curve"/>
      <point x="157.298" y="536.2" type="line"/>
      <point x="92.60400000000001" y="536.2" type="line"/>
      <point x="7.812000000000002" y="0.0" type="line"/>
      <point x="77.78200000000001" y="0.0" type="line"/>
      <point x="149.456" y="447.69" type="line"/>
      <point x="183.17000000000002" y="466.986"/>
      <point x="217.796" y="480.874"/>
      <point x="250.13799999999998" y="480.874" type="curve" smooth="yes"/>
      <point x="289.55800000000005" y="480.874"/>
      <point x="307.01800000000003" y="462.882"/>
      <point x="306.522" y="430.252" type="curve" smooth="yes"/>
      <point x="305.778" y="417.34400000000005"/>
      <point x="294.878" y="351.116"/>
      <point x="233.38200000000003" y="-38.06000000000001" type="curve" smooth="yes"/>
      <point x="222.786" y="-104.64399999999999"/>
      <point x="203.106" y="-147.65599999999998"/>
      <point x="156.906" y="-147.65599999999998" type="curve" smooth="yes"/>
      <point x="148.758" y="-147.65599999999998"/>
      <point x="140.556" y="-146.828"/>
      <point x="130.394" y="-143.70999999999998" type="curve"/>
      <point x="114.358" y="-215.332" type="line"/>
      <point x="127.956" y="-218.93200000000002"/>
      <point x="147.346" y="-220.82799999999997"/>
      <point x="165.154" y="-220.82799999999997" type="curve" smooth="yes"/>
      <point x="237.07" y="-220.82799999999997"/>
      <point x="283.812" y="-167.87"/>
    </contour>
  </outline>
</glyph>
<glyph name="OE" format="2">
  <advance width="690.125"/>
  <unicode hex="0152"/>
  <outline>
    <contour>
      <point x="626.672" y="0.0" type="line"/>
      <point x="637.4219999999999" y="66.585" type="line"/>
      <point x="387.88900000000007" y="66.585" type="line"/>
      <point x="428.872" y="328.24" type="line"/>
      <point x="646.6970000000001" y="328.24" type="line"/>
      <point x="657.7570000000001" y="393.275" type="line"/>
      <point x="439.622" y="393.275" type="line"/>
      <point x="477.55" y="632.64" type="line"/>
      <point x="714.08" y="632.64" type="line"/>
      <point x="725.599" y="700.0" type="line"/>
      <point x="484.92" y="700.0" type="line"/>
      <point x="441.62899999999996" y="704.079"/>
      <point x="390.004" y="710.0"/>
      <point x="341.61299999999994" y="710.0" type="curve" smooth="yes"/>
      <point x="145.846" y="710.0"/>
      <point x="33.873" y="488.988"/>
      <point x="33.873" y="201.99299999999997" type="curve" smooth="yes"/>
      <point x="33.873" y="53.68599999999999"/>
      <point x="94.882" y="-10.0"/>
      <point x="238.297" y="-10.0" type="curve" smooth="yes"/>
      <point x="276.366" y="-10.0"/>
      <point x="319.72700000000003" y="-6.231"/>
      <point x="371.887" y="0.0" type="curve"/>
    </contour>
    <contour>
      <point x="314.79999999999995" y="60.026" type="line"/>
      <point x="287.7780000000001" y="55.958999999999996"/>
      <point x="264.57400000000007" y="54.421"/>
      <point x="238.905" y="54.421" type="curve" smooth="yes"/>
      <point x="142.82" y="54.421"/>
      <point x="105.649" y="106.82"/>
      <point x="105.649" y="210.084" type="curve" smooth="yes"/>
      <point x="105.649" y="448.16"/>
      <point x="196.903" y="644.333"/>
      <point x="330.51700000000005" y="644.333" type="curve" smooth="yes"/>
      <point x="351.3500000000001" y="644.333"/>
      <point x="391.7130000000001" y="640.6489999999999"/>
      <point x="406.61899999999997" y="638.7310000000001" type="curve"/>
    </contour>
  </outline>
</glyph>
<glyph name="oe" format="2">
  <advance width="647.48"/>
  <unicode hex="0153"/>
  <outline>
    <contour>
      <point x="166.82" y="-10.0" type="curve" smooth="yes"/>
      <point x="231.53" y="-10.0"/>
      <point x="280.62" y="42.69"/>
      <point x="307.4" y="109.73" type="curve"/>
      <point x="325.66" y="33.379999999999995"/>
      <point x="373.35" y="-10.0"/>
      <point x="450.67" y="-10.0" type="curve" smooth="yes"/>
      <point x="499.31999999999994" y="-10.0"/>
      <point x="553.97" y="1.0000000000000002"/>
      <point x="594.4799999999999" y="20.79" type="curve"/>
      <point x="581.28" y="82.67" type="line"/>
      <point x="538.68" y="65.05"/>
      <point x="495.44" y="55.86"/>
      <point x="461.53999999999996" y="55.86" type="curve" smooth="yes"/>
      <point x="394.15" y="55.86"/>
      <point x="357.64" y="100.43"/>
      <point x="357.64" y="192.03" type="curve" smooth="yes"/>
      <point x="357.64" y="364.65"/>
      <point x="426.76" y="485.3"/>
      <point x="515.22" y="485.3" type="curve" smooth="yes"/>
      <point x="557.7700000000001" y="485.3"/>
      <point x="579.0699999999999" y="466.36"/>
      <point x="579.0699999999999" y="428.54" type="curve" smooth="yes"/>
      <point x="579.0699999999999" y="370.89"/>
      <point x="528.78" y="325.25"/>
      <point x="447.9" y="299.4" type="curve" smooth="yes"/>
      <point x="416.1" y="289.26000000000005"/>
      <point x="380.03999999999996" y="283.5"/>
      <point x="346.55" y="282.93" type="curve"/>
      <point x="337.96999999999997" y="227.85000000000002" type="line"/>
      <point x="378.61" y="228.3"/>
      <point x="422.87" y="234.18"/>
      <point x="461.9" y="245.36999999999998" type="curve" smooth="yes"/>
      <point x="575.62" y="277.32000000000005"/>
      <point x="647.2900000000001" y="349.97"/>
      <point x="647.2900000000001" y="440.53000000000003" type="curve" smooth="yes"/>
      <point x="647.2900000000001" y="505.64"/>
      <point x="603.35" y="546.2"/>
      <point x="524.35" y="546.2" type="curve" smooth="yes"/>
      <point x="451.05" y="546.2"/>
      <point x="392.91999999999996" y="503.84000000000003"/>
      <point x="355.92" y="438.84" type="curve"/>
      <point x="345.57" y="509.6"/>
      <point x="303.25" y="546.32"/>
      <point x="225.38" y="546.32" type="curve" smooth="yes"/>
      <point x="82.34" y="546.32"/>
      <point x="20.78" y="312.63"/>
      <point x="20.78" y="149.29000000000002" type="curve" smooth="yes"/>
      <point x="20.78" y="37.54"/>
      <point x="67.48" y="-10.0"/>
    </contour>
    <contour>
      <point x="169.06" y="52.14" type="curve" smooth="yes"/>
      <point x="116.68" y="52.14"/>
      <point x="90.42999999999999" y="76.82000000000001"/>
      <point x="90.11999999999999" y="146.57" type="curve" smooth="yes"/>
      <point x="89.49999999999999" y="255.57000000000002"/>
      <point x="138.02" y="483.87"/>
      <point x="223.32999999999998" y="484.18" type="curve" smooth="yes"/>
      <point x="274.33" y="484.18"/>
      <point x="301.46000000000004" y="457.93"/>
      <point x="301.77000000000004" y="388.87" type="curve" smooth="yes"/>
      <point x="302.39000000000004" y="278.29999999999995"/>
      <point x="253.39" y="52.45"/>
    </contour>
  </outline>
</glyph>
